<svg width="16" height="16" viewBox="0 0 16 16" fill="none" xmlns="http://www.w3.org/2000/svg">
<path d="M4.03277 15.4212H11.97C13.8681 15.4212 15.421 13.8683 15.421 11.9702L15.4212 9.72709C15.4212 9.41074 15.1624 9.15198 14.8461 9.15198C14.5297 9.15198 14.2709 9.41076 14.2709 9.72709V11.9702C14.2709 13.2356 13.2357 14.2709 11.9702 14.2709L4.03297 14.2707C2.76756 14.2707 1.73226 13.2354 1.73226 11.97L1.73246 4.03276C1.73246 2.76735 2.76776 1.73206 4.03317 1.73206L6.27611 1.73226C6.59246 1.73226 6.85122 1.47348 6.85122 1.15714C6.85122 0.840808 6.59244 0.582031 6.27611 0.582031H4.03297C2.13487 0.582031 0.582031 2.13487 0.582031 4.03297V11.9702C0.582031 13.8681 2.13508 15.4212 4.03297 15.4212H4.03277Z" fill="#737373"/>
<path d="M11.7988 1.3307L5.93213 7.19738C5.87456 7.25495 5.81718 7.34121 5.7883 7.45616L4.98307 10.332C4.89681 10.6483 5.06933 10.9647 5.38567 11.0509C5.47193 11.0796 5.58708 11.0796 5.70202 11.0509L8.57784 10.2457C8.6641 10.217 8.75036 10.1594 8.83662 10.1019L14.7321 4.23519C15.5373 3.42996 15.5373 2.13589 14.7321 1.33066C13.9268 0.525229 12.5752 0.525229 11.7989 1.33046L11.7988 1.3307ZM6.33474 9.67059L6.62241 8.69286L7.34136 9.41181L6.33474 9.67059ZM13.8694 3.40129L8.43409 8.8366L7.16868 7.57118L12.604 2.13588C12.9779 1.81953 13.553 1.84822 13.8694 2.22214C14.1569 2.56718 14.1569 3.05603 13.8692 3.40107L13.8694 3.40129Z" fill="#737373"/>
</svg>
