<svg width="60" height="60" viewBox="0 0 60 60" fill="none" xmlns="http://www.w3.org/2000/svg">
<path d="M30 0C13.4526 0 0 13.4526 0 30C0 46.5474 13.4526 60 30 60C46.5474 60 60 46.5474 60 30C60 13.4526 46.5474 0 30 0ZM30 56.3368C15.4737 56.3368 3.66316 44.5263 3.66316 30C3.66316 15.4737 15.4737 3.66316 30 3.66316C44.5263 3.66316 56.3368 15.4737 56.3368 30C56.3368 44.5263 44.5263 56.3368 30 56.3368Z" fill="#4DB45F"/>
<path d="M26.2093 35.5598L17.178 26.528L13.957 29.7492L26.2097 42.0019L47.1781 21.0334L43.8937 17.8125L26.2093 35.5598Z" fill="#4DB45F"/>
</svg>
