<svg width="28" height="28" viewBox="0 0 28 28" fill="none" xmlns="http://www.w3.org/2000/svg">
<path d="M14 0C6.27789 0 0 6.27789 0 14C0 21.7221 6.27789 28 14 28C21.7221 28 28 21.7221 28 14C28 6.27789 21.7221 0 14 0ZM14 26.2905C7.22105 26.2905 1.70947 20.7789 1.70947 14C1.70947 7.22105 7.22105 1.70947 14 1.70947C20.7789 1.70947 26.2905 7.22105 26.2905 14C26.2905 20.7789 20.7789 26.2905 14 26.2905Z" fill="#4DB45F"/>
<path d="M12.2334 16.5946L8.01873 12.3797L6.51562 13.883L12.2335 19.6009L22.0188 9.8156L20.4861 8.3125L12.2334 16.5946Z" fill="#4DB45F"/>
</svg>
