<svg width="30" height="30" viewBox="0 0 30 30" fill="none" xmlns="http://www.w3.org/2000/svg">
<path d="M7.50024 25.0002C7.00625 25.0091 6.5157 24.9166 6.05885 24.7284C5.602 24.5403 5.18854 24.2606 4.84399 23.9065C4.48989 23.5619 4.21016 23.1485 4.02204 22.6916C3.83393 22.2348 3.74142 21.7442 3.75024 21.2502C3.06274 21.2502 2.47524 21.0052 1.98524 20.5165C1.74859 20.2879 1.56128 20.0132 1.43487 19.7095C1.30846 19.4057 1.24562 19.0792 1.25024 18.7502V7.50025C1.25024 6.81275 1.49524 6.22525 1.98524 5.73525C2.21351 5.49852 2.48793 5.31114 2.79152 5.18472C3.09511 5.05829 3.42141 4.99551 3.75024 5.00025H18.7502C19.4377 5.00025 20.0265 5.24525 20.5165 5.73525C21.0052 6.224 21.2502 6.81275 21.2502 7.50025V10.0002H24.3752C24.584 10.0002 24.7715 10.0415 24.9377 10.1253C25.104 10.209 25.2502 10.334 25.3752 10.5002L28.5002 14.6565C28.5827 14.759 28.6462 14.8754 28.6877 15.0002C28.729 15.1252 28.7502 15.2602 28.7502 15.4065V20.0002C28.7502 20.354 28.6302 20.6502 28.3902 20.8902C28.2744 21.008 28.1357 21.1007 27.9826 21.1626C27.8295 21.2245 27.6653 21.2544 27.5002 21.2502H26.2502C26.2502 22.2915 25.8852 23.1777 25.1565 23.9065C24.8119 24.2606 24.3985 24.5403 23.9416 24.7284C23.4848 24.9166 22.9942 25.0091 22.5002 25.0002C22.0063 25.0091 21.5157 24.9166 21.0588 24.7284C20.602 24.5403 20.1885 24.2606 19.844 23.9065C19.4899 23.5619 19.2102 23.1485 19.022 22.6916C18.8339 22.2348 18.7414 21.7442 18.7502 21.2502H11.2502C11.2502 22.2915 10.8852 23.1777 10.1565 23.9065C9.81193 24.2606 9.39848 24.5403 8.94163 24.7284C8.48478 24.9166 7.99422 25.0091 7.50024 25.0002ZM7.50024 22.5002C7.66551 22.5043 7.82986 22.4745 7.98314 22.4125C8.13643 22.3506 8.2754 22.258 8.39149 22.1402C8.50887 22.0242 8.60126 21.8854 8.66296 21.7324C8.72466 21.5793 8.75436 21.4152 8.75024 21.2502C8.75436 21.0853 8.72466 20.9212 8.66296 20.7681C8.60126 20.6151 8.50887 20.4762 8.39149 20.3602C8.2754 20.2425 8.13643 20.1499 7.98314 20.088C7.82986 20.026 7.66551 19.9962 7.50024 20.0002C7.33497 19.9962 7.17062 20.026 7.01733 20.088C6.86404 20.1499 6.72507 20.2425 6.60899 20.3602C6.4916 20.4762 6.39921 20.6151 6.33751 20.7681C6.27581 20.9212 6.24611 21.0853 6.25024 21.2502C6.25024 21.604 6.37024 21.9002 6.60899 22.1402C6.84899 22.3802 7.14649 22.5002 7.50024 22.5002ZM22.5002 22.5002C22.854 22.5002 23.1502 22.3802 23.3902 22.1402C23.508 22.0244 23.6007 21.8857 23.6626 21.7326C23.7245 21.5795 23.7543 21.4153 23.7502 21.2502C23.7543 21.0852 23.7245 20.921 23.6626 20.7679C23.6007 20.6148 23.508 20.4761 23.3902 20.3602C23.2744 20.2425 23.1357 20.1498 22.9826 20.0879C22.8295 20.026 22.6653 19.9961 22.5002 20.0002C22.3351 19.9961 22.171 20.026 22.0179 20.0879C21.8648 20.1498 21.726 20.2425 21.6102 20.3602C21.4925 20.4761 21.3998 20.6148 21.3379 20.7679C21.276 20.921 21.2461 21.0852 21.2502 21.2502C21.2502 21.604 21.3702 21.9002 21.6102 22.1402C21.726 22.258 21.8648 22.3507 22.0179 22.4126C22.171 22.4745 22.3351 22.5044 22.5002 22.5002ZM21.2502 16.2502H26.5627L23.7502 12.5002H21.2502V16.2502Z" fill="#9E9E9E"/>
</svg>
