<svg width="30" height="30" viewBox="0 0 30 30" fill="none" xmlns="http://www.w3.org/2000/svg">
<g clip-path="url(#clip0_388_7317)">
<path d="M24.1665 0H5.8335C2.61175 0 0 2.61175 0 5.8335V24.1665C0 27.3883 2.61175 30 5.8335 30H24.1665C27.3883 30 30 27.3883 30 24.1665V5.8335C30 2.61175 27.3883 0 24.1665 0Z" fill="#9E9E9E"/>
<mask id="mask0_388_7317" style="mask-type:luminance" maskUnits="userSpaceOnUse" x="2" y="7" width="26" height="16">
<path d="M27.5141 7.44922H2.59766V22.6342H27.5141V7.44922Z" fill="white"/>
</mask>
<g mask="url(#mask0_388_7317)">
<path d="M6.79415 7.55859V14.3612H5.66037V8.5375H3.7314V14.3612H2.59766V7.55859H6.79415Z" fill="white"/>
<path d="M9.00474 14.0957C8.66509 13.7838 8.4181 13.3843 8.29091 12.941C8.10474 12.3189 8.01618 11.6717 8.02847 11.0225C8.01644 10.3552 8.10491 9.68994 8.29091 9.04895C8.41581 8.59112 8.66249 8.17573 9.00474 7.84697C9.304 7.5903 9.68523 7.44922 10.0794 7.44922C10.4737 7.44922 10.8549 7.5903 11.1542 7.84697C11.4982 8.17276 11.7446 8.58814 11.8654 9.04632C12.0516 9.68815 12.1401 10.3544 12.1278 11.0225C12.14 11.6726 12.0515 12.3207 11.8654 12.9436C11.7414 13.3871 11.496 13.7871 11.1568 14.0984C10.8516 14.3444 10.4715 14.4786 10.0794 14.4786C9.68747 14.4786 9.30729 14.3444 9.00214 14.0984L9.00474 14.0957ZM9.28295 12.3741C9.3273 12.6708 9.43663 12.954 9.60313 13.2034C9.65554 13.282 9.72604 13.3468 9.80868 13.3925C9.89135 13.4381 9.98376 13.4633 10.0781 13.4659C10.359 13.4659 10.5794 13.2612 10.7421 12.8518C10.9304 12.2584 11.0122 11.6365 10.9836 11.0147C10.9908 10.5416 10.9539 10.0689 10.8733 9.60271C10.831 9.29617 10.7227 9.00248 10.5558 8.74191C10.509 8.65652 10.44 8.58529 10.3562 8.53564C10.2724 8.48603 10.1768 8.45985 10.0794 8.45985C9.98206 8.45985 9.88646 8.48603 9.80268 8.53564C9.71888 8.58529 9.64994 8.65652 9.60313 8.74191C9.43824 9.00277 9.32922 9.29498 9.28295 9.60008C9.20144 10.0653 9.16366 10.5372 9.17008 11.0094C9.16292 11.4669 9.2007 11.924 9.28295 12.3741Z" fill="white"/>
<path d="M15.6598 7.55859V10.1673H15.0588C14.8409 10.1792 14.6233 10.1397 14.4236 10.0518C14.2661 9.96816 14.1453 9.82872 14.0851 9.66077C14.0049 9.42711 13.9685 9.18069 13.9775 8.93381V7.55859H12.8438V8.92855C12.8108 9.51949 12.9874 10.1031 13.3424 10.5767C13.5288 10.7838 13.7599 10.9457 14.0182 11.0503C14.2764 11.1549 14.5551 11.1993 14.8331 11.1803H15.6598V14.3612H16.7935V7.55859H15.6598Z" fill="white"/>
<path d="M21.7949 8.5375H20.4643V14.3612H19.3306V8.5375H18V7.55859H21.7949V8.5375Z" fill="white"/>
<path d="M24.0999 7.56135H25.008C25.3822 7.54112 25.7539 7.63248 26.0762 7.8238C26.3573 8.01169 26.5758 8.27951 26.7034 8.59276C26.8594 8.98134 26.9576 9.39076 26.9947 9.80787L27.5196 14.3508H26.3858L26.0184 11.1778H24.0947V14.3639H22.9609V7.56135H24.0999ZM24.0999 10.212H25.9108L25.8636 9.82098C25.8426 9.56971 25.7906 9.32201 25.7087 9.08351C25.6513 8.92304 25.5388 8.78818 25.3912 8.70297C25.2008 8.61172 24.9904 8.57017 24.7797 8.58226H24.0999V10.212Z" fill="white"/>
<path d="M3.8469 15.7155C4.2249 15.7055 4.59801 15.8029 4.92291 15.9964C5.24148 16.1991 5.48983 16.4951 5.63414 16.8441C5.8185 17.2887 5.9079 17.7669 5.89658 18.2481C5.90824 18.7033 5.82699 19.156 5.65774 19.5787C5.53239 19.9034 5.32969 20.1926 5.06725 20.4212C4.8898 20.5883 4.65968 20.6886 4.41639 20.7046C4.29039 20.7134 4.16397 20.6945 4.04606 20.6492C3.92816 20.6038 3.82166 20.5331 3.73403 20.4422V22.5181H2.59766V15.7155H3.8469ZM3.79703 19.2375C3.825 19.3591 3.8827 19.4718 3.96498 19.5656C3.99181 19.5986 4.02532 19.6255 4.06333 19.6445C4.10136 19.6635 4.14297 19.6742 4.18545 19.6758C4.28507 19.6703 4.37886 19.6271 4.44789 19.5551C4.55388 19.4449 4.62979 19.3094 4.66834 19.1614C4.7321 18.9353 4.76131 18.7008 4.75494 18.466C4.75494 17.8308 4.67884 17.382 4.52136 17.1196C4.45689 16.9983 4.35985 16.8975 4.24115 16.8284C4.12245 16.7593 3.9868 16.7247 3.84951 16.7286H3.73403V18.7127C3.73055 18.8897 3.75175 19.0663 3.79703 19.2375Z" fill="white"/>
<path d="M7.14932 22.2494C6.80817 21.9376 6.56096 21.5368 6.43547 21.092C6.24913 20.47 6.1606 19.8228 6.17302 19.1735C6.16099 18.5071 6.24947 17.8426 6.43547 17.2026C6.55931 16.7451 6.80622 16.3303 7.14932 16.0032C7.44856 15.7466 7.82979 15.6055 8.22403 15.6055C8.61828 15.6055 8.99948 15.7466 9.29874 16.0032C9.64131 16.3292 9.88742 16.7433 10.01 17.2C10.196 17.8418 10.2845 18.508 10.2724 19.1762C10.2892 19.8256 10.2051 20.4736 10.0231 21.0973C9.89979 21.541 9.65427 21.9411 9.31448 22.252C9.01015 22.4999 8.62965 22.6352 8.23714 22.6352C7.84464 22.6352 7.46415 22.4999 7.15982 22.252L7.14932 22.2494ZM7.43014 20.5304C7.47615 20.8196 7.58449 21.0955 7.74768 21.3387C7.79962 21.4165 7.86927 21.4809 7.95095 21.5265C8.03263 21.5722 8.12396 21.5977 8.21747 21.6011C8.4974 21.6011 8.71787 21.3964 8.87882 20.987C9.06972 20.3943 9.15239 19.772 9.1229 19.1499C9.13003 18.6769 9.09315 18.2042 9.01266 17.738C8.96911 17.4334 8.86085 17.1416 8.69512 16.8824C8.64828 16.797 8.57936 16.7258 8.49556 16.6762C8.41176 16.6265 8.31615 16.6004 8.21877 16.6004C8.12138 16.6004 8.02581 16.6265 7.942 16.6762C7.8582 16.7258 7.78926 16.797 7.74245 16.8824C7.57725 17.151 7.47081 17.4515 7.43014 17.7642C7.34888 18.2295 7.3111 18.7013 7.3173 19.1735C7.31067 19.6284 7.34848 20.0829 7.43014 20.5304Z" fill="white"/>
<path d="M11.0464 17.2555C11.3231 16.743 11.7587 16.3341 12.2877 16.0903C12.9071 15.8213 13.5786 15.694 14.2534 15.7176V16.7385C13.4451 16.7385 12.8284 16.9406 12.4006 17.35C11.9728 17.7594 11.7576 18.3656 11.7576 19.1871C11.7576 20.0086 11.9702 20.5518 12.3979 20.935C12.8257 21.3182 13.4477 21.5124 14.2534 21.5124V22.5201C13.0934 22.5201 12.1985 22.2402 11.5686 21.6803C10.9388 21.1204 10.6238 20.285 10.6238 19.174C10.5989 18.5089 10.7443 17.8486 11.0464 17.2555Z" fill="white"/>
<path d="M14.8609 17.2534C15.1378 16.74 15.5746 16.331 16.1049 16.0881C16.7201 15.8168 17.388 15.6859 18.0601 15.7049V16.7258C17.2544 16.7258 16.6376 16.928 16.2072 17.3374C15.7768 17.7468 15.5643 18.3635 15.5643 19.1718C15.5643 19.9802 15.7768 20.5366 16.2046 20.9197C16.6324 21.3029 17.2544 21.4971 18.0575 21.4971V22.518C16.8974 22.518 16.0025 22.2381 15.3727 21.6782C14.7428 21.1183 14.4278 20.2829 14.4278 19.1718C14.4062 18.5059 14.5552 17.8454 14.8609 17.2534Z" fill="white"/>
<path d="M19.7262 15.7186V18.1462L21.6526 16.5217L22.7863 15.5664V22.5212H21.6526V17.8917L19.7262 19.5162V22.5212H18.5898V15.7186H19.7262Z" fill="white"/>
<path d="M24.4541 15.7173V18.1449L26.3804 16.5204L27.5089 15.5703V22.5198H26.3752V17.8903L24.4488 19.5148V22.5198H23.3203V15.7173H24.4541Z" fill="white"/>
</g>
</g>
<defs>
<clipPath id="clip0_388_7317">
<rect width="30" height="30" fill="white"/>
</clipPath>
</defs>
</svg>
