<svg width="20" height="20" viewBox="0 0 20 20" fill="none" xmlns="http://www.w3.org/2000/svg">
<path d="M9.99997 18C8.91735 17.0425 7.91385 15.9929 6.99999 14.862C5.62856 13.1637 4 10.6344 4 8.22424C3.99879 5.70702 5.46078 3.43713 7.70375 2.47378C9.94673 1.51043 12.5286 2.0435 14.2445 3.82426C15.3729 4.989 16.005 6.57337 16 8.22424C16 10.6344 14.3714 13.1637 13 14.862C12.0861 15.9929 11.0826 17.0425 9.99997 18ZM9.99997 5.55812C9.08129 5.55812 8.2324 6.06628 7.77306 6.89118C7.31372 7.71608 7.31372 8.7324 7.77306 9.5573C8.2324 10.3822 9.08129 10.8904 9.99997 10.8904C11.4201 10.8904 12.5714 9.69669 12.5714 8.22424C12.5714 6.75178 11.4201 5.55812 9.99997 5.55812Z" fill="#9E9E9E"/>
</svg>
