<svg width="20" height="20" viewBox="0 0 20 20" fill="none" xmlns="http://www.w3.org/2000/svg">
<path d="M16.1228 17C8.65764 17.0106 2.99202 11.2771 3.00001 3.8772C3.00001 3.39395 3.39176 3 3.87501 3H6.18445C6.61807 3 6.98644 3.31861 7.05011 3.74754C7.20272 4.77555 7.50203 5.77635 7.93892 6.71936L8.02884 6.91344C8.15386 7.18329 8.06912 7.50392 7.82709 7.67676C7.11189 8.18752 6.83856 9.21561 7.39573 10.0178C8.09493 11.0245 8.97629 11.9057 9.98274 12.6045C10.7849 13.1616 11.8128 12.8883 12.3236 12.1732C12.4965 11.931 12.8173 11.8462 13.0873 11.9713L13.2805 12.0608C14.2236 12.4977 15.2245 12.797 16.2526 12.9496C16.6815 13.0132 17 13.3816 17 13.8152V16.125C17 16.6082 16.6073 17 16.124 17L16.1228 17Z" fill="#9E9E9E"/>
</svg>
