<svg width="60" height="60" viewBox="0 0 60 60" fill="none" xmlns="http://www.w3.org/2000/svg">
<path fill-rule="evenodd" clip-rule="evenodd" d="M22.5 16.25C22.5 12.2195 25.6005 8.75 30 8.75C34.3995 8.75 37.5 12.2195 37.5 16.25V18.75H22.5V16.25ZM18.75 22.5V28.75H22.5V22.5H37.5V28.75H41.25V22.5H46.25V49.375C46.25 50.4105 45.4105 51.25 44.375 51.25H15.625C14.5895 51.25 13.75 50.4105 13.75 49.375V22.5H18.75ZM18.75 18.75V16.25C18.75 10.2805 23.3996 5 30 5C36.6005 5 41.25 10.2805 41.25 16.25V18.75H48.125H50V20.625V49.375C50 52.4815 47.4815 55 44.375 55H15.625C12.5184 55 10 52.4815 10 49.375V20.625V18.75H11.875H18.75Z" fill="#D1D2D4"/>
</svg>
