<svg width="18" height="16" viewBox="0 0 18 16" fill="none" xmlns="http://www.w3.org/2000/svg">
<path d="M4.21017 1.41789L4.21138 1.41754C5.91524 0.916311 6.91795 1.60682 8.25009 2.52419C8.35705 2.59785 8.46614 2.67297 8.57789 2.74906C8.83241 2.92236 9.167 2.92249 9.42165 2.74938C9.53222 2.67421 9.6402 2.59999 9.74609 2.52721C11.0801 1.61033 12.083 0.920998 13.7826 1.41789C16.5391 2.22374 17.5695 4.92621 16.7036 7.38164C16.1969 8.70338 15.3658 9.90766 14.2681 10.9001C12.6634 12.3149 10.8976 13.5692 9.00056 14.6415C7.10352 13.5692 5.33775 12.3149 3.73302 10.9001C2.63538 9.90766 1.80425 8.70338 1.29753 7.38164C0.430924 4.92426 1.45555 2.22321 4.21017 1.41789Z" fill="white" stroke="#737373" stroke-width="1.5" stroke-linecap="round" stroke-linejoin="round"/>
</svg>
