<svg width="442" height="442" viewBox="0 0 442 442" fill="none" xmlns="http://www.w3.org/2000/svg">
<circle cx="221" cy="221" r="221" fill="#F8F8F8"/>
<path d="M369.668 209.922C369.668 208.949 369.456 208.649 368.452 208.701C363.044 208.987 357.631 209.205 352.221 209.451C346.811 209.697 341.398 209.955 335.988 210.21C328.185 210.579 320.382 210.95 312.581 211.322C306.923 211.589 301.286 211.838 295.64 212.105C287.877 212.472 280.115 212.843 272.354 213.217C266.628 213.486 260.904 213.735 255.178 214.002C247.414 214.368 239.652 214.739 231.891 215.116C227.648 215.32 223.423 215.544 219.189 215.736C215.507 215.904 211.823 216.039 208.14 216.188C202.954 218.458 197.803 220.867 192.289 222.338C184.941 224.311 177.513 225.614 169.894 225.503C161.334 225.375 153.179 223.61 145.706 219.227C145.601 219.179 145.49 219.143 145.376 219.118C134.26 219.664 123.145 220.21 112.031 220.755C102.747 221.205 93.4661 221.564 84.185 222.054C82.4923 222.142 80.762 221.936 79.0977 222.454C79.4913 222.896 79.3169 223.433 79.3169 223.927C79.3263 243.083 79.3263 262.243 79.3169 281.408C79.3169 282.196 79.4041 282.78 80.2599 282.972L83.5602 282.816L108.495 281.645L138.96 280.225L163.896 279.055L194.479 277.621L219.416 276.45L249.881 275.031L279.994 273.612L310.341 272.192C320.379 271.719 330.416 271.246 340.453 270.773C349.785 270.344 359.118 269.933 368.452 269.541C369.435 269.5 369.675 269.198 369.673 268.242C369.64 248.796 369.638 229.356 369.668 209.922ZM133.926 276.54C131.378 276.639 128.827 276.736 126.279 276.871C125.513 276.911 125.598 276.398 125.572 275.949C125.466 273.271 125.374 270.591 125.263 267.906C124.975 260.897 124.662 253.888 124.412 246.88C124.379 245.971 124.098 245.78 123.247 245.832C120.739 245.99 118.228 246.068 115.704 246.153C114.808 246.182 114.388 246.357 114.334 247.464C113.882 257.18 112.577 266.836 110.435 276.322C110.218 277.269 109.886 277.692 108.867 277.713C106.203 277.77 103.542 277.936 100.722 278.063C102.052 272.423 103.099 266.72 103.86 260.975C104.803 253.86 105.425 246.726 105.461 239.547C105.461 238.529 105.718 238.253 106.75 238.21C115.124 237.874 123.486 237.489 131.838 237.053C132.84 237.001 133.047 237.29 133.085 238.253C133.495 249.16 133.959 260.065 134.405 270.972C134.471 272.585 134.487 274.203 134.575 275.816C134.603 276.332 134.433 276.521 133.926 276.54ZM316.178 213.751C317.748 213.69 319.316 213.635 320.881 213.534C321.438 213.496 321.508 213.77 321.572 214.217C321.956 216.904 322.89 217.735 325.58 217.791C326.522 217.849 327.467 217.752 328.378 217.505C330.099 216.966 330.971 216.015 331.025 214.194C331.058 213.172 331.445 212.959 332.355 212.978C333.571 212.99 334.787 212.935 335.997 212.814C336.648 212.755 336.872 212.893 336.895 213.602C337.093 219.485 333.708 223.353 327.864 223.849C327.157 223.909 326.449 223.916 325.931 223.939C324.448 223.939 323.161 223.871 321.9 223.525C317.395 222.286 315.688 218.766 315.398 214.473C315.372 213.836 315.704 213.77 316.188 213.751H316.178ZM177.562 259.573C177.477 262.913 176.895 266.141 175.349 269.136C173.802 272.131 171.301 274.134 168.097 275.123C163.69 276.479 159.026 276.77 154.485 275.97C149.342 275.097 146.044 272.048 144.372 267.192C142.486 261.701 142.272 256.008 142.609 250.274C142.717 248.266 143.073 246.28 143.667 244.36C145.082 239.866 147.988 236.862 152.569 235.608C157.008 234.36 161.676 234.162 166.204 235.031C170.561 235.875 173.644 238.404 175.384 242.513C176.923 246.151 177.444 249.997 177.557 253.914C177.667 255.799 177.668 257.688 177.56 259.573H177.562ZM219.736 265.337C218.97 269.711 215.769 272.526 211.014 272.819C204.708 273.212 198.397 273.467 192.086 273.782C190.717 273.851 189.342 273.895 187.973 274.018C187.246 274.082 187.051 273.832 187.03 273.115C186.832 267.525 186.582 261.938 186.36 256.348C186.091 249.46 185.863 242.572 185.544 235.686C185.495 234.652 185.78 234.503 186.723 234.47C193.781 234.189 200.835 233.834 207.89 233.524C209.423 233.456 210.955 233.474 212.457 233.829C215.413 234.539 217.268 236.327 217.907 239.336C218.408 241.53 218.484 243.8 218.131 246.023C217.589 249.188 215.491 250.79 212.57 251.549C212.117 251.665 211.66 251.762 211.207 251.873C211.181 251.873 211.167 251.932 211.141 251.972C211.884 252.074 212.626 252.058 213.367 252.195C216.667 252.8 218.668 254.749 219.456 257.969C220.061 260.378 220.157 262.888 219.736 265.337ZM258.226 270.716C255.834 270.764 253.442 270.863 251.05 271.014C250.314 271.062 250.107 270.882 250.107 270.151C250.006 266.804 249.848 263.457 249.704 260.112C249.652 258.929 249.579 257.77 249.511 256.457C247.273 257.768 244.839 258.706 242.302 259.234C239.717 259.769 237.054 259.785 234.463 259.284C231.13 258.624 228.883 256.592 227.549 253.482C226.417 250.844 225.92 248.041 225.724 245.226C225.455 241.375 225.385 237.51 225.175 233.654C225.13 232.803 225.394 232.609 226.205 232.594C228.48 232.559 230.76 232.469 233.027 232.299C233.904 232.235 234.157 232.419 234.183 233.335C234.275 236.682 234.463 240.024 234.638 243.369C234.712 244.589 234.962 245.791 235.38 246.939C236.142 249.091 237.587 250.39 239.921 250.664C242.436 250.958 244.871 250.686 247.153 249.612C248.803 248.838 249.206 247.925 249.122 246.111C248.907 241.583 248.747 237.053 248.539 232.526C248.509 231.866 248.603 231.509 249.383 231.492C251.62 231.445 253.862 231.329 256.09 231.239C257.238 230.953 257.7 231.374 257.535 232.566C257.496 233.106 257.496 233.647 257.535 234.186C257.889 236.372 257.771 238.586 257.877 240.786C258.28 249.524 258.584 258.269 258.926 267.012C258.961 267.918 258.992 268.826 259.089 269.725C259.152 270.406 258.99 270.7 258.224 270.716H258.226ZM301.183 268.658C298.791 268.745 296.4 268.873 294.009 269.042C293.267 269.091 293.01 268.914 292.981 268.119C292.804 262.998 292.569 257.881 292.354 252.762C292.25 250.3 292.151 247.838 292.05 245.335C291.605 245.503 291.579 245.903 291.444 246.194C287.694 254.042 283.363 261.569 278.665 268.871C278.273 269.479 277.877 269.789 277.09 269.817C274.733 269.862 272.375 270.011 270.034 270.175C269.343 270.222 269.065 270.097 269.037 269.325C268.827 263.298 268.566 257.276 268.33 251.251C268.078 244.793 267.858 238.333 267.564 231.878C267.524 230.993 267.689 230.652 268.65 230.634C270.925 230.589 273.2 230.449 275.47 230.274C276.312 230.21 276.524 230.492 276.552 231.301C276.788 237.957 277.043 244.611 277.304 251.267C277.331 252.541 277.473 253.809 277.729 255.057C278.608 253.638 279.511 252.24 280.364 250.799C284.254 244.292 287.63 237.498 290.897 230.667C291.048 230.352 291.23 230.052 291.397 229.746C292.286 229.356 293.219 229.543 294.136 229.529C294.782 229.292 295.452 229.344 296.119 229.363C297.298 229.297 298.458 229.254 299.624 229.153C300.176 229.103 300.414 229.24 300.388 229.829C300.355 230.572 300.388 231.315 300.388 232.058C300.624 232.859 300.572 233.685 300.556 234.506C300.578 235.655 300.6 236.804 300.624 237.952C300.872 238.761 300.808 239.592 300.794 240.419C300.822 241.574 300.852 242.727 300.883 243.88C301.228 246.146 301.119 248.438 301.237 250.716C301.541 256.393 301.708 262.056 301.963 267.724C301.996 268.358 301.883 268.632 301.18 268.658H301.183ZM343.736 266.702C341.502 266.735 339.257 266.818 337.032 266.984C336.058 267.057 335.768 266.797 335.735 265.801C335.518 258.988 335.243 252.178 334.976 245.368C334.95 244.71 335.005 244.039 334.741 243.353C333.154 246.428 331.631 249.477 330.026 252.479C327.392 257.401 324.493 262.165 321.492 266.868C321.328 267.173 321.082 267.426 320.781 267.597C320.48 267.768 320.138 267.851 319.792 267.835C317.477 267.89 315.164 267.986 312.852 268.121C312.145 268.162 311.928 268.003 311.909 267.246C311.54 257.284 311.147 247.325 310.73 237.368C310.627 234.809 310.523 232.251 310.358 229.697C310.304 228.893 310.478 228.594 311.336 228.583C313.651 228.55 315.965 228.455 318.276 228.299C319.125 228.24 319.321 228.507 319.349 229.311C319.528 234.35 319.757 239.388 319.964 244.424C320.084 247.282 320.2 250.141 320.528 253.077C321.11 252.176 321.706 251.284 322.27 250.369C326.556 243.355 330.24 236.022 333.734 228.592C334.102 227.809 334.519 227.466 335.384 227.45C337.699 227.402 340.012 227.291 342.324 227.156C343.032 227.114 343.256 227.331 343.281 228.058C343.583 236.442 343.905 244.828 344.248 253.214C344.411 257.347 344.557 261.481 344.762 265.612C344.776 266.442 344.554 266.688 343.736 266.702ZM353.666 227.885C352.209 227.632 352.105 228.457 352.218 229.583C352.339 230.766 352.324 231.949 352.421 233.131C352.471 233.735 352.214 233.841 351.688 233.884C351.162 233.926 351.03 233.706 351.016 233.217C350.976 231.84 350.828 230.463 350.844 229.087C350.844 228.237 350.578 227.998 349.767 228.093C349.359 228.14 348.708 228.45 348.675 227.525C348.642 226.6 349.309 226.908 349.727 226.849C350.384 226.754 351.056 226.752 351.721 226.709V226.681C352.348 226.681 352.978 226.712 353.607 226.681C354.133 226.648 354.163 226.948 354.184 227.338C354.206 227.729 354.064 227.956 353.656 227.885H353.666ZM361.632 233.406C360.974 233.437 360.95 233.068 360.953 232.597C360.953 231.272 360.953 229.948 360.953 228.623L360.608 228.58C360.248 229.905 359.882 231.23 359.536 232.557C359.423 232.99 359.359 233.361 358.76 233.401C358.161 233.441 357.971 233.131 357.817 232.625C357.384 231.289 356.893 229.969 356.426 228.642L356.235 228.628C356.309 230.047 356.37 231.466 356.471 232.869C356.507 233.382 356.41 233.666 355.818 233.711C355.226 233.756 355.193 233.373 355.177 232.975C355.094 231.047 355.033 229.117 354.941 227.192C354.918 226.73 355.08 226.482 355.521 226.539C356.033 226.6 356.7 226.111 357.002 227.012C357.516 228.531 358.103 230.028 358.751 231.781C359.222 230.073 359.677 228.606 359.981 227.107C360.186 226.108 360.863 226.286 361.497 226.26C362.308 226.227 362.054 226.882 362.075 227.279C362.176 229.049 362.212 230.827 362.311 232.59C362.308 233.105 362.23 233.377 361.622 233.406H361.632Z" fill="#FBBC2B"/>
<path d="M145.702 219.236C153.175 223.619 161.329 225.386 169.889 225.512C177.513 225.623 184.941 224.329 192.285 222.347C197.799 220.866 202.938 218.458 208.136 216.197C215.008 213.685 220.805 209.289 226.953 205.491C232.285 202.195 242.929 192.885 243.856 191.752C242.651 192.462 241.604 193.048 240.581 193.675C230.034 200.152 219.046 205.687 207.36 209.831C194.833 214.276 182.103 217.656 168.734 218.072C163.941 218.219 159.151 218.129 154.469 216.98C145.113 214.678 138.085 209.41 134.045 200.464C133.142 198.463 132.618 196.329 131.899 194.264L131.553 195.932C131.563 196.102 131.527 196.272 131.449 196.424C131.6 197.862 131.864 199.286 132.241 200.682C134.339 208.462 138.533 214.744 145.372 219.132C145.485 219.155 145.596 219.19 145.702 219.236Z" fill="#0F0F0F"/>
<path d="M248.078 188.446C247.536 188.961 246.986 189.47 246.246 190.165C247.104 189.929 247.543 189.548 248.007 189.219C253.729 185.155 259.558 181.219 265.131 176.973C269.594 173.576 273.79 169.822 278.066 166.182C280.726 163.916 283.595 161.874 285.973 159.301C294.809 149.74 303.61 140.149 312.376 130.53C317.706 124.649 323.385 119.083 328.119 112.666C332.921 106.158 337.858 99.7503 342.735 93.2973C342.648 93.0087 342.45 92.9519 342.186 93.0347C341.896 93.2949 341.592 93.5433 341.316 93.8177C336.824 98.2837 332.337 102.752 327.853 107.223C313.473 121.548 298.958 135.724 285.103 150.57C273.059 163.488 260.874 176.261 248.078 188.446Z" fill="#0F0F0F"/>
<path d="M234.383 117.339C233.812 118.375 234.01 119.348 234.854 119.941C235.698 120.535 236.46 120.301 237.132 119.572C237.445 119.229 237.808 118.929 238.148 118.612C238.399 118.542 238.63 118.413 238.822 118.236C238.669 118.435 238.52 118.636 238.386 118.851C237.914 119.752 237.978 120.578 238.784 121.25C239.59 121.921 240.279 121.529 240.972 121.013C241.743 120.431 242.537 119.882 243.329 119.319C243.498 119.306 243.663 119.266 243.82 119.201C243.728 119.298 243.64 119.4 243.553 119.506C243.28 119.724 243.009 119.949 242.728 120.159C241.644 120.982 241.403 121.734 241.969 122.633C242.608 123.643 243.421 123.393 244.315 122.995C248.542 121.114 252.778 119.251 257.021 117.406C257.775 117.077 258.421 116.459 259.32 116.504C259.178 116.942 258.733 116.977 258.412 117.16C254.032 119.549 249.644 121.926 245.248 124.291C244.362 124.765 243.808 125.382 244.213 126.463C244.619 127.544 245.338 127.681 246.377 127.409C248.485 126.844 250.621 126.383 252.742 125.879C252.808 125.906 252.876 125.929 252.945 125.945C252.871 125.986 252.809 126.046 252.764 126.118C252.21 126.305 251.646 126.463 251.076 126.591C250.119 126.761 249.6 127.26 249.631 128.247C249.661 129.233 250.284 129.555 251.142 129.734C254.51 130.432 257.87 131.168 261.234 131.892C261.31 131.987 261.399 132.07 261.498 132.14C261.356 132.133 261.214 132.151 261.078 132.195H261.04C261.06 132.221 261.082 132.246 261.104 132.27C260.668 132.336 260.229 132.431 259.833 132.126L251.582 131.653C250.628 132.069 249.631 131.762 248.655 131.823C247.66 132.933 247.759 133.891 248.994 134.555C252.294 136.332 255.623 138.08 258.94 139.84C258.964 139.336 258.52 139.151 258.233 138.893C256.505 137.318 254.758 135.762 252.888 134.082L262.42 132.542C262.448 132.474 262.453 132.398 262.434 132.327V132.303C262.412 132.277 262.387 132.254 262.358 132.235H262.288C262.321 132.235 262.354 132.211 262.389 132.195C262.405 132.179 262.42 132.163 262.434 132.145V132.09C262.442 132.021 262.437 131.951 262.417 131.885L254.454 128.135L264.763 123.059C264.423 122.702 263.945 123.078 263.584 122.823L263.61 122.853C262.891 123.563 261.922 123.584 261.017 123.799C260.734 123.286 260.321 123.341 259.822 123.433C258.81 123.62 257.782 123.733 256.774 123.364L250.929 123.821C251.33 123.485 251.495 123.336 251.67 123.201C254.404 121.088 257.139 118.977 259.874 116.869C260.168 116.632 260.581 116.5 260.581 116.015L260.076 115.986L259.701 115.712C259.316 115.744 258.936 115.823 258.57 115.949C255.321 116.845 252.061 117.708 248.805 118.581L248.57 118.297L251.847 115.298C251.691 114.588 252.393 114.456 252.7 114.08C253.231 113.446 253.813 112.858 254.44 112.32C255.06 111.771 254.609 111.66 254.176 111.504C255.68 110.321 257.106 109.048 258.822 108.173C259.176 108.204 259.044 107.7 259.35 107.684C259.364 107.593 259.348 107.501 259.306 107.42C259.263 107.339 259.196 107.274 259.114 107.234L245.628 114.666L245.524 114.491L251.59 105.839C251.58 105.76 251.58 105.681 251.59 105.602L250.882 106.075C250.809 106.075 250.739 106.075 250.665 106.075L251.175 105.365L250.878 105.349L239.437 113.526C240.616 110.174 241.736 107.059 242.844 103.944L242.165 103.471C241.203 105.162 240.234 106.849 239.281 108.545C237.653 111.475 236.002 114.402 234.383 117.339Z" fill="#0F0F0F"/>
<path d="M251.588 105.603C251.559 105.578 251.525 105.56 251.488 105.549L251.588 105.603Z" fill="#0F0F0F"/>
<path d="M252.057 144.38C251.676 144.22 251.489 143.777 251.058 143.685C250.822 143.337 250.605 142.947 250.101 142.93C249.846 142.4 249.358 142.072 248.979 141.648C248.844 141.591 248.7 141.556 248.554 141.544C248.007 141.225 247.458 141.121 246.935 141.58C246.411 142.039 246.374 142.526 246.463 143.179C246.718 144.804 246.873 146.445 247.102 148.078C247.178 148.6 246.984 148.738 246.506 148.818C245.846 148.929 245.131 148.712 244.309 149.149C245.822 149.892 247.149 150.602 248.524 151.202C249.304 151.543 249.988 150.954 249.938 150.062C249.893 149.099 249.502 148.238 249.047 147.415C248.413 146.275 247.734 145.159 246.998 143.9L253.399 145.748C253.455 145.412 253.248 145.275 253.118 145.078C252.68 144.972 252.27 144.825 252.057 144.38Z" fill="#0F0F0F"/>
<path d="M257.639 139.771C254.524 138.916 251.414 138.049 248.309 137.169C247.59 136.963 246.984 137.004 246.581 137.699C246.178 138.395 246.267 139.024 246.887 139.591C247.507 140.159 248.132 140.774 248.752 141.375C248.823 141.478 248.901 141.574 248.988 141.664C249.367 142.087 249.855 142.416 250.11 142.946C250.614 142.962 250.817 143.353 251.067 143.7C251.498 143.793 251.685 144.235 252.066 144.396C252.281 144.84 252.689 144.987 253.127 145.084L250.15 139.982L259.108 140.348L259.125 139.875C259.06 139.868 258.995 139.875 258.934 139.894L258.962 139.875L258.934 139.859C258.932 139.87 258.932 139.881 258.934 139.892C258.486 140.183 258.057 139.885 257.639 139.771Z" fill="#0F0F0F"/>
<path d="M246.253 155.426C246.791 154.953 246.725 154.39 246.538 153.806C246.041 152.186 245.044 150.845 244.032 149.439C243.899 150.317 243.856 151.205 243.905 152.091C243.933 152.645 243.86 152.919 243.198 152.959C242.264 153.048 241.336 153.191 240.419 153.387C240.305 153.409 240.079 153.208 240.077 153.61C240.077 155.694 239.518 155.907 237.698 156.95C237.656 157.17 237.698 157.347 237.934 157.423C238.419 157.659 238.898 157.915 239.398 158.133C240.067 158.412 240.777 158.606 241.371 158.021C241.965 157.437 241.821 156.706 241.562 156.034C241.286 155.325 240.916 154.658 240.525 153.837C242.003 154.431 243.37 154.963 244.723 155.528C245.268 155.741 245.763 155.852 246.253 155.426Z" fill="#0F0F0F"/>
<path d="M79.3159 281.396C79.3363 262.237 79.3363 243.077 79.3159 223.915C79.3159 223.421 79.4903 222.884 79.0967 222.441C79.0707 222.713 79.0189 222.985 79.0189 223.257C79.0236 242.831 79.0173 262.4 79 281.964C79 283.061 79.4573 283.118 80.2612 282.959C79.4031 282.768 79.3135 282.184 79.3159 281.396Z" fill="#FAB71C"/>
<path d="M254.447 112.334C253.82 112.872 253.239 113.461 252.708 114.094C252.401 114.47 251.699 114.603 251.854 115.312C254.092 113.144 256.329 110.976 258.566 108.807C258.653 108.73 258.722 108.634 258.767 108.527C258.813 108.42 258.834 108.304 258.83 108.188C257.114 109.063 255.687 110.345 254.183 111.518C254.627 111.684 255.067 111.785 254.447 112.334Z" fill="#0F0F0F"/>
<path d="M237.249 110.192L241.985 103.02C242.009 102.978 242.022 102.931 242.022 102.882C242.022 102.834 242.009 102.787 241.985 102.745C241.968 102.731 241.948 102.72 241.927 102.714C241.906 102.708 241.884 102.706 241.862 102.708C241.84 102.71 241.819 102.717 241.799 102.728C241.78 102.739 241.763 102.754 241.749 102.771C240.165 104.979 238.58 107.183 236.992 109.383C237.374 109.555 237.386 109.846 237.249 110.192Z" fill="#0F0F0F"/>
<path d="M259.832 123.448C260.331 123.355 260.744 123.301 261.027 123.814C261.923 123.597 262.892 123.578 263.62 122.868C262.269 122.773 260.949 123.071 259.612 123.149C259.214 123.478 258.747 123.306 258.306 123.327L256.793 123.381C257.793 123.748 258.82 123.634 259.832 123.448Z" fill="#0F0F0F"/>
<path d="M131.899 194.264L131.15 190.77L130.914 190.754C130.969 192.656 131.149 194.553 131.452 196.431L131.555 195.939L131.899 194.264Z" fill="#0F0F0F"/>
<path d="M244.098 100.172H243.829L242.856 101.591C242.587 102.13 242.179 102.611 242.17 103.247C242.162 103.326 242.162 103.405 242.17 103.484L242.849 103.957C243.268 102.696 243.957 101.513 244.098 100.172Z" fill="#0F0F0F"/>
<path d="M251.167 105.377L251.482 105.545C251.52 105.556 251.555 105.576 251.584 105.602C251.574 105.68 251.574 105.76 251.584 105.838C252.146 105.214 252.615 104.511 252.977 103.752L250.879 105.36L251.176 105.377H251.167Z" fill="#0F0F0F"/>
<path d="M315.335 281.957C315.335 282.007 315.335 282.021 315.335 282.023C315.343 282.036 315.348 282.05 315.352 282.064C315.392 282.168 315.434 282.004 315.493 281.997C315.47 281.072 315.447 280.147 315.425 279.223C315.239 280.133 315.376 281.051 315.335 281.957Z" fill="#0F0F0F"/>
<path d="M256.152 282.094L258.635 282.068C257.822 281.833 256.96 281.842 256.152 282.094Z" fill="#0F0F0F"/>
<path d="M172.422 200.171C173.427 200.366 174.46 200.366 175.465 200.171C174.454 200.06 173.433 200.06 172.422 200.171Z" fill="#0F0F0F"/>
<path d="M103.498 303.208C103.618 304.06 103.318 304.512 102.43 304.507C103.373 304.758 103.792 304.464 103.608 303.443C103.563 303.02 103.545 302.595 103.552 302.17C103.441 302.505 103.423 302.864 103.498 303.208Z" fill="#0F0F0F"/>
<path d="M176.66 199.894C177.217 199.714 177.825 199.657 178.273 199.113L176.889 199.305C177.028 199.584 176.79 199.719 176.66 199.894Z" fill="#0F0F0F"/>
<path d="M251.584 131.662C250.611 131.74 249.599 131.21 248.656 131.832C249.632 131.771 250.62 132.078 251.584 131.662Z" fill="#0F0F0F"/>
<path d="M251.121 281.344L248.527 281.384C249.4 281.488 250.262 281.564 251.121 281.344Z" fill="#0F0F0F"/>
<path d="M260.121 107.244L260.082 107.271C260.096 107.271 260.107 107.262 260.121 107.244Z" fill="#0F0F0F"/>
<path d="M259.36 107.698C259.737 107.787 259.94 107.584 260.081 107.272C260.081 107.194 260.081 107.116 260.081 107.035C259.69 106.777 259.393 106.962 259.117 107.246C259.201 107.285 259.27 107.35 259.314 107.431C259.357 107.513 259.374 107.606 259.36 107.698Z" fill="#0F0F0F"/>
<path d="M331.435 281.103C331.452 280.266 331.501 279.426 331.254 278.607C331.511 279.426 331.214 280.285 331.435 281.103Z" fill="#0F0F0F"/>
<path d="M330.101 282.531C330.09 283.369 330.026 284.211 330.285 285.027C330.026 284.208 330.328 283.35 330.101 282.531Z" fill="#0F0F0F"/>
<path d="M241.461 283.002L243.818 282.962C243.022 282.853 242.239 282.78 241.461 283.002Z" fill="#0F0F0F"/>
<path d="M289.517 279.256H287.414C288.109 279.382 288.822 279.382 289.517 279.256Z" fill="#0F0F0F"/>
<path d="M264.765 123.059L265.323 122.822C264.715 122.642 264.145 122.574 263.586 122.846C263.944 123.078 264.423 122.701 264.765 123.059Z" fill="#0F0F0F"/>
<path d="M260.093 116.001L260.597 116.03L261.015 115.772C261.015 115.68 261.015 115.59 261.015 115.5C260.583 115.566 260.105 115.375 259.723 115.737L260.093 116.001Z" fill="#0F0F0F"/>
<path d="M261.908 115.097C261.735 115.059 261.555 115.078 261.394 115.151C261.233 115.223 261.099 115.345 261.012 115.499C261.012 115.589 261.012 115.679 261.012 115.771C261.5 115.807 261.719 115.499 261.908 115.097Z" fill="#4A4A4A"/>
<path d="M244.393 99.2109C244.122 99.5208 243.778 99.71 243.829 100.169H244.098C244.317 99.9229 244.659 99.7195 244.393 99.2109Z" fill="#0F0F0F"/>
<path d="M258.65 280.682H256.785C257.4 280.807 258.035 280.807 258.65 280.682Z" fill="#0F0F0F"/>
<path d="M262.434 132.091V132.328C262.453 132.399 262.449 132.475 262.42 132.543C262.656 132.588 262.974 132.588 263.007 132.366C263.062 131.999 262.675 131.98 262.418 131.893C262.437 131.957 262.442 132.025 262.434 132.091Z" fill="#0F0F0F"/>
<path d="M130.844 189.611C130.639 190.084 130.632 190.435 130.91 190.754L131.146 190.77C131.056 190.418 130.962 190.063 130.844 189.611Z" fill="#0F0F0F"/>
<path d="M330.064 277.596C329.69 278.1 329.918 278.608 330.05 279.117C329.928 278.608 329.852 278.1 330.064 277.596Z" fill="#0F0F0F"/>
<path d="M259.105 140.35C259.311 140.338 259.636 140.548 259.674 140.222C259.679 140.155 259.665 140.087 259.635 140.027C259.605 139.967 259.56 139.916 259.503 139.879C259.447 139.843 259.381 139.823 259.314 139.821C259.247 139.818 259.181 139.834 259.122 139.867L259.105 140.35Z" fill="#737373"/>
<path d="M259.603 123.147C259.16 123.078 258.706 123.139 258.297 123.324C258.738 123.303 259.204 123.475 259.603 123.147Z" fill="#0F0F0F"/>
<path d="M237.698 156.949C237.227 157.247 237.463 157.586 237.644 157.921C237.545 157.685 237.663 157.63 237.88 157.666C237.901 157.583 237.922 157.5 237.946 157.418C237.694 157.337 237.654 157.169 237.698 156.949Z" fill="#0F0F0F"/>
<path d="M260.122 107.244C260.225 107.184 260.314 107.102 260.38 107.002C260.447 106.903 260.49 106.79 260.506 106.672C260.444 106.609 260.359 106.573 260.271 106.572C260.018 106.638 260.176 106.889 260.094 107.045C260.094 107.123 260.094 107.201 260.094 107.282L260.122 107.244Z" fill="#0F0F0F"/>
<path d="M261.11 132.282C261.088 132.258 261.067 132.233 261.047 132.206C261.023 132.178 260.997 132.152 260.974 132.121L259.84 132.138C260.236 132.443 260.674 132.348 261.11 132.282Z" fill="#0F0F0F"/>
<path d="M213.359 252.179C212.619 252.042 211.876 252.058 211.134 251.956C211.16 251.916 211.174 251.864 211.2 251.857C211.653 251.746 212.11 251.649 212.562 251.533C215.483 250.774 217.581 249.167 218.124 246.007C218.476 243.784 218.4 241.514 217.9 239.32C217.261 236.311 215.406 234.511 212.449 233.813C210.945 233.458 209.415 233.44 207.883 233.508C200.827 233.827 193.774 234.182 186.716 234.454C185.773 234.492 185.485 234.636 185.537 235.67C185.855 242.556 186.084 249.444 186.353 256.332C186.574 261.922 186.824 267.509 187.022 273.099C187.048 273.809 187.244 274.066 187.965 274.002C189.335 273.887 190.709 273.842 192.079 273.766C198.39 273.451 204.7 273.196 211.007 272.803C215.766 272.51 218.968 269.695 219.729 265.321C220.149 262.867 220.051 260.351 219.441 257.936C218.661 254.733 216.65 252.784 213.359 252.179ZM195.021 248.394C195.085 247.417 195.035 246.431 195.035 245.449H194.799C194.799 244.427 194.832 243.403 194.785 242.374C194.759 241.787 194.894 241.544 195.535 241.52C199.057 241.39 202.576 241.172 206.101 241.085C207.909 241.04 208.736 241.889 208.946 243.687C208.986 244.037 209.017 244.396 209.043 244.744C209.255 247.616 208.173 248.827 205.332 248.95C202.239 249.087 199.149 249.222 196.061 249.423C195.221 249.484 194.967 249.22 195.021 248.408V248.394ZM210.391 262.838C210.047 264.413 209.248 265.229 207.671 265.506C205.651 265.858 203.593 265.6 201.956 265.846C199.884 265.953 198.199 266.01 196.518 266.142C195.86 266.192 195.742 265.946 195.721 265.357C195.632 262.641 195.511 259.928 195.36 257.217C195.327 256.6 195.568 256.508 196.089 256.489C199.498 256.349 202.904 256.146 206.315 256.037C208.673 255.963 209.974 257.115 210.339 259.438C210.519 260.574 210.644 261.7 210.391 262.838Z" fill="#0F0F0F"/>
<path d="M344.222 253.217C343.898 244.832 343.579 236.448 343.265 228.065C343.239 227.339 343.029 227.119 342.308 227.164C339.995 227.299 337.682 227.4 335.367 227.457C334.497 227.474 334.08 227.817 333.717 228.6C330.223 236.03 326.539 243.362 322.253 250.376C321.694 251.291 321.093 252.183 320.511 253.085C320.179 250.149 320.068 247.289 319.947 244.432C319.74 239.396 319.511 234.357 319.332 229.319C319.304 228.514 319.108 228.247 318.26 228.306C315.949 228.464 313.636 228.559 311.319 228.59C310.461 228.59 310.287 228.9 310.341 229.704C310.506 232.259 310.61 234.816 310.713 237.375C311.119 247.334 311.512 257.293 311.892 267.254C311.92 268.011 312.147 268.169 312.835 268.129C315.145 267.996 317.459 267.901 319.775 267.843C320.121 267.858 320.463 267.776 320.764 267.605C321.065 267.433 321.311 267.181 321.475 266.875C324.476 262.173 327.369 257.413 330.009 252.486C331.617 249.484 333.14 246.435 334.724 243.36C334.99 244.046 334.936 244.718 334.96 245.375C335.226 252.186 335.502 258.996 335.719 265.808C335.752 266.802 336.042 267.062 337.015 266.991C339.245 266.825 341.494 266.755 343.72 266.71C344.547 266.695 344.769 266.449 344.729 265.621C344.531 261.484 344.384 257.349 344.222 253.217Z" fill="#0F0F0F"/>
<path d="M301.244 250.714C301.122 248.436 301.244 246.144 300.891 243.878V245.96C300.603 246.054 300.624 245.898 300.622 245.825C300.535 242.683 300.549 239.535 300.339 236.403C300.205 234.4 300.127 232.403 300.148 230.402C300.148 229.591 299.712 229.517 299.094 229.543C296.674 229.644 294.252 229.739 291.829 229.827C291.683 229.815 291.539 229.786 291.4 229.74C291.232 230.045 291.051 230.345 290.9 230.66C287.623 237.498 284.257 244.292 280.369 250.809C279.516 252.24 278.613 253.647 277.734 255.067C277.475 253.809 277.331 252.53 277.305 251.246C277.043 244.59 276.779 237.936 276.553 231.28C276.525 230.471 276.317 230.189 275.471 230.253C273.201 230.428 270.926 230.567 268.651 230.612C267.689 230.631 267.524 230.972 267.564 231.857C267.847 238.312 268.078 244.772 268.33 251.23C268.566 257.255 268.828 263.277 269.037 269.304C269.066 270.075 269.344 270.201 270.035 270.153C272.392 269.99 274.738 269.841 277.09 269.796C277.878 269.78 278.269 269.47 278.665 268.85C283.363 261.538 287.694 254.021 291.445 246.172C291.584 245.881 291.605 245.482 292.05 245.314C292.152 247.816 292.251 250.281 292.355 252.741C292.569 257.86 292.805 262.977 292.982 268.098C293.01 268.893 293.267 269.07 294.009 269.02C296.397 268.855 298.788 268.727 301.183 268.637C301.89 268.611 301.999 268.337 301.97 267.691C301.718 262.054 301.541 256.379 301.244 250.714Z" fill="#0F0F0F"/>
<path d="M177.558 253.921C177.444 250.004 176.923 246.158 175.384 242.52C173.644 238.411 170.561 235.882 166.204 235.038C161.676 234.169 157.008 234.367 152.569 235.615C147.988 236.866 145.084 239.873 143.667 244.367C143.073 246.287 142.717 248.273 142.609 250.281C142.272 256.015 142.484 261.708 144.372 267.198C146.044 272.055 149.342 275.104 154.486 275.977C159.026 276.776 163.69 276.486 168.097 275.13C171.301 274.141 173.786 272.171 175.349 269.143C176.912 266.115 177.47 262.919 177.562 259.579C177.237 257.707 177.236 255.793 177.558 253.921ZM167.972 263.286C167.411 266.068 165.827 267.78 163.022 268.23C161.237 268.514 159.455 268.66 157.635 268.398C155.332 268.062 153.877 266.815 153.085 264.663C152.328 262.607 152.116 260.459 151.93 258.302C151.869 257.592 151.963 256.883 151.727 256.197C151.697 256.582 151.668 256.968 151.638 257.353H151.527V249.474C151.829 249.744 151.6 250.117 151.713 250.42C151.855 249.528 151.968 248.634 152.14 247.75C152.774 244.471 154.262 243.007 157.522 242.612C159.194 242.367 160.889 242.335 162.569 242.517C164.726 242.801 166.197 243.875 166.999 245.883C167.942 248.22 168.142 250.695 168.283 253.169C168.47 256.542 168.649 259.925 167.972 263.286Z" fill="#0F0F0F"/>
<path d="M134.401 270.965C133.956 260.058 133.491 249.153 133.081 238.246C133.043 237.274 132.845 236.995 131.834 237.047C123.483 237.479 115.129 237.869 106.775 238.218C105.742 238.26 105.492 238.537 105.485 239.554C105.45 246.734 104.818 253.868 103.885 260.983C103.126 266.728 102.081 272.431 100.754 278.071C103.583 277.943 106.235 277.778 108.899 277.721C109.917 277.7 110.25 277.281 110.466 276.33C112.609 266.844 113.913 257.187 114.366 247.472C114.42 246.365 114.837 246.19 115.735 246.161C118.248 246.085 120.759 245.998 123.279 245.839C124.13 245.787 124.411 245.979 124.444 246.887C124.693 253.896 125.007 260.905 125.295 267.914C125.405 270.589 125.497 273.269 125.603 275.956C125.622 276.411 125.537 276.919 126.311 276.879C128.859 276.744 131.41 276.642 133.958 276.548C134.456 276.529 134.625 276.34 134.597 275.817C134.491 274.192 134.474 272.579 134.401 270.965Z" fill="#0F0F0F"/>
<path d="M258.918 267.012C258.574 258.26 258.272 249.524 257.869 240.786C257.768 238.586 257.869 236.372 257.528 234.186V236.296H257.247C257.247 235.173 257.167 234.04 257.271 232.926C257.365 231.937 257.054 231.39 256.08 231.234C253.845 231.324 251.601 231.44 249.373 231.487C248.593 231.504 248.499 231.861 248.529 232.521C248.737 237.049 248.897 241.579 249.112 246.106C249.196 247.92 248.791 248.833 247.143 249.607C244.852 250.681 242.428 250.953 239.911 250.66C237.577 250.385 236.139 249.087 235.37 246.934C234.952 245.786 234.702 244.584 234.628 243.364C234.453 240.02 234.265 236.677 234.173 233.33C234.147 232.415 233.894 232.23 233.017 232.294C230.75 232.464 228.47 232.554 226.195 232.59C225.384 232.604 225.12 232.798 225.165 233.65C225.375 237.505 225.445 241.37 225.714 245.221C225.91 248.06 226.407 250.839 227.539 253.477C228.873 256.587 231.12 258.619 234.453 259.279C237.044 259.781 239.707 259.764 242.292 259.23C244.829 258.701 247.263 257.762 249.501 256.45C249.569 257.763 249.642 258.932 249.694 260.105C249.838 263.45 249.996 266.797 250.097 270.144C250.118 270.875 250.314 271.055 251.04 271.007C253.429 270.85 255.821 270.75 258.216 270.709C258.982 270.693 259.145 270.409 259.072 269.718C258.984 268.826 258.954 267.918 258.918 267.012Z" fill="#0F0F0F"/>
<path d="M321.922 223.53C323.183 223.875 324.47 223.946 325.953 223.944C326.474 223.92 327.181 223.913 327.886 223.854C333.73 223.357 337.116 219.49 336.918 213.607C336.894 212.897 336.682 212.76 336.019 212.819C334.809 212.94 333.593 212.994 332.377 212.982C331.467 212.963 331.081 213.176 331.048 214.198C330.991 216.015 330.121 216.966 328.4 217.51C327.489 217.756 326.544 217.853 325.602 217.796C322.903 217.739 321.969 216.909 321.594 214.222C321.531 213.765 321.46 213.5 320.904 213.538C319.338 213.64 317.771 213.694 316.201 213.756C315.729 213.775 315.385 213.841 315.43 214.482C315.71 218.77 317.417 222.29 321.922 223.53Z" fill="#0F0F0F"/>
<path d="M362.05 227.275C362.029 226.877 362.286 226.222 361.472 226.255C360.838 226.281 360.162 226.104 359.956 227.102C359.652 228.602 359.186 230.068 358.726 231.776C358.078 230.023 357.491 228.526 356.977 227.007C356.673 226.111 356.008 226.6 355.496 226.534C355.055 226.48 354.893 226.726 354.916 227.187C355.013 229.113 355.074 231.043 355.152 232.971C355.169 233.368 355.176 233.754 355.793 233.706C356.411 233.659 356.482 233.378 356.446 232.864C356.35 231.445 356.288 230.037 356.21 228.623L356.401 228.637C356.873 229.964 357.359 231.284 357.792 232.621C357.955 233.127 358.118 233.439 358.735 233.396C359.353 233.354 359.398 232.985 359.511 232.552C359.857 231.225 360.218 229.9 360.583 228.576L360.928 228.618C360.928 229.943 360.928 231.268 360.928 232.592C360.928 233.065 360.949 233.432 361.607 233.401C362.215 233.373 362.293 233.101 362.264 232.58C362.187 230.816 362.151 229.044 362.05 227.275Z" fill="#0F0F0F"/>
<path d="M353.597 226.659C352.972 226.699 352.343 226.659 351.711 226.659V226.687C351.046 226.73 350.374 226.732 349.716 226.827C349.299 226.886 348.634 226.59 348.665 227.503C348.696 228.416 349.349 228.118 349.757 228.071C350.568 227.976 350.843 228.215 350.834 229.065C350.817 230.441 350.966 231.818 351.006 233.195C351.02 233.684 351.143 233.89 351.678 233.862C352.213 233.833 352.461 233.713 352.411 233.11C352.314 231.927 352.329 230.744 352.208 229.561C352.095 228.435 352.208 227.61 353.656 227.863C354.064 227.934 354.193 227.683 354.172 227.295C354.151 226.907 354.122 226.626 353.597 226.659Z" fill="#0F0F0F"/>
<path d="M299.092 229.543C299.71 229.517 300.153 229.59 300.146 230.402C300.125 232.403 300.203 234.399 300.337 236.403C300.547 239.535 300.533 242.683 300.62 245.825C300.62 245.898 300.601 246.061 300.889 245.959V243.878C300.859 242.723 300.829 241.57 300.799 240.417C300.405 239.618 300.681 238.761 300.629 237.95C300.606 236.8 300.583 235.651 300.561 234.503C300.172 233.709 300.441 232.869 300.394 232.053C300.394 231.31 300.356 230.567 300.394 229.825C300.419 229.236 300.181 229.098 299.63 229.148C298.451 229.25 297.294 229.292 296.124 229.359C295.49 229.728 294.804 229.484 294.142 229.524C293.225 229.538 292.291 229.351 291.402 229.742C291.541 229.788 291.685 229.817 291.831 229.829C294.25 229.738 296.67 229.642 299.092 229.543Z" fill="#0F0F0F"/>
<path d="M257.27 232.93C257.166 234.044 257.247 235.177 257.247 236.301H257.527V234.191C257.488 233.652 257.488 233.11 257.527 232.571C257.692 231.388 257.23 230.957 256.082 231.244C257.053 231.395 257.364 231.941 257.27 232.93Z" fill="#0F0F0F"/>
<path d="M177.562 259.573C177.671 257.691 177.671 255.804 177.562 253.922C177.24 255.792 177.24 257.703 177.562 259.573Z" fill="#0F0F0F"/>
<path d="M300.562 234.503C300.579 233.682 300.628 232.847 300.395 232.055C300.442 232.868 300.173 233.708 300.562 234.503Z" fill="#0F0F0F"/>
<path d="M300.802 240.416C300.816 239.588 300.88 238.761 300.632 237.949C300.684 238.772 300.408 239.617 300.802 240.416Z" fill="#0F0F0F"/>
<path d="M296.119 229.356C295.452 229.337 294.783 229.287 294.137 229.521C294.802 229.483 295.488 229.72 296.119 229.356Z" fill="#0F0F0F"/>
<path d="M166.694 157.244C167.166 157.43 167.718 157.717 168.109 157.402C168.444 157.118 168.076 156.6 167.97 156.193C167.548 154.597 167.548 154.597 169.09 153.828C170.405 153.177 170.839 151.559 170.063 150.19C169.2 148.664 169.545 147.214 171.067 146.426C172.729 145.568 174.573 145.218 176.28 146.027C179.556 147.576 182.73 149.338 186.051 151.077L185.059 151.448C185.893 151.784 184.927 151.758 184.929 151.99C184.929 153.352 184.773 154.717 185.04 156.07C185.066 156.198 185.252 156.293 185.365 156.401C185.973 156.262 186.584 156.127 187.19 155.98C191.933 154.826 196.744 153.878 201.231 151.874C209.156 148.326 215.439 142.675 220.653 135.862C223.508 132.144 225.866 128.032 228.404 124.073C231.37 119.458 234.298 114.821 237.247 110.192C237.384 109.847 237.372 109.551 236.978 109.383C231.858 116.425 226.686 123.429 221.639 130.526C218.442 135.02 214.585 138.805 210.201 142.187C210.073 141.844 209.965 141.591 209.887 141.331C209.13 138.944 208.602 136.451 207.577 134.19C204.477 127.356 199.743 121.823 193.623 117.506C193.166 117.223 192.83 116.78 192.68 116.262C191.737 112.886 189.705 110.197 187.258 107.768C188.201 110.566 189.929 113.064 190.594 115.983C189.314 116.172 188.215 115.562 186.85 115.794C188.112 116.281 189.168 116.702 190.236 117.095C190.476 117.161 190.69 117.302 190.845 117.498C191.001 117.694 191.09 117.935 191.101 118.185C191.247 119.47 191.492 120.74 191.697 122.015L191.789 121.556H191.888V128.179C191.9 128.21 191.9 128.245 191.888 128.276V128.986C191.631 128.804 191.806 128.489 191.702 128.25C191.478 129.762 191.289 131.278 191.023 132.782C190 138.542 187.958 143.988 185.893 149.558C184.63 148.375 183.477 147.259 182.298 146.178C180.735 144.742 179.083 143.415 177.157 142.495C173.62 140.804 170.294 141.412 167.255 143.689C165.532 144.981 164.427 148.482 165.122 150.176C165.241 150.426 165.295 150.704 165.277 150.981C165.259 151.259 165.171 151.527 165.021 151.76C163.785 154.074 164.519 156.371 166.694 157.244ZM189.924 149.755C191.105 145.53 192.29 141.306 193.482 137.083C194.007 135.219 194.147 133.298 194.279 131.38C193.965 129.109 193.965 126.807 194.279 124.536C194.222 122.727 193.835 120.962 193.51 119.013C196.141 120.806 198.199 122.966 200.068 125.331C203.986 130.282 206.311 135.95 207.777 142.053C208.088 143.351 207.824 143.921 206.754 144.617C201.968 147.737 196.662 149.348 191.108 150.294L189.948 150.5C189.696 150.265 189.865 150.005 189.931 149.755H189.924Z" fill="#0F0F0F"/>
<path d="M237.653 157.922C237.847 160.779 238.148 161.602 234.688 161.903C234.572 161.92 234.458 161.95 234.348 161.99C233.799 162.17 233.316 162.463 233.212 163.069C232.898 164.893 231.691 166.12 230.484 167.367C228.683 169.226 226.682 170.915 225.388 173.212C224.546 174.714 223.238 175.556 221.555 175.814C219.475 176.126 217.837 177.188 216.477 178.747C215.647 179.693 214.371 179.897 213.372 180.566C213.282 180.612 213.178 180.62 213.082 180.589C212.986 180.558 212.907 180.49 212.86 180.401C212.094 179.324 210.899 179.218 209.796 179.258C207.658 179.341 206.024 178.47 204.583 177.006C203.807 176.163 202.813 175.552 201.712 175.239C200.588 174.951 199.388 175.35 199.18 176.36C198.709 178.598 197.514 180.661 197.634 183.041C197.092 182.951 196.604 182.501 196.045 182.769C195.486 183.036 195.628 183.729 195.314 184.446C194.225 179.395 191.952 175.088 189.703 170.764C189.857 172.304 190.076 173.818 190.364 175.317C190.809 177.617 190.882 180.048 192.292 182.045C194.979 185.853 197.386 189.863 200.284 193.52C201.856 195.507 203.549 197.399 205.277 199.433C204.477 199.315 203.82 198.802 203.216 199.164C202.061 199.857 201.257 199.268 200.387 198.624C199.517 197.981 198.607 197.337 197.686 196.746C196.978 196.294 196.186 196.015 195.328 196.228C194.437 196.45 193.827 196.214 193.379 195.384C193.049 194.769 192.436 194.154 191.771 194.567C190.498 195.362 190.052 194.423 189.465 193.699C186.983 190.624 185.083 187.206 183.27 183.722C183.093 183.384 183.034 182.934 182.367 182.627C183.652 185.839 184.006 189.139 185.986 191.852C186.889 193.082 187.636 194.43 188.466 195.71C188.72 196.1 188.992 196.633 189.369 196.76C190.939 197.295 192.304 198.473 193.817 198.787C195.321 199.064 196.728 199.723 197.905 200.701C198.739 201.394 199.758 201.867 200.701 202.423C201.408 202.842 202.202 203.015 202.962 202.742C203.537 202.537 203.905 202.7 204.36 202.979C205.734 203.807 207.12 204.635 208.74 204.886C209.683 205.035 210.472 204.763 210.96 203.916C211.448 203.069 211.015 202.466 210.442 201.829C207.016 198.03 203.608 194.214 200.22 190.381C198.52 188.448 197.106 186.331 196.535 183.689C197.344 183.639 198.053 183.973 198.85 183.771C198.143 182.589 198.487 181.517 199.086 180.495C199.56 179.728 199.917 178.894 200.144 178.021C200.404 176.916 200.757 176.77 201.795 177.243C202.832 177.716 203.624 178.603 204.36 179.462C205.623 180.935 207.174 181.685 209.098 181.621C209.467 181.599 209.835 181.667 210.172 181.818C210.51 181.969 210.806 182.199 211.036 182.489C212.052 183.644 213.318 183.774 214.671 183.166C216.347 182.411 218.028 181.666 219.386 180.339C220.149 179.602 221.101 179.091 222.137 178.863C224.105 178.416 225.839 177.256 227.007 175.606C229.233 172.512 231.524 169.47 233.801 166.416C234.186 165.903 234.558 165.349 234.596 164.734C234.657 163.76 235.147 163.481 236.027 163.27C238.46 162.686 239.247 161.07 238.358 158.733C238.219 158.369 238.038 158.023 237.887 157.664C237.653 157.631 237.545 157.676 237.653 157.922Z" fill="#0F0F0F"/>
<path d="M147.383 179.682C148.484 179.428 148.543 179.417 149.21 180.261C150.054 181.366 151.296 182.094 152.669 182.288C153.635 182.437 154.602 182.589 155.571 182.726C157.518 183.003 159.225 183.656 160.05 185.643C160.651 187.062 161.676 188.219 162.542 189.472C163.202 190.418 163.129 190.951 162.16 191.582C161.874 191.769 161.57 191.923 161.049 192.219C162.12 192.455 162.973 192.595 163.746 192.131C164.239 191.835 164.413 192.032 164.689 192.368C165.272 193.115 165.632 193.983 166.104 194.799C167.546 197.368 169.347 199.53 172.422 200.162C173.433 200.051 174.454 200.051 175.465 200.162L176.66 199.887C176.79 199.712 177.028 199.577 176.896 199.298C176.233 199.298 175.573 199.279 174.911 199.277C170.793 199.261 167.997 194.468 167.667 191.45C167.355 190.617 167.355 189.699 167.667 188.867C167.997 188.33 166.867 187.521 168.058 187.109C169.833 186.494 171.479 185.579 173.131 184.694C173.603 184.446 173.954 184.195 174.192 185.016C174.369 185.621 175.031 185.78 175.663 185.775C177.122 185.745 178.53 185.233 179.671 184.32C181.321 183.069 182.5 181.373 183.714 179.738C183.86 179.542 184.152 179.343 183.869 179.012C183.669 179.123 183.464 179.23 183.266 179.35C180.689 180.912 178.117 182.482 175.536 184.034C175.326 184.159 175.126 184.453 174.81 184.235C174.534 184.043 174.553 183.824 174.656 183.525C174.92 182.733 174.553 181.99 174.326 181.266C174.138 180.659 174.291 180.427 174.814 180.105C177.495 178.468 179.458 173.401 178.567 170.504L176.38 173.773C175.816 172.668 175.319 171.696 174.824 170.721C174.729 170.534 174.704 170.194 174.378 170.449C174.3 170.511 174.352 170.74 174.343 170.894C174.647 171.808 174.647 172.797 174.343 173.711C174.407 174.184 174.456 174.643 174.534 175.104C174.725 176.23 173.482 178.932 172.45 179.445C170.995 180.169 169.508 180.822 168.025 181.508C167.789 180.864 167.655 180.237 167.348 179.708C166.479 178.203 166.504 177.903 167.761 176.659C169.203 175.268 170.571 173.802 171.86 172.268C173.143 170.707 173.897 168.997 173.871 166.896C173.871 164.732 173.98 162.568 174.199 160.415C174.355 158.414 174.056 156.403 173.324 154.534C173.122 153.988 172.912 153.624 172.318 154.187C172.004 154.483 171.654 154.738 171.276 154.946C170.819 155.199 170.83 155.516 171.04 155.892C171.653 156.994 171.747 158.189 171.719 159.424C171.691 161.115 171.731 162.806 171.743 164.498C172.129 165.889 171.912 167.296 171.868 168.701C171.868 168.713 171.806 168.737 171.773 168.734C171.736 168.725 171.7 168.71 171.667 168.689C171.099 170.018 170.301 171.234 169.31 172.282C167.577 173.987 166.251 176.063 165.429 178.355C164.908 179.883 163.881 179.876 162.836 180.247C162.129 180.498 161.693 180.327 161.33 179.641C160.884 178.716 160.163 177.953 159.267 177.456C158.419 177.016 157.617 176.912 157.131 177.974L157.577 178.447C158.324 177.841 158.65 178.534 158.923 178.977C159.472 179.864 159.915 180.817 160.403 181.742C160.469 181.78 160.564 181.801 160.594 181.858C160.83 182.272 161.507 182.106 161.594 182.664C161.594 182.726 161.434 182.901 161.394 182.877C160.948 182.719 160.686 182.347 160.399 181.995C159.267 181.188 157.931 180.923 156.627 180.576L154.988 180.621C152.883 180.682 150.745 180.947 149.069 179.154C148.623 178.681 147.89 178.792 147.292 179.029C147.243 179.041 147.198 179.063 147.159 179.095C147.12 179.127 147.089 179.167 147.068 179.212C147.046 179.257 147.035 179.307 147.035 179.357C147.035 179.407 147.046 179.457 147.068 179.502C147.129 179.622 147.178 179.729 147.383 179.682ZM165.882 181.541C166.354 181.304 166.627 181.205 166.879 181.91C167.228 182.88 167.987 183.015 169.119 182.527C170.432 181.96 171.417 180.926 172.608 180.039C172.662 180.367 172.781 180.681 172.959 180.962C173.137 181.243 173.369 181.485 173.643 181.673C171.285 182.705 169.069 183.646 166.879 184.651C166.153 184.985 165.84 184.957 165.762 184.062C165.681 183.292 165.396 182.557 164.937 181.934C165.281 181.787 165.592 181.685 165.882 181.541ZM162.235 183.507C162.601 183.18 163.008 182.977 163.506 183.121C164.067 183.284 163.859 183.722 163.824 184.091C163.763 184.774 163.699 185.46 163.621 186.303C163.162 185.593 162.761 185.004 162.388 184.394C162.228 184.131 161.808 183.887 162.235 183.507Z" fill="#0F0F0F"/>
<path d="M149.767 190.454C149.073 190.527 148.352 190.418 147.697 190.752C147.117 191.047 146.754 191.52 146.841 192.154C146.926 192.736 146.822 193.512 147.442 193.81C148.817 194.489 150.073 193.619 150.068 192.067C150.068 191.714 150.049 191.357 150.04 191.01C152.282 193.891 154.437 196.855 157.584 198.905C155.717 200.185 155.509 201.299 156.834 202.69C157.184 203.001 157.554 203.289 157.942 203.551C158.414 203.927 158.704 203.866 159.003 203.303C159.544 202.364 159.781 201.279 159.68 200.199C161.367 200.94 163.015 201.564 164.797 201.633C166.452 201.697 168.04 202.306 169.314 203.367C170.455 204.28 171.394 205.392 172.32 206.515C173.246 207.639 173.97 208.852 175.198 210.002C175.198 208.173 175.135 206.572 175.215 204.975C175.297 203.253 176.691 202.212 177.711 200.758C176.412 200.845 175.283 200.821 174.321 201.529C173.041 202.475 172.841 203.894 172.766 205.638C172.294 204.895 172.009 204.4 171.688 203.925C170.248 201.796 168.572 199.837 165.922 199.409C162.897 198.924 160.455 197.427 158.076 195.665C153.63 192.374 149.693 188.684 147.852 183.237C147.662 182.808 147.43 182.398 147.162 182.014L146.926 182.274C147.244 185.224 148.371 187.885 149.767 190.454Z" fill="#0F0F0F"/>
<path d="M191.882 128.963V121.555H191.783L191.691 122.014C191.691 124.086 191.691 126.157 191.691 128.228C191.8 128.478 191.625 128.781 191.882 128.963Z" fill="#0F0F0F"/>
<path d="M185.04 156.077C184.774 154.724 184.941 153.359 184.93 151.997C184.93 151.76 185.894 151.791 185.059 151.455C184.776 151.455 184.498 151.434 184.512 151.855C184.564 153.274 184.616 154.694 184.644 156.101C184.658 156.794 185.069 156.442 185.366 156.409C185.252 156.3 185.066 156.205 185.04 156.077Z" fill="#0F0F0F"/>
<path d="M171.884 168.711C171.929 167.306 172.146 165.899 171.759 164.508C171.732 165.903 171.707 167.301 171.684 168.699C171.716 168.72 171.752 168.736 171.79 168.744C171.813 168.747 171.884 168.723 171.884 168.711Z" fill="#0F0F0F"/>
<path d="M156.816 178.927C156.92 179.288 156.673 179.707 156.996 180.095L157.573 178.465L157.128 177.992L156.816 178.927Z" fill="#0F0F0F"/>
<path d="M174.341 170.895C174.241 171.831 174.241 172.775 174.341 173.712C174.645 172.797 174.645 171.809 174.341 170.895Z" fill="#0F0F0F"/>
<path d="M167.659 191.456C167.774 190.599 167.774 189.73 167.659 188.873C167.348 189.706 167.348 190.623 167.659 191.456Z" fill="#0F0F0F"/>
<path d="M147.167 182.014C147.064 181.648 146.842 181.328 146.535 181.105C146.557 181.526 146.698 181.931 146.941 182.274L147.167 182.014Z" fill="#363636"/>
<path d="M194.278 124.535C193.965 126.805 193.965 129.108 194.278 131.378C194.44 129.1 194.44 126.813 194.278 124.535Z" fill="#0F0F0F"/>
<path d="M251.593 105.606L251.489 105.549L251.173 105.381L250.664 106.09C250.737 106.09 250.808 106.09 250.881 106.09L251.588 105.617L251.593 105.606Z" fill="#0F0F0F"/>
<path d="M133.044 287.001C132.125 287.19 131.437 287.737 130.769 288.463C130.916 285.449 131.627 284.43 134.35 284.089C135.121 283.992 135.866 283.72 136.632 283.562C137.728 283.339 138.193 282.776 137.695 281.605C136.368 282.315 134.902 282.521 133.452 282.765C131.437 283.103 130.138 284.203 129.716 286.284C129.098 289.383 129.139 292.577 129.836 295.659C130.1 296.87 130.708 297.944 131.884 298.54C135.088 300.16 138.631 298.164 138.921 294.582C138.766 294.211 138.685 293.812 138.685 293.409C138.685 293.006 138.766 292.607 138.921 292.236C138.841 288.07 136.771 286.235 133.044 287.001ZM137.372 294.263C137.332 297.338 135.487 297.617 133.294 297.388C132.038 297.258 131.512 296.217 131.208 295.11C130.817 293.691 130.85 292.217 130.998 290.774C131.17 289.118 132.113 288.442 134.159 288.323C135.824 288.229 136.644 288.834 137.092 290.396C137.347 291.283 137.288 292.189 137.372 292.886C137.372 293.478 137.377 293.87 137.372 294.263Z" fill="#0F0F0F"/>
<path d="M315.921 288.682L315.72 287.906C315.68 288.053 315.643 288.2 315.605 288.346C315.605 288.22 315.598 288.095 315.584 287.97C315.578 287.932 315.578 287.893 315.584 287.854C315.496 286.792 315.284 285.725 315.657 284.675C315.687 283.781 315.72 282.887 315.489 282.009C315.43 282.009 315.388 282.18 315.348 282.076C315.344 282.061 315.339 282.048 315.331 282.035C315.331 282.035 315.331 282.019 315.331 281.969C315.372 281.058 315.235 280.145 315.409 279.237C315.603 278.478 315.364 278.189 314.539 278.255C312.889 278.388 311.251 278.492 309.605 278.492C308.816 278.492 308.62 278.752 308.629 279.5C308.665 282.303 308.193 285.051 307.668 287.795C307.495 288.685 307.269 289.38 306.145 289.165C305.579 289.056 305.508 289.378 305.584 289.855C305.741 290.903 305.881 291.954 306.006 293.009C306.046 293.373 306.109 293.612 306.552 293.565C306.944 293.522 307.238 293.456 307.17 292.942C307.106 292.469 307.137 291.996 307.057 291.523C306.93 290.795 307.116 290.468 307.929 290.449C309.928 290.4 311.923 290.265 313.919 290.161C316.307 290.035 316.305 290.035 316.576 292.417C316.609 292.696 316.47 293.087 317.012 293.047C317.411 293.018 317.67 292.95 317.672 292.453C317.672 291.431 317.731 290.411 317.767 289.39C317.368 288.576 316.437 289.191 315.921 288.682ZM314.294 288.959C313.184 289.231 311.161 289.212 310.272 288.959H308.884C309.273 286.754 309.711 284.628 309.9 282.466C309.908 282.386 309.924 282.306 309.947 282.229C310.166 281.482 309.676 280.271 310.268 280.032C311.267 279.627 312.493 279.779 313.622 279.701C314.141 279.665 314.03 280.06 314.042 280.349C314.157 282.937 314.278 285.524 314.377 288.112C314.417 289.214 313.398 288.491 313.016 288.874L314.294 288.959Z" fill="#0F0F0F"/>
<path d="M107.365 287.77C107.119 287.917 106.837 287.995 106.55 287.995C106.263 287.995 105.981 287.917 105.734 287.77C104.32 287.895 102.943 288.07 101.75 288.924C102.071 289.756 102.071 290.678 101.75 291.509C101.907 295.767 102.064 300.025 102.221 304.283C102.221 304.361 102.351 304.437 102.42 304.519C103.308 304.519 103.598 304.072 103.487 303.221C103.416 302.875 103.438 302.516 103.551 302.182V299.55C103.841 299.675 104.081 299.786 104.329 299.885C107.292 301.068 110.517 299.665 111.095 296.877C111.501 294.82 111.42 292.696 110.859 290.677C110.385 288.817 109.317 287.985 107.365 287.77ZM109.704 295.699C109.617 297.636 108.851 298.433 106.972 298.743C106.196 298.865 105.402 298.8 104.657 298.554C103.914 298.317 103.384 297.87 103.365 296.955C103.322 294.956 103.289 292.95 103.11 290.958C103.011 289.861 103.452 289.48 104.416 289.387C104.642 289.343 104.862 289.276 105.074 289.186C105.911 288.713 106.75 288.772 107.596 289.158C108.836 289.615 109.334 290.563 109.539 291.826C109.727 293.108 109.782 294.406 109.704 295.699Z" fill="#0F0F0F"/>
<path d="M150.241 288.519C150.005 287.119 149.142 286.211 147.692 285.95C145.91 285.631 144.196 285.95 142.49 286.449C141.921 286.617 142.098 286.901 142.242 287.211C142.386 287.521 142.228 288.079 142.909 287.855C143.59 287.63 144.253 287.481 144.927 287.299L144.47 287.221C144.47 287.159 144.47 287.098 144.47 287.034H147.32C147.341 287.034 147.365 287.076 147.386 287.1L147.15 287.28C148.583 287.646 148.869 288.784 149.055 290.038C149.154 290.707 148.748 290.591 148.378 290.601C147.147 290.918 145.856 290.918 144.625 290.601C143.256 290.745 142.218 291.4 141.862 292.763C141.57 293.913 141.601 295.123 141.952 296.257C142.07 296.736 142.321 297.171 142.678 297.511C143.034 297.851 143.48 298.081 143.963 298.175C146.151 298.674 148.23 298.241 150.269 297.447C150.422 297.409 150.555 297.316 150.643 297.184C150.73 297.053 150.765 296.893 150.74 296.737C150.535 294.012 150.693 291.242 150.241 288.519ZM146.969 296.928C146.542 296.971 146.108 296.962 145.677 296.962C143.944 296.962 143.555 296.626 143.303 294.925C142.982 292.796 143.564 292.025 145.684 291.814C145.92 291.791 146.155 291.786 146.391 291.779C148.998 291.706 148.998 291.706 149.201 294.3C149.371 296.538 149.236 296.704 146.969 296.928Z" fill="#0F0F0F"/>
<path d="M289.519 279.256C288.824 279.382 288.111 279.382 287.416 279.256C285.059 279.436 283.788 280.502 283.408 282.622C283.078 284.485 283.139 286.397 283.588 288.235C284.177 290.719 285.455 291.715 287.998 291.734C290.815 291.755 292.503 290.75 293.012 288.607C293.539 286.375 293.452 284.041 292.76 281.856C292.289 280.309 291.228 279.341 289.519 279.256ZM291.591 287.816C291.402 289.444 290.412 290.118 288.387 290.253C286.591 290.374 285.608 289.754 285.153 288.2C285.033 287.79 284.948 287.369 284.846 286.955L284.769 287.407H284.585C284.585 285.903 284.585 284.4 284.585 282.899C284.585 282.87 284.622 282.844 284.641 282.818L284.828 283.034C285.624 280.845 287.838 279.93 290.026 280.845C290.804 281.172 291.174 281.803 291.358 282.53C291.759 284.262 291.841 286.054 291.598 287.816H291.591Z" fill="#0F0F0F"/>
<path d="M184.396 293.182C184.425 292.285 184.467 291.388 184.231 290.509C184.191 290.733 184.154 290.956 184.116 291.18C184.069 290.109 183.75 289.035 184.158 287.977C183.923 285.345 182.885 284.313 180.304 284.231C179.05 284.225 177.801 284.403 176.598 284.758C176.061 284.9 175.79 285.061 176.006 285.704C176.209 286.307 176.426 286.395 176.999 286.147C177.758 285.818 178.602 285.801 179.42 285.728C181.933 285.506 182.874 286.438 182.72 289.009L181.593 288.943C180.765 289.261 179.848 289.261 179.019 288.943C177.482 289.021 176.178 289.465 175.66 291.116C175.361 292.136 175.343 293.217 175.608 294.246C175.976 295.854 176.629 296.417 178.31 296.675C179.138 296.362 180.053 296.362 180.882 296.675C182.129 296.51 183.378 296.363 184.418 295.533C184.251 295.164 184.162 294.764 184.159 294.359C184.155 293.954 184.236 293.553 184.396 293.182ZM180.625 295.31L180.389 295.329C177.52 295.566 176.81 294.792 177.088 291.902C177.183 290.956 177.701 290.497 178.55 290.35C179.131 290.264 179.717 290.213 180.304 290.196C182.925 290.066 182.925 290.071 182.996 292.704C183.062 295.072 183.017 295.116 180.617 295.32L180.625 295.31Z" fill="#0F0F0F"/>
<path d="M215.494 287.267C215.08 283.956 213.675 282.674 210.544 282.773C207.314 282.882 205.883 284.192 205.681 287.267C205.993 288.1 205.993 289.018 205.681 289.85C205.667 290.745 205.811 291.635 206.107 292.478C206.609 294.113 207.644 295.137 209.419 295.263C209.749 295.111 210.107 295.033 210.47 295.033C210.832 295.033 211.19 295.111 211.52 295.263C214.054 294.957 215.075 293.995 215.499 291.513C215.183 290.116 215.182 288.665 215.494 287.267ZM214.335 291.404C214.335 291.421 214.264 291.454 214.262 291.452C214.2 291.369 214.141 291.281 214.082 291.196C213.375 293.481 211.779 294.373 209.422 293.81C208.205 293.522 207.508 292.613 207.328 290.886C207.151 289.521 207.135 288.14 207.281 286.771C207.477 285.254 208.05 284.625 209.551 284.386C210.052 284.295 210.559 284.249 211.067 284.249C212.755 284.296 213.55 285.001 213.856 286.671C213.927 287.052 213.856 287.461 214.092 287.814L214.177 287.355H214.349C214.339 288.701 214.342 290.051 214.337 291.404H214.335Z" fill="#0F0F0F"/>
<path d="M236.095 281.728C235.317 281.642 234.531 281.655 233.756 281.766C231.342 282.078 230.282 283.138 229.949 285.61C230.264 286.846 230.264 288.142 229.949 289.378C230.126 292.143 231.081 293.51 233.221 294.066C234.135 293.769 235.119 293.774 236.029 294.08C238.507 293.669 239.532 292.51 239.768 289.851C239.459 288.936 239.459 287.946 239.768 287.031C239.839 286.151 239.608 285.321 239.36 284.493C238.877 282.861 237.814 281.934 236.095 281.728ZM238.162 290.336C237.927 291.722 237.146 292.503 235.765 292.68C232.875 293.056 231.915 292.316 231.522 289.408C231.483 289.218 231.43 289.031 231.364 288.848L231.279 289.297H231.107C231.107 288.105 231.107 286.913 231.107 285.721C231.107 285.702 231.152 285.681 231.175 285.659L231.359 285.896C232.099 283.41 233.848 282.485 236.397 283.268C237.587 283.634 237.95 284.687 238.089 285.742C238.285 287.265 238.434 288.798 238.162 290.336Z" fill="#0F0F0F"/>
<path d="M261.677 283.483C261.385 281.768 260.404 280.805 258.65 280.682C258.035 280.807 257.401 280.807 256.785 280.682C255.918 280.642 255.097 280.897 254.279 281.129C253.919 281.231 253.313 281.129 253.6 281.966C253.836 282.664 254.072 282.811 254.713 282.522C255.182 282.347 255.662 282.208 256.151 282.104C256.957 281.849 257.82 281.836 258.634 282.068C260.284 282.574 260.364 283.92 260.456 285.399C259.699 285.323 259.041 285.209 258.391 285.202C257.688 285.206 256.985 285.251 256.288 285.34C254.225 285.576 253.299 286.503 253.087 288.552C253.012 289.414 253.112 290.282 253.381 291.104C253.508 291.581 253.769 292.011 254.134 292.342C254.499 292.672 254.951 292.89 255.437 292.968C257.664 293.43 259.983 293.085 261.981 291.994C261.698 289.162 261.309 286.335 261.677 283.483ZM260.133 291.289C259.687 291.409 259.249 291.565 258.808 291.707C257.865 292.315 256.858 291.894 255.878 291.927C255.878 291.927 255.842 291.861 255.845 291.83C255.855 291.793 255.873 291.757 255.897 291.726C255.166 291.414 254.918 290.745 254.673 290.07C254.471 289.761 254.362 289.4 254.36 289.03C254.358 288.66 254.462 288.298 254.661 287.986C254.951 287.04 255.776 286.818 256.587 286.579C256.55 286.565 256.502 286.565 256.476 286.539C256.436 286.491 256.4 286.439 256.368 286.385C257.658 286.264 258.957 286.269 260.246 286.399C260.246 286.432 260.246 286.482 260.222 286.492C260.154 286.527 260.083 286.559 260.01 286.586C260.246 286.754 260.55 286.801 260.55 287.241C260.55 288.341 260.607 289.441 260.682 290.539C260.713 290.986 260.519 291.175 260.133 291.282V291.289Z" fill="#0F0F0F"/>
<path d="M325.767 282.527C324.508 282.517 323.249 282.572 321.996 282.692C321.173 282.775 320.772 282.676 320.85 281.694C320.923 280.748 320.774 279.802 320.763 278.856C320.763 278.264 320.649 277.95 319.914 277.983C319.112 278.016 319.303 278.468 319.322 278.929C319.442 281.604 319.584 284.28 319.662 286.957C319.761 290.269 319.737 290.269 323.078 289.666L321.347 289.59L321.194 289.635C321.288 289.76 321.036 289.68 321.194 289.581H321.317C322.816 289.462 324.315 289.164 325.812 289.581C327.891 289.285 328.641 288.478 328.681 286.439C328.693 286.045 328.684 285.65 328.655 285.257C328.519 283.492 327.538 282.532 325.767 282.527ZM325.824 288.159C324.468 288.327 323.094 288.322 321.729 288.419C321.272 288.452 321.09 288.308 321.111 287.842C321.14 287.293 321.111 286.742 321.111 286.186C321.003 283.982 321.003 283.984 323.181 283.944C324.002 283.93 324.831 283.852 325.642 283.894C326.694 283.946 327.113 284.545 327.135 286.002C327.154 286.981 327.047 288.008 325.822 288.159H325.824Z" fill="#0F0F0F"/>
<path d="M121.273 292.26C120.123 292.585 118.905 292.585 117.755 292.26L115.653 292.212C115.214 291.441 115.304 290.656 115.584 289.863C115.563 289.154 115.789 288.411 115.386 287.734C114.641 287.957 114.318 288.425 114.443 289.227C114.495 289.587 114.547 289.993 114.259 290.317C114.219 291.294 114.184 292.269 114.422 293.229L114.535 292.319C114.568 293.705 114.936 295.093 114.495 296.468C114.521 297.293 114.545 298.123 114.575 298.944C114.575 299.271 114.613 299.59 115.084 299.529C117.187 299.259 119.328 299.514 121.417 299.077C122.569 298.84 123.227 298.062 123.425 296.898C123.568 296.08 123.561 295.242 123.404 294.426C123.166 293.267 122.558 292.406 121.273 292.26ZM120.257 297.847C119.599 297.906 118.932 297.859 118.267 297.859C115.91 297.984 115.91 297.984 115.865 295.54C115.837 293.695 115.837 293.7 117.689 293.61C118.467 293.572 119.245 293.473 120.026 293.456C121.346 293.433 121.881 294.034 121.952 295.543C122.022 297.052 121.541 297.74 120.257 297.847Z" fill="#0F0F0F"/>
<path d="M340.51 282.063C341.597 280.419 342.568 278.699 343.641 276.92C341.944 276.906 341.953 276.92 341.255 278.134C340.583 279.316 339.888 280.483 339.157 281.736C338.214 280.53 337.241 279.48 336.486 278.297C335.779 277.18 334.89 277.211 333.754 277.408C335.142 279.115 336.437 280.736 337.762 282.325C338.188 282.834 338.283 283.222 337.856 283.818C336.717 285.41 335.661 287.059 334.572 288.684C334.98 289.057 335.501 288.767 335.949 288.92L339.221 284.26C340.067 285.486 340.982 286.626 341.684 287.877C342.276 288.934 342.993 288.989 344.07 288.61C342.891 286.955 341.781 285.327 340.6 283.771C340.15 283.16 340.06 282.744 340.51 282.063Z" fill="#0F0F0F"/>
<path d="M224.411 287.401C225.483 285.806 226.415 284.113 227.435 282.405C226.174 282.182 225.516 282.589 225.04 283.588C224.463 284.811 223.696 285.953 222.975 287.181C222.032 285.979 221.063 284.934 220.314 283.746C219.606 282.627 218.722 282.644 217.574 282.847C218.934 284.52 220.182 286.128 221.513 287.661C222.082 288.314 222.042 288.777 221.563 289.447C220.469 290.973 219.455 292.557 218.411 294.119C218.833 294.414 219.316 294.334 219.785 294.355L223.053 289.705C223.911 290.947 224.826 292.084 225.528 293.34C226.122 294.405 226.829 294.45 227.9 294.05C226.721 292.394 225.665 290.802 224.486 289.291C223.944 288.605 223.909 288.148 224.411 287.401Z" fill="#0F0F0F"/>
<path d="M161.839 289.33L161.733 290.239C161.733 289.95 161.702 289.664 161.676 289.377C161.622 289.366 161.639 289.295 161.676 289.233C161.58 288.181 161.441 287.13 161.778 286.085C161.907 285.567 161.726 285.375 161.181 285.415C159.385 285.526 157.587 285.614 155.788 285.68C155.182 285.702 155.002 285.945 155 286.544C155 287.601 154.925 288.661 154.84 289.718C154.628 292.396 154.034 295.01 153.359 297.619C154.894 297.702 154.918 297.706 155.193 296.344C155.762 293.536 156.276 290.723 156.422 287.854C156.438 287.532 156.306 287.078 156.855 287.052C157.989 287 159.213 286.712 160.224 287.052C160.743 287.22 160.351 288.568 160.5 289.37C160.527 289.484 160.563 289.595 160.606 289.704L160.719 289.259C160.719 289.401 160.736 289.545 160.75 289.687C160.75 289.687 160.75 289.709 160.75 289.723C160.844 290.716 161.047 291.712 160.677 292.699C160.729 294.063 160.792 295.428 160.828 296.796C160.828 297.233 160.962 297.456 161.441 297.359C161.832 297.278 162.351 297.418 162.266 296.703C161.962 294.248 162.216 291.771 161.839 289.33Z" fill="#0F0F0F"/>
<path d="M168.928 290.45C170.564 288.759 171.976 286.902 173.407 284.983C172.243 284.699 171.443 284.983 170.868 285.972C170.503 286.531 170.089 287.058 169.633 287.545C168.73 288.626 167.813 289.695 166.762 290.937C166.672 289.106 166.604 287.571 166.526 286.038C166.505 285.665 166.729 285.125 165.953 285.194C165.359 285.244 164.998 285.35 165.088 286.074C165.196 286.968 165.057 287.883 165.298 288.77C165.328 288.047 165.361 287.325 165.392 286.604C165.406 287.181 165.432 287.753 165.463 288.328C165.449 288.091 165.456 287.854 165.484 287.618C165.472 287.855 165.467 288.092 165.463 288.347C165.566 290.225 165.738 292.096 165.812 293.972C165.83 294.481 165.781 294.994 165.826 295.5C165.859 295.89 165.59 296.567 166.144 296.591C166.757 296.617 166.493 295.928 166.507 295.555C166.545 294.497 166.507 293.437 166.523 292.38C166.523 292.002 166.406 291.581 166.795 291.294C168.209 291.436 169.19 292.283 170.121 293.253C171.116 294.289 171.729 295.602 172.657 296.683C172.737 296.636 172.825 296.609 172.917 296.602L174.018 296.262C172.669 294.022 171.441 291.678 168.928 290.45Z" fill="#0F0F0F"/>
<path d="M303.694 278.747C300.95 278.884 298.209 279.043 295.462 279.164C294.918 279.187 294.647 279.244 294.661 279.93C294.677 280.685 295.057 280.64 295.556 280.592C296.337 280.528 297.127 280.519 297.914 280.417C298.701 280.316 299.048 280.486 299.107 281.425C299.234 283.464 299.034 285.522 299.411 287.549L299.524 286.88H299.677C299.677 287.807 299.677 288.734 299.677 289.661C299.677 289.96 299.585 290.317 299.941 290.489C300.363 290.693 300.568 290.343 300.811 290.104C300.743 287.899 300.63 285.697 300.627 283.492C300.627 282.459 299.963 281.082 300.71 280.491C301.396 279.947 302.744 280.254 303.798 280.167C304.248 280.131 304.835 280.403 304.802 279.481C304.769 278.558 304.229 278.719 303.694 278.747Z" fill="#0F0F0F"/>
<path d="M251.121 281.344C250.263 281.564 249.4 281.488 248.527 281.384C246.382 281.465 244.237 281.533 242.094 281.621C241.047 281.668 240.984 281.831 241.446 282.993C242.224 282.771 243.006 282.844 243.803 282.953C244.419 283.085 245.057 282.801 245.668 283.054L245.873 283.035C246.026 285.874 246.366 288.696 246.109 291.551C246.109 291.62 246.026 291.681 245.984 291.745C245.939 293.552 245.939 293.552 247.313 293.164L246.208 293.098C247.665 292.762 246.781 291.627 247.323 291.05C247.247 288.668 247.233 286.281 247.073 283.906C247.005 282.912 247.349 282.707 248.216 282.759C248.956 282.783 249.697 282.763 250.435 282.697C251.531 282.626 251.564 282.548 251.142 281.342L251.121 281.344Z" fill="#0F0F0F"/>
<path d="M331.673 287.017C331.267 286.211 331.564 285.361 331.491 284.519C331.474 283.382 331.456 282.244 331.439 281.104C331.218 280.285 331.515 279.426 331.258 278.61C331.578 277.428 330.913 277.402 330.079 277.598C329.867 278.102 329.942 278.61 330.065 279.119C330.082 280.256 330.099 281.395 330.117 282.535C330.352 283.353 330.041 284.212 330.301 285.03L330.35 288.209C330.664 288.548 330.51 288.966 330.548 289.352C331.425 289.534 331.875 289.253 331.748 288.283C331.68 287.864 331.691 287.438 331.673 287.017ZM331.201 288.81C330.796 288.921 330.805 288.55 330.744 288.292C330.305 286.424 330.6 284.529 330.567 282.646C330.567 282.409 330.694 282.173 330.998 282.215C331.251 282.26 331.234 282.506 331.234 282.688C331.234 283.476 331.234 284.266 331.234 285.163C331.331 286.069 331.076 287.1 331.401 288.108C331.479 288.366 331.564 288.711 331.206 288.81H331.201Z" fill="#0F0F0F"/>
<path d="M272.809 283.739C272.024 283.755 271.395 283.961 271.44 284.921C271.475 285.683 271.522 286.483 272.71 286.357C273.528 286.466 273.96 286.04 273.943 285.156C273.932 284.394 273.802 283.72 272.809 283.739Z" fill="#0F0F0F"/>
<path d="M195.155 287.437C194.365 287.47 193.788 287.589 193.83 288.596C193.866 289.424 193.981 290.101 195.009 290.065C195.815 290.039 196.376 289.746 196.237 288.767C196.308 287.988 196.178 287.38 195.155 287.437Z" fill="#0F0F0F"/>
<path d="M126.15 293.146L125.992 293.17C125.83 294.745 126.329 296.29 126.228 297.863C126.209 298.13 126.268 298.495 125.898 298.513C125.528 298.532 125.565 298.17 125.528 297.906C125.108 294.83 125.459 291.71 125.056 288.633C125.036 288.437 125.036 288.24 125.056 288.044C125.075 287.807 125.127 287.552 125.452 287.594C125.688 287.628 125.705 287.852 125.738 288.044C125.83 288.571 125.558 289.153 125.985 289.626C125.985 288.855 125.985 288.086 125.985 287.318C125.558 287.457 124.78 286.646 124.712 287.647C124.634 288.77 124.797 289.913 124.854 291.046C125.231 291.774 125.004 292.548 125.023 293.302L125.087 296.718C125.471 297.406 125.238 298.137 125.264 298.861L126.442 298.845C126.643 297.662 126.442 296.479 126.428 295.296C126.004 294.622 126.355 293.849 126.15 293.146Z" fill="#0F0F0F"/>
<path d="M166.527 292.375C166.527 293.433 166.548 294.504 166.51 295.55C166.496 295.923 166.76 296.612 166.147 296.586C165.588 296.562 165.862 295.876 165.829 295.495C165.784 294.989 165.829 294.476 165.815 293.967C165.742 292.091 165.579 290.22 165.466 288.342V288.328C165.435 287.753 165.409 287.181 165.395 286.604C165.364 287.313 165.331 288.046 165.301 288.77L165.386 291.992C165.782 292.879 165.508 293.811 165.565 294.722C165.587 295.468 165.606 296.212 165.624 296.955H166.932L166.963 296.482C166.571 295.753 166.847 294.973 166.784 294.22C166.793 293.243 166.802 292.266 166.81 291.292C166.409 291.576 166.531 291.997 166.527 292.375Z" fill="#0F0F0F"/>
<path d="M261.919 286.78C261.526 286.054 261.799 285.273 261.742 284.518C261.724 284.173 261.702 283.828 261.681 283.482C261.313 286.335 261.705 289.16 261.976 291.998C262.329 291.837 262.157 291.525 262.146 291.288C262.082 289.784 261.997 288.282 261.919 286.78Z" fill="#0F0F0F"/>
<path d="M245.873 283.045L245.668 283.064C245.692 284.07 245.716 285.074 245.741 286.077C246.142 286.884 245.864 287.733 245.918 288.571C245.937 289.629 245.955 290.687 245.972 291.745C246.015 291.681 246.09 291.62 246.097 291.551C246.375 288.705 246.026 285.879 245.873 283.045Z" fill="#0F0F0F"/>
<path d="M299.937 290.492C299.581 290.32 299.677 289.963 299.673 289.665C299.661 288.737 299.673 287.81 299.673 286.883H299.519L299.406 287.552C299.406 288.451 299.451 289.352 299.425 290.254C299.409 290.739 299.592 290.843 300.038 290.819C300.524 290.793 301.031 290.876 300.811 290.109C300.564 290.346 300.363 290.696 299.937 290.492Z" fill="#0F0F0F"/>
<path d="M215.493 291.509C215.698 290.103 215.698 288.674 215.493 287.268C215.179 288.664 215.179 290.113 215.493 291.509Z" fill="#0F0F0F"/>
<path d="M321.318 289.578H321.219H321.355L323.086 289.654L325.813 289.567C324.316 289.162 322.817 289.46 321.318 289.578Z" fill="#0F0F0F"/>
<path d="M161.665 289.232C161.665 289.28 161.665 289.327 161.665 289.377C161.691 289.663 161.712 289.949 161.722 290.238L161.828 289.329C161.804 288.248 161.78 287.166 161.755 286.084C161.439 287.13 161.568 288.18 161.665 289.232Z" fill="#0F0F0F"/>
<path d="M114.523 292.322L114.41 293.233C114.435 294.312 114.46 295.391 114.483 296.471C114.924 295.097 114.556 293.708 114.523 292.322Z" fill="#0F0F0F"/>
<path d="M148.37 290.604C147.127 290.4 145.86 290.4 144.617 290.604C145.848 290.921 147.139 290.921 148.37 290.604Z" fill="#0F0F0F"/>
<path d="M315.575 287.845C315.575 287.888 315.575 287.928 315.575 287.971C315.584 288.095 315.591 288.221 315.596 288.347C315.634 288.2 315.672 288.053 315.712 287.907C315.685 286.825 315.661 285.745 315.639 284.666C315.275 285.721 315.488 286.783 315.575 287.845Z" fill="#0F0F0F"/>
<path d="M229.948 285.609C229.788 286.86 229.788 288.127 229.948 289.378C230.263 288.141 230.263 286.846 229.948 285.609Z" fill="#0F0F0F"/>
<path d="M160.741 289.712C160.741 289.697 160.741 289.688 160.741 289.676C160.727 289.534 160.718 289.39 160.711 289.248L160.598 289.693C160.621 290.691 160.646 291.69 160.671 292.69C161.038 291.696 160.836 290.705 160.741 289.712Z" fill="#0F0F0F"/>
<path d="M114.433 289.23C114.318 288.428 114.641 287.96 115.376 287.737C114.511 287.484 113.988 287.622 114.162 288.714C114.22 289.248 114.246 289.784 114.24 290.321C114.537 289.996 114.485 289.59 114.433 289.23Z" fill="#0F0F0F"/>
<path d="M147.311 287.035H144.461C144.461 287.099 144.461 287.161 144.461 287.222L144.918 287.3L147.134 287.284L147.37 287.104C147.365 287.078 147.332 287.035 147.311 287.035Z" fill="#0F0F0F"/>
<path d="M126.258 292.879C126.277 292.941 126.291 293.006 126.305 293.071C126.334 293.023 126.317 292.958 126.258 292.879Z" fill="#0F0F0F"/>
<path d="M125.996 289.629C125.996 290.81 125.996 291.993 125.996 293.177L126.154 293.153L126.26 292.884C126.237 291.8 126.212 290.718 126.187 289.636H125.998L125.996 289.629Z" fill="#0F0F0F"/>
<path d="M184.116 291.179C184.154 290.943 184.191 290.732 184.231 290.508C184.205 289.663 184.182 288.821 184.158 287.977C183.75 289.034 184.069 290.108 184.116 291.179Z" fill="#0F0F0F"/>
<path d="M121.271 292.258C120.092 292.072 118.928 292.235 117.754 292.258C118.904 292.584 120.121 292.584 121.271 292.258Z" fill="#0F0F0F"/>
<path d="M246.199 293.101L247.305 293.167C247.472 292.458 247.335 291.748 247.305 291.053C246.772 291.63 247.656 292.765 246.199 293.101Z" fill="#0F0F0F"/>
<path d="M239.775 289.851V287.031C239.466 287.946 239.466 288.937 239.775 289.851Z" fill="#0F0F0F"/>
<path d="M233.223 294.061C234.153 294.205 235.099 294.21 236.03 294.075C235.12 293.769 234.136 293.764 233.223 294.061Z" fill="#0F0F0F"/>
<path d="M101.75 288.922V291.507C102.071 290.676 102.071 289.754 101.75 288.922Z" fill="#0F0F0F"/>
<path d="M165.384 291.992C165.356 292.908 165.316 293.825 165.564 294.722C165.516 293.811 165.781 292.879 165.384 291.992Z" fill="#0F0F0F"/>
<path d="M205.68 287.266V289.849C205.992 289.016 205.992 288.098 205.68 287.266Z" fill="#0F0F0F"/>
<path d="M181.598 288.951H179.023C179.852 289.269 180.769 289.269 181.598 288.951Z" fill="#0F0F0F"/>
<path d="M178.312 296.682C179.166 296.791 180.031 296.791 180.884 296.682C180.056 296.369 179.141 296.369 178.312 296.682Z" fill="#0F0F0F"/>
<path d="M245.741 286.078C245.72 286.915 245.671 287.755 245.918 288.571C245.864 287.739 246.14 286.885 245.741 286.078Z" fill="#0F0F0F"/>
<path d="M115.651 292.218L115.582 289.869C115.304 290.662 115.212 291.459 115.651 292.218Z" fill="#0F0F0F"/>
<path d="M138.912 294.581V292.234C138.756 292.606 138.676 293.005 138.676 293.408C138.676 293.811 138.756 294.209 138.912 294.581Z" fill="#0F0F0F"/>
<path d="M317.188 288.634C316.767 288.675 316.344 288.691 315.922 288.682C316.436 289.19 317.367 288.575 317.77 289.377C317.874 288.895 317.853 288.54 317.188 288.634Z" fill="#0F0F0F"/>
<path d="M184.414 295.533C184.414 294.744 184.408 293.961 184.395 293.182C184.234 293.553 184.153 293.954 184.156 294.359C184.16 294.764 184.247 295.164 184.414 295.533Z" fill="#0F0F0F"/>
<path d="M126.421 295.299C126.481 294.553 126.442 293.802 126.306 293.066C126.291 293.002 126.277 292.938 126.258 292.877L126.152 293.147C126.355 293.849 126.004 294.623 126.421 295.299Z" fill="#0F0F0F"/>
<path d="M331.672 287.017C331.686 286.18 331.757 285.338 331.49 284.52C331.563 285.352 331.266 286.211 331.672 287.017Z" fill="#0F0F0F"/>
<path d="M334.579 288.684C334.513 288.835 334.107 289.081 334.503 289.121C334.975 289.169 335.536 289.398 335.956 288.913C335.508 288.766 334.987 289.057 334.579 288.684Z" fill="#0F0F0F"/>
<path d="M124.856 291.045C124.837 291.804 124.778 292.566 125.026 293.304C125.007 292.547 125.233 291.773 124.856 291.045Z" fill="#0F0F0F"/>
<path d="M166.949 296.478C166.966 295.719 167.029 294.955 166.77 294.217C166.834 294.969 166.558 295.75 166.949 296.478Z" fill="#0F0F0F"/>
<path d="M209.418 295.261H211.518C211.189 295.11 210.831 295.031 210.468 295.031C210.106 295.031 209.748 295.11 209.418 295.261Z" fill="#0F0F0F"/>
<path d="M261.92 286.781C261.942 286.022 262.015 285.258 261.741 284.52C261.8 285.274 261.527 286.055 261.92 286.781Z" fill="#0F0F0F"/>
<path d="M125.091 296.721C125.091 297.43 124.97 298.168 125.265 298.864C125.659 299.178 126.045 299.051 126.444 298.845L125.265 298.861C125.242 298.147 125.475 297.409 125.091 296.721Z" fill="#0F0F0F"/>
<path d="M172.919 296.596L172.66 296.677C173.109 296.722 173.561 296.729 174.011 296.698C174.499 296.625 174.051 296.41 174.011 296.256L172.919 296.596Z" fill="#0F0F0F"/>
<path d="M218.411 294.127C218.349 294.281 217.939 294.527 218.333 294.565C218.804 294.612 219.37 294.848 219.785 294.354C219.316 294.342 218.833 294.423 218.411 294.127Z" fill="#0F0F0F"/>
<path d="M107.366 287.77H105.734C105.981 287.917 106.263 287.995 106.55 287.995C106.837 287.995 107.119 287.917 107.366 287.77Z" fill="#0F0F0F"/>
<path d="M166.933 296.953H165.637C166.056 297.348 166.49 297.112 166.933 296.953Z" fill="#0F0F0F"/>
<path d="M330.336 288.207C330.385 288.593 330.1 289.035 330.534 289.35C330.496 288.964 330.649 288.545 330.336 288.207Z" fill="#0F0F0F"/>
<path d="M314.295 288.96L313.017 288.877L310.273 288.955C311.162 289.213 313.185 289.232 314.295 288.96Z" fill="#0F0F0F"/>
<path d="M105.074 289.186L107.597 289.158C106.75 288.772 105.911 288.713 105.074 289.186Z" fill="#0F0F0F"/>
<path d="M284.65 282.822C284.631 282.848 284.594 282.874 284.594 282.903C284.594 284.404 284.594 285.907 284.594 287.411H284.778L284.855 286.959C284.855 285.654 284.85 284.348 284.839 283.042L284.65 282.822Z" fill="#0F0F0F"/>
<path d="M214.082 287.813V291.196C214.141 291.281 214.2 291.369 214.261 291.451C214.261 291.451 214.334 291.421 214.334 291.404C214.334 290.051 214.334 288.7 214.334 287.35H214.162L214.082 287.813Z" fill="#0F0F0F"/>
<path d="M231.174 285.664C231.15 285.685 231.105 285.707 231.105 285.726C231.105 286.918 231.105 288.11 231.105 289.302H231.278L231.362 288.853C231.362 287.869 231.362 286.886 231.362 285.905L231.174 285.664Z" fill="#0F0F0F"/>
<path d="M260.225 286.492C260.244 286.492 260.242 286.433 260.249 286.4C258.96 286.27 257.661 286.265 256.371 286.386C256.403 286.44 256.439 286.492 256.48 286.54C256.505 286.566 256.553 286.566 256.59 286.58H260.013C260.086 286.555 260.157 286.526 260.225 286.492Z" fill="#0F0F0F"/>
<path d="M255.848 291.824C255.848 291.855 255.869 291.921 255.881 291.921C256.861 291.888 257.875 292.309 258.811 291.701L255.9 291.72C255.876 291.751 255.858 291.786 255.848 291.824Z" fill="#0F0F0F"/>
<path d="M254.673 290.064C254.673 289.369 254.673 288.676 254.661 287.98C254.462 288.292 254.357 288.654 254.359 289.024C254.361 289.394 254.47 289.755 254.673 290.064Z" fill="#0F0F0F"/>
<path d="M331.245 285.167C331.245 284.271 331.245 283.481 331.245 282.693C331.245 282.506 331.267 282.26 331.01 282.22C330.706 282.168 330.574 282.423 330.578 282.65C330.611 284.543 330.317 286.435 330.755 288.297C330.816 288.554 330.807 288.926 331.212 288.815C331.571 288.715 331.491 288.37 331.41 288.117C331.08 287.104 331.335 286.073 331.245 285.167Z" fill="#0F0F0F"/>
<path d="M125.747 288.044C125.714 287.852 125.709 287.628 125.462 287.594C125.137 287.552 125.085 287.8 125.066 288.044C125.046 288.24 125.046 288.437 125.066 288.633C125.464 291.708 125.113 294.828 125.537 297.905C125.575 298.17 125.525 298.535 125.907 298.513C126.289 298.492 126.219 298.13 126.237 297.863C126.346 296.29 125.846 294.745 126.002 293.17C126.002 291.989 126.002 290.806 126.002 289.622H126.19C126.19 288.846 126.322 288.058 125.995 287.311C125.995 288.079 125.995 288.848 125.995 289.619C125.568 289.153 125.839 288.571 125.747 288.044Z" fill="#0F0F0F"/>
<path d="M206.313 256.046C202.902 256.155 199.496 256.358 196.087 256.498C195.566 256.519 195.325 256.609 195.358 257.226C195.516 259.937 195.636 262.65 195.719 265.366C195.74 265.955 195.858 266.201 196.516 266.151C198.197 266.019 199.882 265.962 201.955 265.855C203.591 265.619 205.649 265.855 207.669 265.515C209.246 265.238 210.045 264.422 210.389 262.847C210.642 261.699 210.517 260.573 210.337 259.447C209.972 257.125 208.657 255.977 206.313 256.046Z" fill="#FBBC2B"/>
<path d="M196.06 249.43C199.148 249.236 202.238 249.101 205.331 248.957C208.172 248.834 209.254 247.622 209.042 244.751C209.016 244.396 208.985 244.041 208.945 243.693C208.735 241.898 207.908 241.049 206.1 241.091C202.575 241.179 199.056 241.397 195.534 241.527C194.893 241.55 194.758 241.794 194.784 242.381C194.831 243.4 194.798 244.424 194.798 245.456H195.034C195.034 246.437 195.084 247.424 195.02 248.401C194.966 249.219 195.22 249.484 196.06 249.43Z" fill="#FBBC2B"/>
<path d="M166.989 245.877C166.187 243.868 164.716 242.802 162.559 242.511C160.879 242.329 159.184 242.361 157.512 242.605C154.249 243 152.764 244.464 152.13 247.743C151.958 248.628 151.845 249.522 151.703 250.414L151.717 256.197C151.953 256.883 151.859 257.6 151.92 258.302C152.106 260.46 152.318 262.608 153.075 264.663C153.867 266.816 155.322 268.062 157.625 268.398C159.445 268.661 161.227 268.514 163.012 268.23C165.826 267.778 167.411 266.068 167.962 263.286C168.639 259.925 168.46 256.543 168.264 253.162C168.132 250.688 167.922 248.214 166.989 245.877Z" fill="#FBBC2B"/>
<path d="M151.516 249.475V257.354H151.626C151.657 256.968 151.685 256.583 151.716 256.197L151.702 250.414C151.589 250.118 151.817 249.744 151.516 249.475Z" fill="#0F0F0F"/>
</svg>
