<svg width="32" height="32" viewBox="0 0 32 32" fill="none" xmlns="http://www.w3.org/2000/svg">
<rect width="32" height="32" rx="16" fill="#2566AF"/>
<path fill-rule="evenodd" clip-rule="evenodd" d="M16.9808 21.954C16.9808 21.954 17.3418 21.9154 17.5267 21.7239C17.6959 21.5485 17.69 21.2175 17.69 21.2175C17.69 21.2175 17.6675 19.6718 18.4119 19.4436C19.1456 19.2192 20.0876 20.9384 21.0873 21.5994C21.8425 22.0993 22.4157 21.9899 22.4157 21.9899L25.0872 21.954C25.0872 21.954 26.4841 21.871 25.8218 20.812C25.767 20.7252 25.4354 20.0283 23.8361 18.5968C22.1604 17.0982 22.3854 17.3406 24.4024 14.7482C25.6311 13.1695 26.1221 12.2057 25.9685 11.7936C25.8228 11.3994 24.9189 11.5041 24.9189 11.5041L21.9119 11.522C21.9119 11.522 21.6889 11.4927 21.5236 11.588C21.3622 11.6814 21.2575 11.8992 21.2575 11.8992C21.2575 11.8992 20.7821 13.1205 20.1473 14.1597C18.8081 16.3514 18.273 16.4673 18.0539 16.3315C17.5443 16.0137 17.6714 15.0565 17.6714 14.3766C17.6714 12.2519 18.006 11.3664 17.0209 11.1372C16.6942 11.0608 16.4536 11.0108 15.6172 11.0024C14.5441 10.992 13.6364 11.0061 13.1218 11.2485C12.7795 11.4098 12.5153 11.77 12.6767 11.7908C12.8753 11.8162 13.3253 11.9077 13.564 12.2208C13.8721 12.6254 13.8613 13.5326 13.8613 13.5326C13.8613 13.5326 14.0384 16.0335 13.4476 16.3438C13.0426 16.5569 12.487 16.1222 11.2926 14.1333C10.6812 13.1148 10.2195 11.9888 10.2195 11.9888C10.2195 11.9888 10.1305 11.7785 9.97104 11.6653C9.77834 11.5286 9.50933 11.4861 9.50933 11.4861L6.65201 11.5041C6.65201 11.5041 6.22258 11.5154 6.06509 11.6955C5.92521 11.8549 6.05433 12.1859 6.05433 12.1859C6.05433 12.1859 8.29147 17.2322 10.825 19.7756C13.1482 22.1068 15.7855 21.954 15.7855 21.954H16.9808Z" fill="white"/>
</svg>
