<svg width="14" height="14" viewBox="0 0 14 14" fill="none" xmlns="http://www.w3.org/2000/svg">
<mask id="mask0_225_1282" style="mask-type:luminance" maskUnits="userSpaceOnUse" x="0" y="0" width="14" height="14">
<path d="M14 0H0V14H14V0Z" fill="white"/>
</mask>
<g mask="url(#mask0_225_1282)">
<path d="M6.91592 0.466797C6.9686 0.466797 7.01799 0.466797 7.07067 0.466797C7.13982 0.476675 7.21225 0.493137 7.2814 0.499723C7.54151 0.526063 7.8082 0.535941 8.06502 0.578744C9.9319 0.908001 11.3938 1.86943 12.4442 3.43999C13.1159 4.44093 13.4682 5.55382 13.5044 6.76219C13.5077 6.82146 13.5241 6.87743 13.5373 6.9367C13.5373 6.98938 13.5373 7.03877 13.5373 7.09145C13.5241 7.17047 13.511 7.24949 13.5044 7.32851C13.4649 7.65448 13.4517 7.98373 13.3891 8.30311C13.1093 9.6794 12.4541 10.8548 11.4169 11.8031C9.93849 13.1497 8.19015 13.7062 6.20802 13.4922C5.10501 13.3703 4.09419 12.9752 3.19861 12.3134C1.42063 10.9964 0.518458 9.21845 0.465776 7.01242C0.455899 6.50208 0.525043 5.99502 0.646868 5.49455C1.33831 2.6366 3.8703 0.588622 6.73154 0.499723C6.7941 0.49643 6.85336 0.476675 6.91592 0.466797ZM5.92815 7.54911C5.86559 7.48985 5.83596 7.46021 5.80633 7.43058C5.40463 7.02889 5.00623 6.63049 4.60454 6.22879C4.42674 6.051 4.29833 6.051 4.12382 6.2255C3.83737 6.51195 3.55092 6.79841 3.26446 7.08486C3.09654 7.25278 3.09654 7.38778 3.26446 7.55899C4.06127 8.35909 4.85807 9.15918 5.65487 9.95927C5.84584 10.1502 5.96108 10.1502 6.15205 9.95927C7.67321 8.43811 9.19437 6.91694 10.7156 5.39577C10.8934 5.21798 10.8967 5.09615 10.7189 4.91506C10.4456 4.63848 10.1723 4.3652 9.89569 4.09192C9.67838 3.87461 9.56644 3.87461 9.35242 4.08862C8.23953 5.20151 7.12994 6.31111 6.02034 7.424C5.98413 7.45692 5.96108 7.49973 5.92815 7.54911Z" fill="#29D42E"/>
</g>
</svg>
