<svg width="107" height="78" viewBox="0 0 107 78" fill="none" xmlns="http://www.w3.org/2000/svg">
<path d="M106.148 42.8162C106.148 42.4602 106.07 42.3502 105.704 42.3693C103.729 42.4741 101.752 42.5538 99.7764 42.6438C97.8006 42.7339 95.824 42.8284 93.8482 42.9219C90.9986 43.057 88.1494 43.1927 85.3003 43.329C83.2342 43.4269 81.1758 43.5179 79.1139 43.6158C76.2787 43.7503 73.444 43.886 70.61 44.0229C68.5188 44.1216 66.4286 44.2126 64.3375 44.3105C61.5022 44.4444 58.6676 44.5804 55.8335 44.7185C54.2839 44.793 52.7411 44.8752 51.195 44.9454C49.8502 45.0069 48.5046 45.0563 47.1599 45.1109C45.2659 45.9424 43.3849 46.8242 41.3712 47.363C38.6878 48.0855 35.9751 48.5628 33.1927 48.522C30.0668 48.4753 27.0889 47.8291 24.3599 46.224C24.3212 46.2064 24.2808 46.1931 24.2393 46.1841C20.1799 46.3839 16.1208 46.5837 12.0619 46.7835C8.6717 46.9481 5.28234 47.0798 1.89298 47.2591C1.27485 47.2911 0.642951 47.2158 0.0351562 47.4055C0.178926 47.5675 0.11522 47.7641 0.11522 47.9451C0.118663 54.9598 0.118663 61.9763 0.11522 68.9944C0.11522 69.2829 0.147073 69.4968 0.45958 69.567L1.66484 69.5098L10.7706 69.081L21.896 68.5613L31.0026 68.1325L42.171 67.6076L51.2776 67.1788L62.403 66.6591L73.4001 66.1393L84.4825 65.6196C88.1482 65.4464 91.8136 65.2731 95.4788 65.0999C98.8868 64.9428 102.295 64.7924 105.704 64.6486C106.063 64.6338 106.15 64.523 106.15 64.173C106.138 57.0521 106.137 49.9331 106.148 42.8162ZM20.058 67.2117C19.1273 67.2481 18.1958 67.2836 17.2652 67.333C16.9854 67.3477 17.0164 67.1598 17.0069 66.9952C16.9682 66.0146 16.9346 65.0332 16.8941 64.05C16.7891 61.4834 16.6746 58.9168 16.5834 56.3501C16.5713 56.0175 16.4689 55.9473 16.1581 55.9664C15.2421 56.0244 14.3252 56.053 13.4032 56.0842C13.0761 56.0946 12.9228 56.1587 12.903 56.5641C12.7379 60.122 12.2614 63.6583 11.4791 67.132C11.3999 67.4785 11.2785 67.6336 10.9066 67.6414C9.93378 67.6622 8.96182 67.7228 7.93219 67.7696C8.41773 65.7043 8.80016 63.6158 9.07804 61.512C9.4224 58.9064 9.64968 56.2938 9.66259 53.6648C9.66259 53.2924 9.75643 53.191 10.1335 53.1754C13.1914 53.0524 16.2453 52.9112 19.2952 52.7518C19.6611 52.7328 19.7368 52.8385 19.7506 53.191C19.9004 57.1852 20.07 61.1785 20.2327 65.1726C20.2568 65.7634 20.2628 66.3559 20.2947 66.9467C20.305 67.1355 20.243 67.2048 20.058 67.2117ZM86.6141 44.2186C87.1874 44.1961 87.7599 44.1762 88.3316 44.139C88.5347 44.1251 88.5606 44.2256 88.5838 44.3893C88.7241 45.3733 89.0651 45.6774 90.0473 45.6982C90.3914 45.7191 90.7365 45.6837 91.0692 45.5933C91.6977 45.3958 92.0162 45.0476 92.036 44.3806C92.0481 44.0064 92.1893 43.9285 92.5216 43.9354C92.9657 43.9397 93.4097 43.9198 93.8517 43.8756C94.0893 43.854 94.171 43.9042 94.1797 44.1641C94.252 46.3184 93.0157 47.7347 90.8816 47.9166C90.6233 47.9382 90.365 47.9408 90.1756 47.9495C89.6341 47.9495 89.1641 47.9244 88.7035 47.7979C87.0583 47.344 86.435 46.055 86.3291 44.4828C86.3197 44.2498 86.441 44.2256 86.6175 44.2186H86.6141ZM35.9932 60.9983C35.9622 62.2214 35.7496 63.4038 35.1848 64.5004C34.6201 65.5971 33.7067 66.3308 32.5367 66.6929C30.9273 67.1895 29.2239 67.2958 27.5659 67.003C25.6874 66.6833 24.483 65.5668 23.8726 63.7884C23.1839 61.7779 23.1055 59.6929 23.2286 57.5932C23.2683 56.858 23.3981 56.1307 23.6152 55.4276C24.1317 53.7818 25.1932 52.6817 26.8659 52.2226C28.4872 51.7655 30.1917 51.6931 31.8454 52.0112C33.4363 52.3205 34.5624 53.2464 35.1977 54.7511C35.7599 56.0833 35.9502 57.4918 35.9915 58.9263C36.0315 59.6164 36.0317 60.3082 35.9923 60.9983H35.9932ZM51.3947 63.1093C51.1149 64.7109 49.9458 65.7417 48.2094 65.8492C45.9065 65.993 43.6018 66.0865 41.2972 66.2017C40.797 66.2268 40.2951 66.2433 39.7949 66.2883C39.5298 66.3117 39.4583 66.2199 39.4506 65.9574C39.3783 63.9105 39.287 61.8645 39.2061 59.8176C39.1079 57.2952 39.0244 54.7727 38.9082 52.2511C38.8901 51.8726 38.9943 51.818 39.3387 51.8059C41.9162 51.7028 44.492 51.5729 47.0687 51.4594C47.6283 51.4343 48.1878 51.4412 48.7362 51.5712C49.8158 51.831 50.4933 52.4859 50.7266 53.5877C50.9095 54.3912 50.9372 55.2225 50.8084 56.0366C50.6104 57.1956 49.8442 57.782 48.7776 58.0601C48.6123 58.1025 48.4452 58.138 48.28 58.1787C48.2705 58.1787 48.2653 58.2004 48.2558 58.2151C48.527 58.2524 48.7982 58.2463 49.0685 58.2965C50.2738 58.5183 51.0047 59.2321 51.2922 60.411C51.5133 61.2934 51.5482 62.2125 51.3947 63.1093ZM65.4506 65.0791C64.5771 65.0964 63.7035 65.1328 62.83 65.1882C62.5614 65.2056 62.4857 65.1397 62.4857 64.8721C62.4486 63.6463 62.391 62.4206 62.3384 61.1958C62.3195 60.7627 62.2928 60.3382 62.2678 59.8575C61.4508 60.3376 60.5617 60.6811 59.6352 60.8744C58.6915 61.07 57.7188 61.0762 56.7727 60.8926C55.5554 60.6509 54.735 59.9069 54.2477 58.7678C53.8345 57.8019 53.6528 56.7754 53.5814 55.7446C53.4832 54.3344 53.4574 52.919 53.3808 51.5071C53.3644 51.1952 53.4608 51.1242 53.757 51.119C54.5878 51.106 55.4203 51.0731 56.2484 51.0107C56.5687 50.9873 56.6608 51.0549 56.6703 51.3901C56.7039 52.6158 56.7727 53.8398 56.8364 55.0647C56.8635 55.5113 56.9548 55.9516 57.1076 56.3718C57.3857 57.16 57.9134 57.6356 58.7657 57.7361C59.6843 57.8435 60.5736 57.7439 61.4069 57.3506C62.0096 57.0674 62.1568 56.733 62.1258 56.0686C62.0475 54.4107 61.9889 52.7518 61.9132 51.0939C61.902 50.8522 61.9364 50.7214 62.2214 50.7153C63.0384 50.698 63.8571 50.6556 64.6706 50.6226C65.0899 50.5178 65.2586 50.672 65.1984 51.1086C65.1841 51.3061 65.1841 51.5044 65.1984 51.702C65.3275 52.5024 65.2844 53.3131 65.3232 54.1187C65.4704 57.3186 65.5814 60.521 65.7063 63.7226C65.7192 64.0543 65.7304 64.387 65.7657 64.7161C65.7889 64.9656 65.7295 65.073 65.4497 65.0791H65.4506ZM81.1379 64.3255C80.2644 64.3572 79.3911 64.404 78.5182 64.4658C78.247 64.484 78.1532 64.419 78.1428 64.128C78.0783 62.2526 77.9922 60.3789 77.9138 58.5044C77.876 57.6027 77.8398 56.701 77.8028 55.7845C77.6401 55.846 77.6306 55.9924 77.5815 56.0989C76.2118 58.9731 74.6304 61.7294 72.9146 64.4034C72.7717 64.626 72.627 64.7395 72.3395 64.7499C71.4786 64.7664 70.6177 64.8209 69.7628 64.8807C69.5106 64.898 69.409 64.8521 69.3987 64.5697C69.3221 62.3626 69.2265 60.1572 69.1404 57.9509C69.0483 55.5861 68.9682 53.2205 68.8606 50.8565C68.846 50.5326 68.9062 50.4078 69.2575 50.4009C70.0883 50.3844 70.919 50.3333 71.7481 50.2692C72.0554 50.2458 72.1329 50.3489 72.1432 50.6452C72.2293 53.0827 72.3223 55.5194 72.4179 57.957C72.4275 58.4233 72.4794 58.8878 72.5728 59.3447C72.8939 58.8249 73.2237 58.313 73.5353 57.7855C74.9558 55.4025 76.1886 52.9147 77.3818 50.413C77.4369 50.2978 77.5032 50.1878 77.5643 50.0761C77.8889 49.9331 78.2298 50.0016 78.5647 49.9964C78.8006 49.9097 79.0451 49.9288 79.2887 49.9357C79.7191 49.9115 80.1427 49.8959 80.5688 49.8586C80.7703 49.8404 80.8572 49.8907 80.8478 50.1064C80.8357 50.3784 80.8478 50.6504 80.8478 50.9224C80.9339 51.216 80.9149 51.5183 80.9089 51.8189C80.9169 52.2399 80.9253 52.6606 80.9339 53.081C81.0243 53.3772 81.001 53.6813 80.9959 53.9845C81.0062 54.4072 81.0171 54.8296 81.0286 55.2518C81.1543 56.0816 81.1147 56.921 81.1577 57.7551C81.2688 59.8341 81.3299 61.9078 81.4229 63.9833C81.4349 64.2155 81.3936 64.3159 81.137 64.3255H81.1379ZM96.678 63.6091C95.8619 63.6212 95.0423 63.6515 94.2296 63.7122C93.874 63.739 93.7682 63.6438 93.7561 63.2791C93.6769 60.7843 93.5762 58.2905 93.4789 55.7966C93.4694 55.5558 93.4892 55.3098 93.3928 55.0586C92.8134 56.1847 92.2573 57.3012 91.671 58.4005C90.7094 60.2031 89.6505 61.9477 88.5545 63.6697C88.4947 63.7816 88.4047 63.8742 88.2949 63.9368C88.1851 63.9995 88.06 64.0297 87.9338 64.024C87.0884 64.0442 86.2436 64.0792 85.3994 64.1288C85.1411 64.1436 85.0619 64.0855 85.055 63.8083C84.9201 60.1604 84.7766 56.5133 84.6245 52.867C84.5867 51.9298 84.5488 50.9934 84.4885 50.0579C84.4687 49.7634 84.5324 49.6542 84.8458 49.6499C85.6912 49.6377 86.536 49.6031 87.3803 49.5459C87.6902 49.5243 87.7617 49.6222 87.772 49.9167C87.8374 51.7617 87.9209 53.6068 87.9967 55.451C88.0406 56.4974 88.0828 57.5447 88.2024 58.6196C88.4151 58.2896 88.6329 57.963 88.8386 57.6278C90.4037 55.0595 91.7493 52.3742 93.0252 49.6533C93.1595 49.3666 93.3119 49.241 93.6278 49.235C94.4732 49.2176 95.3178 49.1769 96.1623 49.1275C96.4206 49.1119 96.5024 49.1916 96.5118 49.4576C96.622 52.5281 96.7397 55.5988 96.8648 58.6699C96.9242 60.1832 96.9776 61.6973 97.0525 63.2098C97.0576 63.5138 96.9767 63.6039 96.678 63.6091ZM100.304 49.3943C99.7721 49.3017 99.7342 49.604 99.7755 50.0163C99.8194 50.4494 99.8142 50.8825 99.8495 51.3156C99.8676 51.5365 99.7738 51.5755 99.5818 51.5911C99.3898 51.6067 99.3416 51.5261 99.3364 51.3468C99.3218 50.8427 99.2676 50.3385 99.2736 49.8344C99.2736 49.5234 99.1763 49.4359 98.8802 49.4706C98.7312 49.4879 98.4936 49.6014 98.4816 49.2627C98.4695 48.924 98.7132 49.0366 98.8655 49.0149C99.1057 48.9803 99.3511 48.9794 99.5939 48.9638V48.9534C99.8229 48.9534 100.053 48.9647 100.283 48.9534C100.475 48.9413 100.486 49.0513 100.493 49.1942C100.501 49.3372 100.45 49.4203 100.301 49.3943H100.304ZM103.213 51.4161C102.973 51.4274 102.964 51.2922 102.965 51.1199C102.965 50.6348 102.965 50.1497 102.965 49.6646L102.839 49.649C102.708 50.1341 102.574 50.6192 102.448 51.1051C102.406 51.2637 102.383 51.3997 102.164 51.4144C101.946 51.4291 101.876 51.3156 101.82 51.1303C101.662 50.6408 101.483 50.1575 101.312 49.6715L101.242 49.6663C101.269 50.1861 101.292 50.7058 101.329 51.2195C101.341 51.4074 101.306 51.5114 101.09 51.5279C100.874 51.5443 100.862 51.404 100.856 51.2585C100.826 50.5525 100.803 49.8456 100.77 49.1405C100.761 48.9716 100.821 48.8807 100.982 48.9015C101.168 48.924 101.412 48.7447 101.522 49.0747C101.71 49.6308 101.924 50.1791 102.161 50.821C102.333 50.1956 102.499 49.6585 102.61 49.1094C102.685 48.7438 102.932 48.8088 103.164 48.7992C103.46 48.7871 103.367 49.0271 103.375 49.1726C103.412 49.8205 103.425 50.4719 103.461 51.1173C103.46 51.3061 103.432 51.4057 103.21 51.4161H103.213Z" fill="#FBBC2B"/>
<path d="M24.3573 46.2268C27.0864 47.8319 30.0642 48.479 33.1902 48.5249C35.9743 48.5656 38.687 48.0918 41.3687 47.3659C43.3824 46.8236 45.2591 45.9418 47.1574 45.1137C49.6669 44.1938 51.7839 42.5843 54.0291 41.1931C55.9765 39.9865 59.8634 36.577 60.2017 36.1621C59.7618 36.422 59.3796 36.6368 59.006 36.8664C55.1543 39.2381 51.1416 41.265 46.8742 42.7827C42.2993 44.4103 37.6505 45.6481 32.7683 45.8006C31.0181 45.8543 29.2688 45.8214 27.559 45.4004C24.1421 44.5576 21.5758 42.6285 20.1002 39.3524C19.7705 38.6196 19.5794 37.8383 19.3168 37.082L19.1902 37.6927C19.1938 37.7551 19.1807 37.8173 19.1523 37.8729C19.2072 38.3996 19.304 38.921 19.4416 39.4321C20.2078 42.2811 21.7393 44.5818 24.2368 46.1887C24.2782 46.1971 24.3186 46.2099 24.3573 46.2268Z" fill="black"/>
<path d="M61.7431 34.9519C61.5451 35.1408 61.3445 35.327 61.0742 35.5817C61.3876 35.495 61.5477 35.3556 61.7173 35.2352C63.8067 33.747 65.9357 32.3056 67.9709 30.7507C69.6006 29.5068 71.133 28.1321 72.6946 26.799C73.6657 25.9692 74.7134 25.2216 75.5821 24.2792C78.8087 20.7779 82.0228 17.2659 85.2242 13.7433C87.1707 11.5898 89.2446 9.55159 90.9733 7.20152C92.7269 4.81854 94.5296 2.47193 96.3108 0.108867C96.279 0.00318772 96.2067 -0.0176017 96.1102 0.0127162C96.0044 0.108001 95.8933 0.198955 95.7926 0.299437C94.1523 1.93487 92.5134 3.57117 90.876 5.20834C85.6245 10.4542 80.3239 15.6455 75.2644 21.0819C70.8661 25.8124 66.4161 30.49 61.7431 34.9519Z" fill="black"/>
<path d="M56.7434 8.91266C56.5351 9.29207 56.6074 9.64809 56.9156 9.86551C57.2238 10.0829 57.5018 9.99718 57.7472 9.73038C57.8617 9.60478 57.9943 9.49477 58.1182 9.37869C58.21 9.353 58.2944 9.3058 58.3645 9.24096C58.3085 9.31373 58.2543 9.38736 58.2052 9.46618C58.033 9.79621 58.0563 10.0985 58.3507 10.3445C58.6451 10.5905 58.8965 10.4468 59.1496 10.2579C59.4311 10.0448 59.7212 9.84386 60.0105 9.6377C60.0721 9.63294 60.1326 9.61832 60.1896 9.59438C60.156 9.6299 60.1241 9.66715 60.0923 9.70613C59.9924 9.78582 59.8934 9.86811 59.791 9.94521C59.395 10.2467 59.3071 10.5221 59.5138 10.8513C59.7471 11.2212 60.0441 11.1293 60.3704 10.9838C61.9142 10.2949 63.461 9.61258 65.0106 8.93692C65.2861 8.81651 65.522 8.59043 65.85 8.60689C65.7983 8.76714 65.6356 8.78013 65.5185 8.84683C63.919 9.72172 62.3166 10.5923 60.7113 11.4585C60.3876 11.6317 60.1853 11.8578 60.3333 12.2537C60.4814 12.6496 60.744 12.6998 61.1236 12.6002C61.8933 12.3932 62.6733 12.2242 63.4481 12.0397C63.472 12.0499 63.4968 12.058 63.5221 12.064C63.4951 12.0791 63.4723 12.1009 63.4558 12.1272C63.2535 12.1958 63.0478 12.2536 62.8394 12.3005C62.4899 12.3628 62.3005 12.5456 62.3117 12.9068C62.3229 13.268 62.5502 13.3859 62.8635 13.4517C64.0937 13.7072 65.3205 13.9766 66.549 14.2417C66.5768 14.2764 66.6092 14.307 66.6455 14.3326C66.5936 14.3299 66.5417 14.3367 66.4922 14.3526H66.4784C66.4857 14.3622 66.4935 14.3714 66.5017 14.3803C66.3424 14.4045 66.1823 14.4392 66.0377 14.3274L63.0245 14.1542C62.6758 14.3067 62.3117 14.194 61.9553 14.2166C61.592 14.6228 61.6281 14.9736 62.0792 15.2171C63.2845 15.8676 64.5001 16.5077 65.7114 17.1522C65.72 16.9677 65.5581 16.9001 65.4531 16.8057C64.8221 16.2288 64.1841 15.6588 63.5015 15.0438L66.9821 14.4799C66.9924 14.4549 66.9942 14.4272 66.9872 14.4011V14.3924C66.9793 14.3828 66.97 14.3743 66.9597 14.3673H66.9339C66.9459 14.3673 66.958 14.3586 66.9709 14.3526C66.9768 14.3469 66.9823 14.3409 66.9872 14.3344V14.3144C66.9904 14.2892 66.9884 14.2635 66.9812 14.2391L64.0731 12.8661L67.8378 11.0072C67.7138 10.8764 67.5391 11.0141 67.4074 10.9206L67.4168 10.9318C67.1542 11.1917 66.8004 11.1995 66.4698 11.2783C66.3665 11.0904 66.2159 11.1103 66.0334 11.1441C65.664 11.2125 65.2887 11.2541 64.9202 11.1189L62.786 11.2861C62.9324 11.1631 62.9927 11.1085 63.0564 11.0592C64.055 10.2853 65.0537 9.51238 66.0523 8.74029C66.1599 8.65366 66.3106 8.60515 66.3106 8.42758L66.1263 8.41718L65.9895 8.3167C65.8487 8.32834 65.7099 8.35744 65.5762 8.40332C64.3899 8.73162 63.1993 9.0478 62.0104 9.36743L61.9243 9.26349L63.1209 8.16511C63.0641 7.90524 63.3207 7.85674 63.4326 7.71901C63.6265 7.48707 63.839 7.27152 64.0679 7.07453C64.2943 6.87357 64.1299 6.83286 63.9715 6.77569C64.5208 6.34257 65.0416 5.87654 65.6683 5.55604C65.7975 5.5673 65.7493 5.3828 65.8612 5.37673C65.8662 5.34365 65.8605 5.30982 65.845 5.28021C65.8295 5.2506 65.805 5.22675 65.7751 5.21215L60.8499 7.93383L60.812 7.86973L63.0271 4.70108C63.0236 4.67231 63.0236 4.64322 63.0271 4.61445L62.7688 4.7877C62.7421 4.7877 62.7163 4.7877 62.6896 4.7877L62.8756 4.52783L62.7671 4.52177L58.5892 7.51631C59.0196 6.28887 59.4285 5.14805 59.8332 4.00723L59.5852 3.83398C59.234 4.45334 58.8801 5.07095 58.5323 5.69204C57.9375 6.76529 57.3348 7.83681 56.7434 8.91266Z" fill="black"/>
<path d="M63.0285 4.6157C63.018 4.6065 63.0056 4.59968 62.9922 4.5957L63.0285 4.6157Z" fill="black"/>
<path d="M63.197 18.815C63.0575 18.7561 62.9895 18.5941 62.8319 18.5603C62.7459 18.433 62.6667 18.29 62.4824 18.284C62.3894 18.0899 62.2112 17.9695 62.0726 17.8145C62.0234 17.7934 61.971 17.7805 61.9177 17.7764C61.7179 17.6594 61.5174 17.6213 61.3262 17.7894C61.1351 17.9574 61.1213 18.1358 61.1541 18.3749C61.247 18.97 61.3038 19.5712 61.3874 20.1689C61.4149 20.3603 61.3443 20.4106 61.1695 20.44C60.9285 20.4807 60.6676 20.401 60.3672 20.5613C60.9199 20.8333 61.4046 21.0931 61.9065 21.3132C62.1914 21.4379 62.4411 21.2222 62.423 20.8956C62.4067 20.5431 62.2638 20.2278 62.0976 19.9263C61.866 19.5088 61.6181 19.1 61.3495 18.6391L63.6868 19.3156C63.7075 19.1926 63.6317 19.1424 63.5844 19.0705C63.4242 19.0315 63.2744 18.9778 63.197 18.815Z" fill="black"/>
<path d="M65.2373 17.1274C64.0997 16.8144 62.9639 16.4968 61.8298 16.1746C61.5673 16.0992 61.346 16.1139 61.1988 16.3686C61.0516 16.6233 61.0843 16.8537 61.3107 17.0616C61.5371 17.2695 61.7653 17.4947 61.9917 17.7147C62.0175 17.7522 62.0462 17.7876 62.0778 17.8204C62.2164 17.9754 62.3946 18.0958 62.4876 18.2899C62.6718 18.2959 62.7458 18.4389 62.8371 18.5662C62.9946 18.6 63.0626 18.762 63.2021 18.8209C63.2804 18.9837 63.4294 19.0374 63.5895 19.0729L62.5022 17.2045L65.7736 17.3388L65.7796 17.1655C65.7562 17.163 65.7324 17.1654 65.7099 17.1724L65.7202 17.1655L65.7099 17.1595C65.7095 17.1635 65.7095 17.1676 65.7099 17.1716C65.5463 17.2781 65.3897 17.169 65.2373 17.1274Z" fill="black"/>
<path d="M61.0787 22.8604C61.275 22.6871 61.2509 22.481 61.1829 22.267C61.0012 21.6737 60.6371 21.1825 60.2678 20.668C60.219 20.9892 60.2034 21.3146 60.2213 21.639C60.2316 21.8417 60.2049 21.9422 59.963 21.9569C59.622 21.9895 59.2831 22.0418 58.948 22.1137C58.9067 22.1215 58.824 22.0479 58.8232 22.1951C58.8232 22.9583 58.6191 23.0362 57.9545 23.4182C57.939 23.4988 57.9545 23.5638 58.0406 23.5915C58.218 23.6781 58.3927 23.7717 58.5752 23.8513C58.8197 23.9536 59.0789 24.0246 59.2958 23.8106C59.5128 23.5967 59.4602 23.329 59.3655 23.083C59.2648 22.8231 59.1297 22.5789 58.9867 22.2783C59.5265 22.4957 60.0258 22.6906 60.52 22.8976C60.7189 22.9756 60.8997 23.0163 61.0787 22.8604Z" fill="black"/>
<path d="M0.115361 68.9893C0.122822 61.9735 0.122822 54.9571 0.115361 47.9401C0.115361 47.759 0.179067 47.5624 0.0352969 47.4004C0.025827 47.5 0.00688719 47.5996 0.00688719 47.6992C0.00860899 54.867 0.00631326 62.033 0 69.1972C0 69.5992 0.167014 69.6199 0.460581 69.5619C0.147214 69.4917 0.1145 69.2778 0.115361 68.9893Z" fill="#FAB71C"/>
<path d="M64.0723 7.08099C63.8434 7.27798 63.6309 7.49353 63.4369 7.72547C63.325 7.8632 63.0685 7.9117 63.1253 8.17157C63.9426 7.37753 64.7596 6.58349 65.5763 5.78945C65.608 5.76116 65.6332 5.72612 65.6498 5.68688C65.6665 5.64763 65.6743 5.60515 65.6727 5.5625C65.046 5.883 64.5251 6.3525 63.9759 6.78215C64.1377 6.84278 64.2987 6.88003 64.0723 7.08099Z" fill="black"/>
<path d="M57.7892 6.29552L59.5187 3.66913C59.5275 3.65388 59.5322 3.63654 59.5322 3.61889C59.5322 3.60123 59.5275 3.58389 59.5187 3.56864C59.5125 3.56346 59.5053 3.55958 59.4975 3.55724C59.4898 3.55491 59.4817 3.55416 59.4736 3.55505C59.4656 3.55594 59.4578 3.55845 59.4508 3.56242C59.4437 3.56639 59.4376 3.57175 59.4326 3.57817C58.8541 4.38665 58.275 5.19368 57.6953 5.99927C57.8348 6.06251 57.8391 6.16905 57.7892 6.29552Z" fill="black"/>
<path d="M66.0355 11.1506C66.218 11.1168 66.3687 11.0969 66.472 11.2849C66.7991 11.2052 67.1529 11.1982 67.4189 10.9384C66.9257 10.9037 66.4435 11.0129 65.9554 11.0414C65.8099 11.1618 65.6395 11.0986 65.4785 11.1064L64.9258 11.1263C65.2908 11.2606 65.6662 11.219 66.0355 11.1506Z" fill="black"/>
<path d="M19.3169 37.0824L19.0431 35.8029L18.957 35.7969C18.9771 36.4934 19.0426 37.1879 19.1533 37.8758L19.1912 37.6956L19.3169 37.0824Z" fill="black"/>
<path d="M60.2922 2.62695H60.1941L59.8385 3.14669C59.7404 3.34419 59.5914 3.52003 59.588 3.75305C59.5852 3.78185 59.5852 3.81086 59.588 3.83967L59.8359 4.01291C59.9892 3.55122 60.2406 3.1181 60.2922 2.62695Z" fill="black"/>
<path d="M62.8746 4.5326L62.9899 4.5941C63.0036 4.59823 63.0163 4.60533 63.0269 4.61489C63.0234 4.64365 63.0234 4.67274 63.0269 4.70151C63.2322 4.47283 63.4036 4.2155 63.5357 3.9375L62.7695 4.52653L62.878 4.5326H62.8746Z" fill="black"/>
<path d="M86.3088 69.1947C86.3088 69.2129 86.3088 69.2181 86.3088 69.219C86.3114 69.2236 86.3134 69.2286 86.3148 69.2337C86.3295 69.2718 86.345 69.212 86.3665 69.2094C86.3579 68.8705 86.3495 68.5318 86.3415 68.1934C86.2735 68.5269 86.3234 68.863 86.3088 69.1947Z" fill="black"/>
<path d="M64.6953 69.2455L65.6018 69.2359C65.3052 69.15 64.9901 69.1533 64.6953 69.2455Z" fill="black"/>
<path d="M34.1172 39.2454C34.4843 39.3168 34.8615 39.3168 35.2286 39.2454C34.8592 39.2047 34.4866 39.2047 34.1172 39.2454Z" fill="black"/>
<path d="M8.94467 76.9779C8.98858 77.2898 8.87925 77.4552 8.55469 77.4535C8.89905 77.5453 9.05229 77.4379 8.98514 77.0637C8.96873 76.9089 8.96183 76.7533 8.96448 76.5977C8.92415 76.7203 8.91731 76.8517 8.94467 76.9779Z" fill="black"/>
<path d="M35.6641 39.1452C35.8672 39.0794 36.0893 39.0586 36.2529 38.8594L35.7476 38.9295C35.7984 39.0318 35.7114 39.0811 35.6641 39.1452Z" fill="black"/>
<path d="M63.0263 14.1574C62.6707 14.186 62.3014 13.9919 61.957 14.2198C62.3134 14.1972 62.6742 14.3098 63.0263 14.1574Z" fill="black"/>
<path d="M62.8571 68.9707L61.9102 68.9854C62.2287 69.0235 62.5438 69.0513 62.8571 68.9707Z" fill="black"/>
<path d="M66.1431 5.2168L66.1289 5.2268C66.1339 5.2268 66.1381 5.22346 66.1431 5.2168Z" fill="black"/>
<path d="M65.866 5.38332C66.0038 5.41624 66.0778 5.34174 66.1295 5.2274C66.1295 5.19882 66.1295 5.17023 66.1295 5.14078C65.9865 5.04636 65.8781 5.11393 65.7773 5.21787C65.8079 5.23211 65.8331 5.25592 65.8491 5.28575C65.865 5.31557 65.871 5.34981 65.866 5.38332Z" fill="black"/>
<path d="M92.1874 68.8826C92.1934 68.576 92.2115 68.2685 92.1211 67.9688C92.2149 68.2685 92.1064 68.5829 92.1874 68.8826Z" fill="black"/>
<path d="M91.7009 69.4062C91.6966 69.7129 91.6734 70.0213 91.7681 70.3201C91.6734 70.0204 91.7836 69.706 91.7009 69.4062Z" fill="black"/>
<path d="M59.3281 69.5783L60.189 69.5636C59.898 69.5238 59.6122 69.4969 59.3281 69.5783Z" fill="black"/>
<path d="M76.8773 68.207H76.1094C76.3633 68.2534 76.6234 68.2534 76.8773 68.207Z" fill="black"/>
<path d="M67.8406 11.0078L68.0446 10.9211C67.8225 10.8553 67.6142 10.8302 67.4102 10.9298C67.541 11.0147 67.7158 10.877 67.8406 11.0078Z" fill="black"/>
<path d="M66.1352 8.42387L66.3194 8.43427L66.4718 8.33985C66.4718 8.30607 66.4718 8.27315 66.4718 8.24023C66.3142 8.26449 66.1395 8.19432 66 8.32686L66.1352 8.42387Z" fill="black"/>
<path d="M66.7959 8.09288C66.7329 8.07909 66.6671 8.08595 66.6083 8.11244C66.5494 8.13894 66.5005 8.18369 66.4688 8.24014C66.4688 8.27306 66.4688 8.30597 66.4688 8.33976C66.647 8.35275 66.727 8.24014 66.7959 8.09288Z" fill="#4A4A4A"/>
<path d="M60.3991 2.27539C60.3001 2.38887 60.1744 2.45816 60.1933 2.62621H60.2915C60.3715 2.53612 60.4964 2.46163 60.3991 2.27539Z" fill="black"/>
<path d="M65.6068 68.7285H64.9258C65.1505 68.7744 65.3821 68.7744 65.6068 68.7285Z" fill="black"/>
<path d="M66.9865 14.315V14.4016C66.9934 14.4277 66.9916 14.4554 66.9813 14.4804C67.0674 14.4969 67.1836 14.4969 67.1957 14.4154C67.2155 14.2812 67.0743 14.2742 66.9805 14.2422C66.9873 14.2658 66.9893 14.2905 66.9865 14.315Z" fill="black"/>
<path d="M18.9333 35.3789C18.8584 35.5522 18.8558 35.6804 18.9574 35.7973L19.0435 35.8034C19.0108 35.6743 18.9763 35.5444 18.9333 35.3789Z" fill="black"/>
<path d="M91.6842 67.5977C91.5473 67.7822 91.6308 67.9684 91.6791 68.1546C91.6343 67.9684 91.6067 67.7822 91.6842 67.5977Z" fill="black"/>
<path d="M65.7734 17.3383C65.8483 17.334 65.9671 17.4111 65.9809 17.2915C65.9827 17.2669 65.9779 17.2423 65.967 17.2202C65.956 17.1982 65.9393 17.1795 65.9187 17.1662C65.898 17.1529 65.8742 17.1454 65.8497 17.1446C65.8252 17.1438 65.8009 17.1497 65.7795 17.1616L65.7734 17.3383Z" fill="#737373"/>
<path d="M65.9535 11.0393C65.7916 11.0141 65.626 11.0367 65.4766 11.1043C65.6376 11.0965 65.808 11.1597 65.9535 11.0393Z" fill="black"/>
<path d="M57.9564 23.418C57.7843 23.5271 57.8704 23.651 57.9366 23.774C57.9005 23.6874 57.9435 23.6674 58.0227 23.6804C58.0305 23.6501 58.0382 23.6198 58.0468 23.5895C57.9547 23.56 57.9401 23.4985 57.9564 23.418Z" fill="black"/>
<path d="M66.1431 5.21671C66.1809 5.19483 66.2131 5.16457 66.2374 5.12824C66.2617 5.09191 66.2775 5.05047 66.2835 5.00708C66.2606 4.98405 66.2297 4.97098 66.1974 4.9707C66.1053 4.99496 66.1629 5.08678 66.1328 5.14395C66.1328 5.17253 66.1328 5.20112 66.1328 5.23057L66.1431 5.21671Z" fill="black"/>
<path d="M66.5031 14.3851C66.4949 14.3762 66.4871 14.367 66.4798 14.3574C66.4712 14.347 66.4618 14.3374 66.4532 14.3262L66.0391 14.3322C66.1837 14.444 66.3438 14.4093 66.5031 14.3851Z" fill="black"/>
<path d="M49.0648 58.2901C48.7945 58.2398 48.5233 58.2459 48.2521 58.2087C48.2616 58.1939 48.2667 58.1749 48.2762 58.1723C48.4415 58.1316 48.6085 58.0961 48.7738 58.0536C49.8405 57.7756 50.6067 57.1874 50.8047 56.0301C50.9335 55.2161 50.9057 54.3848 50.7229 53.5813C50.4896 52.4795 49.8121 51.8203 48.7325 51.5647C48.1832 51.4348 47.6245 51.4279 47.0649 51.453C44.4883 51.5699 41.9124 51.6998 39.3349 51.7995C38.9906 51.8133 38.8855 51.8662 38.9045 52.2447C39.0207 54.7663 39.1042 57.2887 39.2023 59.8112C39.2833 61.8581 39.3745 63.9041 39.4468 65.951C39.4563 66.2109 39.5278 66.3053 39.7912 66.2819C40.2914 66.2394 40.7933 66.223 41.2935 66.1953C43.5981 66.0801 45.9027 65.9865 48.2056 65.8427C49.9438 65.7353 51.1129 64.7045 51.391 63.1028C51.5444 62.2039 51.5087 61.2826 51.2859 60.3985C51.001 59.2256 50.2666 58.5118 49.0648 58.2901ZM42.3679 56.9041C42.3911 56.5464 42.373 56.1852 42.373 55.8257H42.2869C42.2869 55.4515 42.299 55.0764 42.2818 54.6996C42.2723 54.4848 42.3214 54.3955 42.5555 54.3869C43.8417 54.3392 45.127 54.2595 46.4141 54.2275C47.0744 54.211 47.3766 54.522 47.4532 55.1803C47.4678 55.3085 47.479 55.4402 47.4885 55.5675C47.566 56.6191 47.1708 57.0626 46.1334 57.1077C45.0039 57.1579 43.8753 57.2073 42.7475 57.2809C42.441 57.3035 42.3481 57.2064 42.3679 56.9093V56.9041ZM47.9809 62.1933C47.8552 62.7702 47.5634 63.0691 46.9874 63.1704C46.2497 63.2995 45.4981 63.2051 44.9006 63.2951C44.1439 63.3341 43.5284 63.3549 42.9145 63.4034C42.6743 63.4216 42.6313 63.3315 42.6235 63.1158C42.5908 62.1214 42.5469 61.1278 42.4918 60.1351C42.4798 59.9091 42.5676 59.8753 42.7578 59.8684C44.0027 59.8172 45.2467 59.7428 46.4924 59.7029C47.3533 59.6761 47.8285 60.0979 47.962 60.9485C48.0274 61.3643 48.073 61.7766 47.9809 62.1933Z" fill="black"/>
<path d="M96.8566 58.6716C96.7384 55.6011 96.6219 52.5309 96.5071 49.461C96.4976 49.195 96.421 49.1145 96.1575 49.1309C95.313 49.1803 94.4685 49.2176 93.6231 49.2384C93.3054 49.2444 93.153 49.37 93.0204 49.6567C91.7446 52.3776 90.399 55.0629 88.8339 57.6312C88.6298 57.9664 88.4103 58.293 88.1977 58.623C88.0763 57.5481 88.0358 56.5008 87.9919 55.4544C87.9162 53.6102 87.8326 51.7651 87.7672 49.9201C87.7569 49.6256 87.6854 49.5277 87.3755 49.5493C86.5318 49.6071 85.687 49.6417 84.841 49.6533C84.5277 49.6533 84.464 49.7668 84.4838 50.0613C84.544 50.9968 84.5819 51.9332 84.6198 52.8704C84.7678 56.5173 84.9113 60.1644 85.0502 63.8117C85.0606 64.0889 85.1432 64.147 85.3946 64.1322C86.2383 64.0837 87.0831 64.0488 87.9291 64.0274C88.0552 64.0331 88.1803 64.0029 88.2901 63.9403C88.4 63.8776 88.4899 63.785 88.5498 63.6731C89.6457 61.9511 90.702 60.2082 91.6662 58.4039C92.2534 57.3047 92.8095 56.1881 93.388 55.062C93.4853 55.3132 93.4655 55.5592 93.4741 55.8C93.5714 58.2939 93.6721 60.7877 93.7513 63.2825C93.7634 63.6463 93.8693 63.7416 94.2248 63.7156C95.0392 63.655 95.8605 63.629 96.6732 63.6125C96.9754 63.6073 97.0563 63.5172 97.0417 63.214C96.9694 61.699 96.916 60.1849 96.8566 58.6716Z" fill="black"/>
<path d="M81.161 57.7543C81.1163 56.9201 81.161 56.0807 81.0319 55.2509V56.0131C80.9269 56.0478 80.9346 55.9906 80.9337 55.9638C80.9019 54.8134 80.9071 53.6605 80.8304 52.5136C80.7814 51.7799 80.753 51.0488 80.7607 50.316C80.7607 50.0189 80.6014 49.992 80.3759 50.0015C79.492 50.0385 78.6076 50.0731 77.7226 50.1055C77.6693 50.1012 77.6167 50.0904 77.5659 50.0734C77.5048 50.1852 77.4385 50.2952 77.3834 50.4104C76.1867 52.9146 74.9574 55.4025 73.5378 57.7889C73.2261 58.313 72.8964 58.8284 72.5753 59.3481C72.4806 58.8876 72.4281 58.4193 72.4186 57.9492C72.323 55.5116 72.2266 53.0749 72.144 50.6373C72.1336 50.3411 72.0579 50.238 71.7488 50.2614C70.9198 50.3255 70.089 50.3766 69.2582 50.3931C68.907 50.4 68.8467 50.5247 68.8614 50.8487C68.9647 53.2126 69.049 55.5783 69.1411 57.9431C69.2272 60.1494 69.3228 62.3548 69.3994 64.5619C69.4097 64.8443 69.5113 64.8902 69.7636 64.8729C70.6245 64.8131 71.4811 64.7585 72.3402 64.7421C72.6278 64.736 72.7707 64.6226 72.9153 64.3956C74.6311 61.7181 76.2126 58.9652 77.5823 56.0911C77.6331 55.9846 77.6408 55.8382 77.8035 55.7767C77.8405 56.6931 77.8767 57.5957 77.9146 58.4966C77.9929 60.3711 78.079 62.2448 78.1436 64.1201C78.1539 64.4112 78.2477 64.4762 78.5189 64.458C79.3907 64.3973 80.264 64.3506 81.1386 64.3176C81.3969 64.3081 81.4365 64.2076 81.4262 63.9712C81.3341 61.9069 81.2695 59.8289 81.161 57.7543Z" fill="black"/>
<path d="M35.9908 58.9282C35.9495 57.4937 35.7593 56.0852 35.1971 54.753C34.5617 53.2483 33.4357 52.3223 31.8447 52.0131C30.191 51.695 28.4865 51.7674 26.8653 52.2244C25.1926 52.6827 24.1319 53.7837 23.6145 55.4295C23.3975 56.1325 23.2676 56.8599 23.228 57.595C23.1049 59.6948 23.1824 61.7798 23.872 63.7903C24.4823 65.5687 25.6867 66.6852 27.5652 67.0049C29.2233 67.2977 30.9266 67.1914 32.536 66.6947C33.706 66.3327 34.6134 65.6111 35.1842 64.5023C35.7549 63.3936 35.959 62.2233 35.9926 61.0002C35.8738 60.3147 35.8733 59.6138 35.9908 58.9282ZM32.4904 62.3576C32.2855 63.3762 31.707 64.0034 30.6825 64.168C30.0308 64.2719 29.38 64.3256 28.7154 64.2295C27.8743 64.1065 27.3431 63.65 27.0538 62.8617C26.7775 62.1089 26.7 61.3224 26.632 60.5324C26.6096 60.2726 26.644 60.0127 26.558 59.7615C26.5468 59.9027 26.5364 60.0439 26.5252 60.1851H26.4848V57.2997C26.595 57.3984 26.5115 57.5353 26.5528 57.6462C26.6044 57.3196 26.6458 56.9922 26.7086 56.6682C26.9402 55.4676 27.4834 54.9314 28.674 54.7867C29.2845 54.6972 29.9038 54.6855 30.5172 54.7521C31.305 54.856 31.8422 55.2493 32.1349 55.9847C32.4792 56.8406 32.5524 57.7466 32.6041 58.6527C32.6721 59.8879 32.7375 61.1266 32.4904 62.3576Z" fill="black"/>
<path d="M20.2329 65.171C20.0702 61.1769 19.9006 57.1836 19.7508 53.1894C19.7371 52.8334 19.6647 52.7312 19.2954 52.7502C16.2455 52.9085 13.1951 53.0514 10.144 53.179C9.76698 53.1946 9.67572 53.296 9.67314 53.6684C9.66022 56.2974 9.4295 58.91 9.08859 61.5156C8.81156 63.6193 8.42999 65.7078 7.94531 67.7732C8.97839 67.7264 9.9469 67.6658 10.9197 67.645C11.2916 67.6372 11.413 67.4839 11.4922 67.1356C12.2745 63.6619 12.751 60.1256 12.9161 56.5677C12.9359 56.1623 13.0883 56.0982 13.4163 56.0878C14.334 56.0601 15.2509 56.028 16.1712 55.97C16.482 55.9509 16.5844 56.0211 16.5965 56.3537C16.6877 58.9204 16.8022 61.487 16.9073 64.0536C16.9477 65.0333 16.9813 66.0147 17.0201 66.9988C17.0269 67.1651 16.9959 67.3513 17.2783 67.3366C18.209 67.2872 19.1404 67.25 20.0711 67.2153C20.2527 67.2084 20.3147 67.1391 20.3044 66.9477C20.2656 66.3526 20.2596 65.7618 20.2329 65.171Z" fill="black"/>
<path d="M65.7031 63.7228C65.5774 60.5177 65.4672 57.3187 65.32 54.1189C65.283 53.3133 65.32 52.5025 65.1952 51.7021V52.4748H65.0927C65.0927 52.0634 65.0635 51.6484 65.1013 51.2404C65.1358 50.8784 65.0221 50.6783 64.6666 50.6211C63.8504 50.654 63.0309 50.6965 62.2173 50.7138C61.9324 50.7198 61.8979 50.8506 61.9091 51.0923C61.9849 52.7503 62.0434 54.4091 62.1218 56.0671C62.1528 56.7314 62.0047 57.0658 61.4029 57.3491C60.5661 57.7423 59.6811 57.8419 58.7617 57.7345C57.9094 57.6341 57.3842 57.1585 57.1036 56.3702C56.9508 55.95 56.8594 55.5097 56.8324 55.0631C56.7687 53.8383 56.6998 52.6143 56.6662 51.3886C56.6568 51.0533 56.5647 50.9858 56.2444 51.0092C55.4162 51.0715 54.5837 51.1044 53.753 51.1174C53.4568 51.1226 53.3604 51.1937 53.3767 51.5055C53.4534 52.9175 53.4792 54.3329 53.5773 55.7431C53.6488 56.7826 53.8304 57.8004 54.2437 58.7662C54.7309 59.9053 55.5514 60.6494 56.7687 60.8911C57.7147 61.0747 58.6875 61.0685 59.6312 60.8729C60.5577 60.6793 61.4468 60.3355 62.2638 59.8551C62.2888 60.3358 62.3155 60.7637 62.3344 61.1934C62.3869 62.4182 62.4446 63.6439 62.4816 64.8696C62.4894 65.1373 62.5608 65.2031 62.826 65.1858C63.6984 65.1281 64.5719 65.0917 65.4466 65.0767C65.7263 65.0706 65.7857 64.9667 65.7591 64.7137C65.7272 64.3871 65.716 64.0545 65.7031 63.7228Z" fill="black"/>
<path d="M88.7122 47.7998C89.1728 47.9263 89.6428 47.9523 90.1843 47.9514C90.3746 47.9427 90.6329 47.9401 90.8903 47.9185C93.0244 47.7366 94.2607 46.3203 94.1884 44.166C94.1798 43.9061 94.1023 43.8559 93.8604 43.8775C93.4184 43.9217 92.9744 43.9417 92.5303 43.9373C92.198 43.9304 92.0568 44.0083 92.0447 44.3826C92.0241 45.0478 91.7064 45.396 91.078 45.5953C90.7452 45.6856 90.4001 45.721 90.0561 45.7001C89.0703 45.6793 88.7294 45.3753 88.5925 44.3912C88.5693 44.224 88.5435 44.127 88.3403 44.1409C87.7686 44.1781 87.1961 44.1981 86.6228 44.2206C86.4506 44.2275 86.3249 44.2518 86.3413 44.4865C86.4437 46.057 87.067 47.3459 88.7122 47.7998Z" fill="black"/>
<path d="M103.364 49.1707C103.356 49.0251 103.45 48.7852 103.153 48.7973C102.921 48.8068 102.674 48.7419 102.599 49.1074C102.488 49.6566 102.318 50.1937 102.15 50.8191C101.913 50.1772 101.699 49.6289 101.511 49.0728C101.4 48.7445 101.157 48.9238 100.97 48.8995C100.809 48.8796 100.75 48.9697 100.759 49.1386C100.794 49.8437 100.816 50.5506 100.845 51.2565C100.851 51.4021 100.853 51.5433 101.079 51.5259C101.304 51.5086 101.33 51.4055 101.317 51.2176C101.282 50.6978 101.26 50.1824 101.231 49.6644L101.301 49.6696C101.473 50.1556 101.651 50.6389 101.809 51.1283C101.868 51.3137 101.928 51.428 102.153 51.4125C102.379 51.3969 102.395 51.2617 102.437 51.1032C102.563 50.6173 102.695 50.1322 102.828 49.6471L102.954 49.6627C102.954 50.1478 102.954 50.6329 102.954 51.1179C102.954 51.2912 102.962 51.4254 103.202 51.4142C103.424 51.4038 103.452 51.3042 103.442 51.1136C103.414 50.4674 103.401 49.8186 103.364 49.1707Z" fill="black"/>
<path d="M100.278 48.9463C100.05 48.961 99.8199 48.9463 99.5892 48.9463V48.9567C99.3464 48.9723 99.1011 48.9731 98.8609 49.0078C98.7085 49.0294 98.4657 48.9212 98.4769 49.2555C98.4881 49.5899 98.7266 49.4807 98.8755 49.4634C99.1717 49.4288 99.2724 49.5163 99.269 49.8272C99.2629 50.3314 99.3172 50.8355 99.3318 51.3397C99.337 51.519 99.3817 51.5943 99.5772 51.5839C99.7726 51.5735 99.863 51.5294 99.8449 51.3085C99.8096 50.8754 99.8148 50.4423 99.7709 50.0091C99.7295 49.5968 99.7709 49.2945 100.299 49.3872C100.448 49.4132 100.496 49.3214 100.488 49.1793C100.48 49.0372 100.47 48.9342 100.278 48.9463Z" fill="black"/>
<path d="M80.3747 50.0016C80.6002 49.9921 80.7621 50.0189 80.7595 50.316C80.7517 51.0489 80.7801 51.78 80.8292 52.5137C80.9058 53.6605 80.9007 54.8135 80.9325 55.9638C80.9325 55.9907 80.9256 56.0505 81.0307 56.0132V55.2509C81.0198 54.8282 81.0089 54.4058 80.998 53.9836C80.8542 53.6909 80.9549 53.3773 80.936 53.0802C80.9274 52.6592 80.919 52.2385 80.911 51.8181C80.769 51.527 80.8671 51.2195 80.8499 50.9207C80.8499 50.6487 80.8361 50.3767 80.8499 50.1047C80.8593 49.889 80.7724 49.8388 80.5709 49.8569C80.1405 49.8942 79.7178 49.9098 79.2908 49.934C79.0592 50.0692 78.8087 49.9799 78.5668 49.9947C78.2319 49.9999 77.891 49.9314 77.5664 50.0744C77.6172 50.0913 77.6698 50.1021 77.7231 50.1064C78.6064 50.0729 79.4902 50.038 80.3747 50.0016Z" fill="black"/>
<path d="M65.1019 51.2427C65.064 51.6507 65.0933 52.0656 65.0933 52.477H65.1957V51.7044C65.1815 51.5068 65.1815 51.3085 65.1957 51.111C65.256 50.6779 65.0872 50.5202 64.668 50.625C65.0227 50.6805 65.1363 50.8806 65.1019 51.2427Z" fill="black"/>
<path d="M35.9946 60.9991C36.0342 60.3099 36.0342 59.6189 35.9946 58.9297C35.8768 59.6144 35.8768 60.3144 35.9946 60.9991Z" fill="black"/>
<path d="M80.9103 51.8184C80.9163 51.5178 80.9344 51.2121 80.8492 50.9219C80.8664 51.2199 80.7683 51.5274 80.9103 51.8184Z" fill="black"/>
<path d="M80.9968 53.9836C81.0019 53.6804 81.0252 53.3772 80.9348 53.0801C80.9537 53.3815 80.853 53.6908 80.9968 53.9836Z" fill="black"/>
<path d="M79.2904 49.9342C79.0468 49.9273 78.8023 49.9091 78.5664 49.9949C78.8092 49.981 79.0597 50.0676 79.2904 49.9342Z" fill="black"/>
<path d="M32.0252 23.5262C32.1974 23.5946 32.3988 23.6994 32.5417 23.5842C32.664 23.4803 32.5297 23.2906 32.491 23.1416C32.3369 22.5569 32.3369 22.5569 32.8999 22.2753C33.3803 22.0371 33.5387 21.4446 33.2554 20.9431C32.9403 20.3844 33.066 19.8534 33.6222 19.5649C34.2291 19.2505 34.9023 19.1223 35.5256 19.4185C36.7223 19.9859 37.881 20.6312 39.0941 21.2679L38.7316 21.4039C39.0364 21.5269 38.6834 21.5174 38.6843 21.6023C38.6843 22.1012 38.6274 22.601 38.7247 23.0965C38.7342 23.1433 38.8022 23.178 38.8435 23.2178C39.0656 23.1667 39.2886 23.1173 39.5099 23.0636C41.242 22.6409 42.9991 22.2935 44.6374 21.5598C47.5317 20.2605 49.826 18.1911 51.7303 15.6964C52.7729 14.3347 53.6338 12.8292 54.561 11.3791C55.644 9.68909 56.7132 7.99129 57.7902 6.29608C57.8401 6.16962 57.8358 6.06134 57.6921 5.99983C55.8222 8.57859 53.9334 11.1435 52.0902 13.7422C50.9228 15.388 49.5144 16.7739 47.9131 18.0127C47.8666 17.887 47.827 17.7944 47.7986 17.6991C47.5223 16.8251 47.3294 15.9121 46.9549 15.0839C45.8228 12.5814 44.0942 10.5553 41.8593 8.97445C41.6923 8.87079 41.5696 8.7084 41.5149 8.51882C41.1705 7.28272 40.4284 6.29782 39.5348 5.4082C39.8792 6.43295 40.5102 7.34768 40.753 8.4166C40.2855 8.4859 39.8844 8.26242 39.3859 8.34731C39.8465 8.52575 40.2322 8.67994 40.6221 8.82373C40.7101 8.84805 40.788 8.89982 40.8448 8.97159C40.9016 9.04336 40.9343 9.13141 40.9381 9.22306C40.9915 9.69342 41.081 10.1586 41.1559 10.6255L41.1895 10.4574H41.2256V12.8829C41.23 12.8943 41.23 12.9069 41.2256 12.9184V13.1782C41.1318 13.1115 41.1955 12.9963 41.1576 12.9088C41.0758 13.4624 41.007 14.0176 40.9097 14.5685C40.5361 16.6778 39.7905 18.6718 39.0364 20.7118C38.5749 20.2787 38.154 19.8698 37.7235 19.474C37.1527 18.9482 36.5492 18.4622 35.8459 18.1253C34.5545 17.5059 33.3398 17.7285 32.2301 18.5627C31.6008 19.0357 31.197 20.3177 31.451 20.9379C31.4946 21.0298 31.5141 21.1313 31.5076 21.2329C31.5011 21.3345 31.4689 21.4328 31.414 21.5183C30.9629 22.3654 31.2306 23.2065 32.0252 23.5262ZM40.5085 20.7837C40.9395 19.2366 41.3726 17.6898 41.8076 16.1433C41.9996 15.4607 42.0504 14.7574 42.0986 14.0549C41.9841 13.2235 41.9841 12.3802 42.0986 11.5489C42.0779 10.8862 41.9367 10.24 41.8179 9.52624C42.7787 10.1828 43.5303 10.9737 44.213 11.8399C45.6438 13.6529 46.4926 15.7284 47.0281 17.9633C47.1417 18.4388 47.0453 18.6476 46.6545 18.9023C44.9068 20.0448 42.969 20.6347 40.9407 20.9812L40.5171 21.0566C40.425 20.9708 40.487 20.8755 40.5111 20.7837H40.5085Z" fill="black"/>
<path d="M57.9398 23.7737C58.0104 24.8201 58.1206 25.1216 56.8568 25.2316C56.8145 25.2379 56.773 25.2487 56.7328 25.2636C56.5322 25.3295 56.3558 25.4369 56.3179 25.6586C56.2034 26.3265 55.7626 26.776 55.3218 27.2325C54.6641 27.9134 53.9332 28.5319 53.4606 29.373C53.1532 29.923 52.6754 30.2314 52.0607 30.3258C51.3014 30.4402 50.7031 30.8291 50.2064 31.4C49.9033 31.7464 49.4376 31.8209 49.0725 32.0661C49.0398 32.0828 49.0017 32.0858 48.9667 32.0744C48.9318 32.0631 48.9026 32.0383 48.8857 32.0055C48.6059 31.6113 48.1695 31.5723 47.7666 31.5871C46.9857 31.6174 46.3891 31.2986 45.8631 30.7624C45.5794 30.4537 45.2166 30.2298 44.8145 30.1153C44.4039 30.0097 43.9657 30.1561 43.8899 30.5259C43.7178 31.3454 43.2813 32.1007 43.3252 32.9722C43.1272 32.9392 42.949 32.7747 42.7449 32.8725C42.5409 32.9704 42.5926 33.2242 42.4781 33.4867C42.0803 31.6373 41.2504 30.0599 40.4291 28.4764C40.4851 29.0404 40.5651 29.5947 40.6702 30.1439C40.8329 30.9859 40.8596 31.8764 41.3744 32.6075C42.3558 34.0021 43.2348 35.4704 44.2928 36.8095C44.8671 37.5372 45.4852 38.2301 46.1162 38.9751C45.8244 38.9318 45.5842 38.7438 45.3638 38.8764C44.942 39.1302 44.6484 38.9145 44.3307 38.6789C44.013 38.4432 43.6807 38.2076 43.3441 37.9911C43.0859 37.8256 42.7966 37.7234 42.4832 37.8014C42.1578 37.8828 41.9348 37.7962 41.7713 37.4921C41.6507 37.2669 41.4269 37.0417 41.1841 37.1933C40.7192 37.4843 40.5565 37.1404 40.3422 36.8754C39.4356 35.7493 38.7418 34.4976 38.0797 33.2216C38.0152 33.0978 37.9936 32.9332 37.75 32.8206C38.2192 33.9969 38.3483 35.2053 39.0715 36.1988C39.4012 36.6493 39.6741 37.143 39.9771 37.6117C40.0701 37.7546 40.1691 37.9495 40.3069 37.9963C40.8802 38.192 41.3787 38.6234 41.9314 38.7386C42.4804 38.8398 42.9944 39.0811 43.4242 39.4394C43.7289 39.6932 44.1009 39.8664 44.4452 40.07C44.7035 40.2233 44.9936 40.2866 45.2708 40.187C45.4809 40.1116 45.6152 40.1714 45.7813 40.2736C46.2832 40.5768 46.7894 40.8799 47.3809 40.9718C47.7252 41.0263 48.0136 40.9267 48.1919 40.6166C48.3701 40.3065 48.2116 40.0856 48.0025 39.8526C46.7513 38.4614 45.507 37.0639 44.2696 35.6601C43.6489 34.9523 43.1323 34.1771 42.924 33.2095C43.2193 33.1913 43.4784 33.3135 43.7694 33.2398C43.5111 32.8067 43.6368 32.4143 43.8555 32.0401C44.0288 31.7593 44.1591 31.4538 44.242 31.134C44.3367 30.7295 44.4659 30.6758 44.8447 30.849C45.2235 31.0223 45.5127 31.3471 45.7813 31.6616C46.2428 32.2012 46.8092 32.4758 47.5117 32.4524C47.6464 32.4444 47.781 32.4692 47.9041 32.5245C48.0273 32.5798 48.1354 32.6641 48.2194 32.7703C48.5904 33.193 49.0527 33.2407 49.5469 33.0181C50.159 32.7417 50.7728 32.4689 51.2687 31.9829C51.5475 31.7128 51.8953 31.5257 52.2734 31.4424C52.992 31.2788 53.6253 30.854 54.052 30.2496C54.8647 29.1166 55.7015 28.0026 56.5331 26.8843C56.6734 26.6964 56.8095 26.4937 56.8232 26.2684C56.8456 25.9116 57.0247 25.8093 57.3458 25.7322C58.2342 25.5183 58.5218 24.9267 58.1972 24.0708C58.1464 23.9374 58.0801 23.811 58.025 23.6793C57.9398 23.6672 57.9002 23.6836 57.9398 23.7737Z" fill="black"/>
<path d="M24.9748 31.7423C25.3769 31.6496 25.3984 31.6453 25.642 31.9545C25.95 32.359 26.4035 32.6256 26.905 32.6969C27.258 32.7515 27.6109 32.8069 27.9647 32.8571C28.6759 32.9585 29.2991 33.1976 29.6005 33.9252C29.82 34.4449 30.1945 34.8685 30.5104 35.3276C30.7515 35.6741 30.7248 35.869 30.371 36.1003C30.2668 36.1687 30.1557 36.225 29.9655 36.3333C30.3563 36.4199 30.668 36.471 30.9503 36.3012C31.1303 36.193 31.194 36.2649 31.2947 36.3879C31.5073 36.6616 31.6391 36.9795 31.8112 37.2784C32.3381 38.2191 32.9958 39.0108 34.1185 39.2421C34.4878 39.2014 34.8605 39.2014 35.2299 39.2421L35.6664 39.1416C35.7137 39.0775 35.8007 39.0281 35.7524 38.9259C35.5105 38.9259 35.2695 38.919 35.0276 38.9181C33.5236 38.9121 32.5025 37.1571 32.382 36.0518C32.2684 35.7468 32.2684 35.4108 32.382 35.1059C32.5025 34.9092 32.0902 34.613 32.5249 34.4623C33.1732 34.237 33.7741 33.9018 34.3776 33.5778C34.5498 33.4869 34.678 33.3951 34.765 33.6956C34.8296 33.9174 35.0715 33.9754 35.3022 33.9737C35.8349 33.9625 36.3492 33.7753 36.7657 33.441C37.3684 32.9827 37.7988 32.3617 38.2422 31.7631C38.2955 31.6912 38.4023 31.6184 38.299 31.4972C38.2258 31.5379 38.1509 31.5769 38.0786 31.621C37.1376 32.1927 36.1984 32.7679 35.2557 33.3362C35.1791 33.3821 35.1059 33.4895 34.9906 33.4098C34.8898 33.3396 34.8967 33.2591 34.9346 33.1499C35.031 32.8597 34.8967 32.5877 34.8141 32.3227C34.7452 32.1001 34.8012 32.0152 34.9923 31.8974C35.9711 31.2979 36.6882 29.4425 36.3628 28.3813L35.5639 29.5785C35.3582 29.1739 35.1765 28.8179 34.9957 28.461C34.9613 28.3926 34.9518 28.2679 34.833 28.3614C34.8046 28.3839 34.8235 28.468 34.8201 28.5243C34.9311 28.8591 34.9311 29.2211 34.8201 29.556C34.8433 29.7292 34.8614 29.8972 34.8898 30.0662C34.9596 30.4785 34.5059 31.4677 34.1288 31.6557C33.5976 31.9207 33.0544 32.1598 32.5129 32.411C32.4268 32.1754 32.3777 31.9459 32.2658 31.7518C31.9481 31.2009 31.9576 31.0909 32.4165 30.6353C32.9429 30.1259 33.4426 29.5893 33.9136 29.0276C34.3819 28.4558 34.6574 27.8296 34.6479 27.0604C34.6478 26.2677 34.6877 25.4755 34.7676 24.6869C34.8247 23.954 34.7154 23.2176 34.4482 22.5335C34.3741 22.3334 34.2975 22.2 34.0806 22.4061C33.966 22.5148 33.8382 22.6082 33.7001 22.6842C33.533 22.7769 33.5374 22.8929 33.614 23.0307C33.8378 23.4343 33.8722 23.8718 33.8619 24.324C33.8516 24.9433 33.8662 25.5627 33.8705 26.182C34.0117 26.6913 33.9325 27.2067 33.9161 27.7213C33.9161 27.7256 33.8938 27.7343 33.8817 27.7334C33.868 27.7302 33.8549 27.7246 33.843 27.717C33.6356 28.2034 33.3442 28.6489 32.9821 29.0327C32.3493 29.6571 31.8649 30.4172 31.565 31.2564C31.3748 31.8159 30.9994 31.8133 30.618 31.9493C30.3598 32.0412 30.2005 31.9788 30.0679 31.7276C29.9051 31.3888 29.642 31.1092 29.3146 30.9272C29.0047 30.7661 28.712 30.728 28.5347 31.1169L28.6974 31.2901C28.9703 31.0684 29.0891 31.3222 29.1889 31.4842C29.3895 31.809 29.5514 32.1581 29.7296 32.4968C29.7537 32.5106 29.7881 32.5184 29.7993 32.5392C29.8854 32.6908 30.1325 32.6302 30.1643 32.8346C30.1643 32.8571 30.1058 32.9212 30.0912 32.9126C29.9285 32.8545 29.8329 32.7185 29.7279 32.5895C29.3146 32.2941 28.8265 32.1971 28.3504 32.0697L27.7521 32.0862C26.9833 32.1087 26.2025 32.2057 25.5904 31.5491C25.4277 31.3759 25.1599 31.4166 24.9413 31.5032C24.9236 31.5076 24.907 31.5159 24.8929 31.5275C24.8788 31.5391 24.8674 31.5538 24.8596 31.5703C24.8517 31.5869 24.8477 31.605 24.8477 31.6234C24.8476 31.6418 24.8517 31.6599 24.8595 31.6765C24.8819 31.7206 24.8999 31.7596 24.9748 31.7423ZM31.7303 32.4232C31.9025 32.3365 32.0024 32.3002 32.0945 32.5583C32.2219 32.9134 32.4991 32.9628 32.9123 32.7844C33.3919 32.5765 33.7517 32.1979 34.1865 31.8731C34.2061 31.9933 34.2497 32.1084 34.3147 32.2112C34.3796 32.3141 34.4646 32.4027 34.5644 32.4717C33.7035 32.8493 32.8943 33.1941 32.0945 33.5622C31.8293 33.6844 31.7148 33.674 31.6864 33.3466C31.6568 33.0643 31.5528 32.7952 31.3851 32.567C31.5108 32.5132 31.6244 32.476 31.7303 32.4232ZM30.3985 33.143C30.5319 33.0235 30.6809 32.949 30.8625 33.0018C31.0674 33.0616 30.9917 33.2218 30.9788 33.3569C30.9564 33.6073 30.9331 33.8585 30.9047 34.1669C30.7368 33.907 30.5905 33.6913 30.4545 33.4678C30.3959 33.3717 30.2427 33.2825 30.3985 33.143Z" fill="black"/>
<path d="M25.8426 35.6864C25.5895 35.7132 25.3261 35.6734 25.0867 35.7955C24.875 35.9038 24.7424 36.0771 24.7742 36.3092C24.8052 36.5223 24.7674 36.8064 24.9938 36.9156C25.4957 37.1642 25.9545 36.8454 25.9528 36.2772C25.9528 36.1481 25.9459 36.0173 25.9425 35.89C26.7612 36.945 27.5481 38.0304 28.6974 38.7814C28.0155 39.25 27.9398 39.658 28.4236 40.1674C28.5515 40.2812 28.6867 40.3866 28.8282 40.4827C29.0004 40.6204 29.1063 40.5979 29.2156 40.3917C29.4133 40.0479 29.4997 39.6507 29.4627 39.2552C30.0791 39.5264 30.6809 39.7551 31.3317 39.7802C31.936 39.8035 32.5157 40.0267 32.9812 40.4151C33.3979 40.7495 33.7405 41.1566 34.0788 41.5681C34.4172 41.9795 34.6815 42.4239 35.13 42.8449C35.13 42.1753 35.1068 41.5889 35.136 41.0042C35.1662 40.3735 35.6749 39.9924 36.0477 39.4597C35.5734 39.4917 35.161 39.4831 34.8097 39.7421C34.3423 40.0886 34.2691 40.6083 34.2415 41.2467C34.0694 40.9747 33.9652 40.7937 33.8481 40.6196C33.3221 39.8399 32.71 39.1227 31.7424 38.9659C30.6378 38.7883 29.7459 38.24 28.8773 37.5947C27.2536 36.3898 25.8159 35.0385 25.1436 33.0435C25.0739 32.8865 24.9895 32.7365 24.8913 32.5957L24.8052 32.691C24.9215 33.7712 25.333 34.7457 25.8426 35.6864Z" fill="black"/>
<path d="M41.2221 13.17V10.457H41.1859L41.1523 10.6251C41.1523 11.3839 41.1523 12.1424 41.1523 12.9007C41.1919 12.9925 41.1282 13.1034 41.2221 13.17Z" fill="black"/>
<path d="M38.7243 23.0989C38.627 22.6034 38.6881 22.1036 38.6838 21.6047C38.6838 21.5181 39.0359 21.5293 38.7312 21.4063C38.6279 21.4063 38.5263 21.3985 38.5314 21.5527C38.5504 22.0724 38.5693 22.5922 38.5797 23.1076C38.5848 23.3614 38.7346 23.2323 38.8431 23.2202C38.8018 23.1803 38.7338 23.1457 38.7243 23.0989Z" fill="black"/>
<path d="M33.9208 27.7248C33.9372 27.2103 34.0164 26.6949 33.8752 26.1855C33.8654 26.6966 33.8563 27.2083 33.8477 27.7205C33.8596 27.7281 33.8727 27.7337 33.8864 27.737C33.895 27.7378 33.9208 27.7292 33.9208 27.7248Z" fill="black"/>
<path d="M28.418 31.4672C28.4558 31.5997 28.3655 31.753 28.4834 31.8951L28.6943 31.2982L28.5316 31.125L28.418 31.4672Z" fill="black"/>
<path d="M34.8165 28.5254C34.7799 28.8683 34.7799 29.2142 34.8165 29.5571C34.9276 29.2223 34.9276 28.8602 34.8165 28.5254Z" fill="black"/>
<path d="M32.3782 36.0553C32.42 35.7414 32.42 35.4233 32.3782 35.1094C32.2646 35.4143 32.2646 35.7504 32.3782 36.0553Z" fill="black"/>
<path d="M24.8948 32.5963C24.8573 32.4624 24.776 32.3452 24.6641 32.2637C24.672 32.4176 24.7234 32.566 24.8121 32.6916L24.8948 32.5963Z" fill="#363636"/>
<path d="M42.0976 11.5488C41.9831 12.3802 41.9831 13.2235 42.0976 14.0548C42.1566 13.2205 42.1566 12.3831 42.0976 11.5488Z" fill="black"/>
<path d="M63.0267 4.61549L62.9888 4.59471L62.8735 4.5332L62.6875 4.79307C62.7142 4.79307 62.74 4.79307 62.7667 4.79307L63.025 4.61983L63.0267 4.61549Z" fill="black"/>
<path d="M19.7375 71.0423C19.4017 71.1116 19.1504 71.3117 18.9067 71.5776C18.9601 70.474 19.2201 70.1007 20.2144 69.9759C20.4959 69.9404 20.768 69.8408 21.0478 69.7828C21.4481 69.7013 21.6177 69.4952 21.436 69.0664C20.9514 69.3263 20.4159 69.4016 19.8864 69.4909C19.1504 69.6147 18.676 70.0175 18.5219 70.7798C18.2965 71.9145 18.3115 73.0842 18.5658 74.2126C18.6622 74.6562 18.8843 75.0494 19.3139 75.2677C20.4839 75.8611 21.7778 75.13 21.8837 73.8185C21.8268 73.6825 21.7975 73.5364 21.7975 73.3889C21.7975 73.2413 21.8268 73.0952 21.8837 72.9592C21.8544 71.4338 21.0986 70.7616 19.7375 71.0423ZM21.3181 73.7016C21.3035 74.8277 20.6294 74.9299 19.8287 74.8459C19.3699 74.7982 19.1779 74.4171 19.0669 74.0117C18.9239 73.4919 18.936 72.9523 18.9902 72.4239C19.0531 71.8175 19.3974 71.5698 20.1447 71.5265C20.7525 71.4918 21.0521 71.7136 21.2157 72.2853C21.3086 72.6101 21.2871 72.9419 21.3181 73.1974C21.3181 73.414 21.3198 73.5578 21.3181 73.7016Z" fill="black"/>
<path d="M86.5185 71.6576L86.4454 71.3735C86.4307 71.4272 86.4169 71.4809 86.4032 71.5346C86.4032 71.4884 86.4006 71.4425 86.3954 71.3969C86.3934 71.3828 86.3934 71.3685 86.3954 71.3544C86.3636 70.9655 86.2861 70.5748 86.4221 70.1902C86.4333 69.8628 86.4454 69.5354 86.361 69.214C86.3395 69.214 86.324 69.2764 86.3093 69.2383C86.3079 69.2331 86.3059 69.2282 86.3033 69.2235C86.3033 69.2235 86.3033 69.2175 86.3033 69.1993C86.3179 68.8658 86.268 68.5314 86.3317 68.1988C86.4023 67.9207 86.3154 67.815 86.014 67.8393C85.4114 67.8878 84.8131 67.9259 84.2122 67.9259C83.9238 67.9259 83.8523 68.0212 83.8558 68.2949C83.8687 69.3214 83.6965 70.328 83.5045 71.3328C83.4417 71.6585 83.359 71.9132 82.9484 71.8343C82.7418 71.7945 82.7159 71.9123 82.7435 72.0873C82.8009 72.4707 82.8522 72.8556 82.8976 73.2419C82.9122 73.3753 82.9355 73.4628 83.0973 73.4455C83.2402 73.4299 83.3478 73.4057 83.3229 73.2177C83.2996 73.0445 83.3108 72.8712 83.2816 72.698C83.2351 72.4312 83.3031 72.3116 83.6001 72.3047C84.3301 72.2865 85.0584 72.2371 85.7876 72.199C86.6597 72.1531 86.6589 72.1531 86.7579 73.0254C86.7699 73.1276 86.7191 73.2705 86.9171 73.2558C87.0626 73.2454 87.1573 73.2203 87.1582 73.0384C87.1582 72.6642 87.1797 72.2908 87.1926 71.9166C87.0471 71.6186 86.7071 71.8439 86.5185 71.6576ZM85.9245 71.759C85.519 71.8586 84.7804 71.8517 84.4558 71.759H83.9488C84.0908 70.9516 84.2509 70.1729 84.3198 69.3812C84.3228 69.3518 84.3286 69.3228 84.337 69.2946C84.4171 69.0208 84.238 68.5773 84.4541 68.4898C84.8191 68.3417 85.2668 68.3971 85.6792 68.3686C85.8686 68.3556 85.8281 68.5002 85.8324 68.6059C85.8746 69.5536 85.9185 70.5012 85.9546 71.4489C85.9693 71.8525 85.5974 71.5875 85.4579 71.7278L85.9245 71.759Z" fill="black"/>
<path d="M10.3593 71.3242C10.2692 71.3782 10.1663 71.4067 10.0614 71.4067C9.95652 71.4067 9.8536 71.3782 9.76351 71.3242C9.24697 71.3701 8.74421 71.4342 8.30859 71.7469C8.42568 72.0515 8.42568 72.3891 8.30859 72.6937C8.36599 74.2529 8.42338 75.8121 8.48077 77.3713C8.48077 77.3999 8.52812 77.4276 8.55309 77.458C8.87765 77.458 8.98354 77.2942 8.94308 76.9824C8.91683 76.8558 8.92485 76.7245 8.96632 76.6021V75.638C9.07221 75.6839 9.16002 75.7246 9.25042 75.761C10.3326 76.1941 11.5103 75.6805 11.7212 74.6592C11.8694 73.906 11.8399 73.1284 11.6351 72.3888C11.4621 71.708 11.0721 71.403 10.3593 71.3242ZM11.2133 74.2278C11.1814 74.9372 10.9016 75.2292 10.2155 75.3426C9.93221 75.3873 9.64243 75.3636 9.37008 75.2733C9.0989 75.1867 8.9052 75.023 8.89831 74.6878C8.88281 73.9558 8.87076 73.2213 8.80533 72.4919C8.76917 72.09 8.93016 71.9505 9.28227 71.9167C9.3646 71.9004 9.44508 71.8757 9.52246 71.8431C9.82808 71.6698 10.1346 71.6915 10.4436 71.8327C10.8965 71.9999 11.0781 72.3472 11.153 72.8098C11.2216 73.2791 11.2417 73.7543 11.2133 74.2278Z" fill="black"/>
<path d="M26.0149 71.599C25.9288 71.0862 25.6137 70.7535 25.0843 70.6582C24.4334 70.5413 23.8075 70.6582 23.1843 70.841C22.9768 70.9025 23.0413 71.0065 23.0939 71.1199C23.1464 71.2334 23.0887 71.4378 23.3375 71.3556C23.5863 71.2733 23.8282 71.2187 24.0744 71.152L23.9074 71.1234C23.9074 71.1009 23.9074 71.0784 23.9074 71.055H24.9482C24.956 71.055 24.9646 71.0706 24.9723 71.0792L24.8863 71.1451C25.4097 71.2793 25.5138 71.696 25.5819 72.1551C25.618 72.4002 25.4699 72.3578 25.3348 72.3612C24.8852 72.4774 24.4138 72.4774 23.9642 72.3612C23.464 72.4141 23.0853 72.654 22.9553 73.153C22.8486 73.5743 22.8599 74.0171 22.988 74.4324C23.0309 74.6078 23.1229 74.7672 23.253 74.8917C23.3832 75.0162 23.546 75.1006 23.7223 75.1349C24.5212 75.3177 25.2805 75.1591 26.0252 74.8681C26.0811 74.8544 26.1298 74.8201 26.1617 74.772C26.1936 74.7238 26.2064 74.6654 26.1974 74.6082C26.1225 73.6103 26.1802 72.596 26.0149 71.599ZM24.82 74.6784C24.6641 74.694 24.5057 74.6905 24.3482 74.6905C23.7154 74.6905 23.5734 74.5675 23.4813 73.9447C23.3642 73.1651 23.5768 72.8827 24.3508 72.8056C24.4369 72.797 24.523 72.7952 24.609 72.7926C25.5612 72.7658 25.5612 72.7658 25.6352 73.716C25.6972 74.5355 25.6481 74.5961 24.82 74.6784Z" fill="black"/>
<path d="M76.8781 68.207C76.6242 68.2534 76.3641 68.2534 76.1102 68.207C75.2493 68.2729 74.7853 68.6635 74.6467 69.4397C74.5262 70.122 74.5485 70.8221 74.7121 71.4952C74.9273 72.4048 75.3939 72.7694 76.3229 72.7764C77.3516 72.7842 77.968 72.416 78.154 71.6312C78.3464 70.814 78.3146 69.9595 78.0619 69.159C77.8897 68.5925 77.5023 68.2382 76.8781 68.207ZM77.6349 71.3419C77.566 71.9379 77.2044 72.1847 76.4649 72.2341C75.8089 72.2783 75.4499 72.0513 75.2838 71.4822C75.2398 71.3324 75.2089 71.1782 75.1718 71.0266L75.1434 71.192H75.0763C75.0763 70.6411 75.0763 70.0908 75.0763 69.541C75.0763 69.5306 75.09 69.5211 75.0969 69.5116L75.1649 69.5904C75.4559 68.7891 76.2643 68.4539 77.0632 68.7891C77.3473 68.9087 77.4825 69.14 77.5496 69.4059C77.6964 70.0404 77.7261 70.6966 77.6375 71.3419H77.6349Z" fill="black"/>
<path d="M38.4883 73.3052C38.4987 72.9769 38.5142 72.6486 38.4281 72.3263C38.4134 72.4086 38.3997 72.4901 38.3859 72.5724C38.3687 72.18 38.2524 71.7867 38.4014 71.3995C38.3153 70.4354 37.9365 70.0577 36.9938 70.0274C36.5358 70.0254 36.0799 70.0905 35.6405 70.2206C35.4442 70.2725 35.3452 70.3314 35.4244 70.567C35.4984 70.7879 35.5776 70.82 35.7868 70.729C36.064 70.6086 36.3722 70.6026 36.671 70.5757C37.5887 70.4943 37.9322 70.8356 37.8762 71.7772L37.4647 71.7529C37.1621 71.8694 36.8273 71.8694 36.5246 71.7529C35.9633 71.7815 35.4872 71.9443 35.2978 72.549C35.1888 72.9222 35.1822 73.3183 35.2789 73.695C35.4132 74.284 35.6517 74.4902 36.2655 74.5846C36.5682 74.4698 36.902 74.4698 37.2047 74.5846C37.6602 74.524 38.1164 74.4703 38.4961 74.1662C38.4351 74.0312 38.4028 73.8848 38.4015 73.7365C38.4002 73.5882 38.4298 73.4413 38.4883 73.3052ZM37.1109 74.0848L37.0248 74.0917C35.9771 74.1783 35.718 73.8951 35.8195 72.8366C35.854 72.4901 36.0434 72.322 36.3533 72.2683C36.5655 72.2369 36.7794 72.2181 36.9938 72.212C37.9511 72.1644 37.9511 72.1661 37.977 73.1302C38.0011 73.9973 37.9847 74.0138 37.1083 74.0883L37.1109 74.0848Z" fill="black"/>
<path d="M49.846 71.14C49.6944 69.9273 49.1814 69.4578 48.0381 69.4941C46.8586 69.534 46.3361 70.0139 46.262 71.14C46.3761 71.4448 46.3761 71.781 46.262 72.0859C46.2571 72.4134 46.3098 72.7393 46.4179 73.0483C46.6012 73.6468 46.9792 74.0219 47.6274 74.0678C47.7478 74.0124 47.8786 73.9836 48.011 73.9836C48.1433 73.9836 48.2741 74.0124 48.3945 74.0678C49.32 73.9561 49.6927 73.6035 49.8477 72.6948C49.7324 72.1831 49.7318 71.652 49.846 71.14ZM49.4224 72.655C49.4224 72.6611 49.3966 72.6732 49.3957 72.6723C49.3733 72.642 49.3518 72.61 49.3303 72.5788C49.072 73.4155 48.4892 73.7421 47.6283 73.5359C47.1841 73.4303 46.9292 73.0976 46.8638 72.4653C46.7991 71.9653 46.7933 71.4594 46.8466 70.9581C46.918 70.4028 47.1272 70.1724 47.6756 70.0849C47.8583 70.0514 48.0435 70.0345 48.2292 70.0347C48.8456 70.052 49.1357 70.3101 49.2476 70.9217C49.2735 71.0611 49.2476 71.211 49.3337 71.3401L49.3647 71.172H49.4276C49.4241 71.6649 49.425 72.1595 49.4233 72.655H49.4224Z" fill="black"/>
<path d="M57.3694 69.1123C57.0852 69.0809 56.7983 69.0856 56.5153 69.1262C55.6338 69.2405 55.2464 69.6286 55.125 70.5338C55.2399 70.9865 55.2399 71.461 55.125 71.9137C55.1896 72.9263 55.5382 73.427 56.3199 73.6305C56.6534 73.5216 57.0129 73.5235 57.3453 73.6357C58.2501 73.485 58.6246 73.0605 58.7106 72.0869C58.5979 71.7521 58.5979 71.3892 58.7106 71.0544C58.7365 70.7321 58.6521 70.4281 58.5617 70.1249C58.3852 69.5272 57.997 69.1877 57.3694 69.1123ZM58.1244 72.2645C58.0383 72.7721 57.7533 73.0579 57.2488 73.1229C56.1934 73.2606 55.843 72.9895 55.6992 71.9249C55.685 71.8552 55.6658 71.7865 55.6415 71.7196L55.6105 71.8842H55.5477C55.5477 71.4476 55.5477 71.0111 55.5477 70.5745C55.5477 70.5675 55.5641 70.5598 55.5727 70.552L55.6398 70.6386C55.9101 69.7282 56.5489 69.3895 57.4796 69.6762C57.9143 69.8105 58.0469 70.1959 58.0977 70.5823C58.1691 71.1401 58.2234 71.7014 58.1244 72.2645Z" fill="black"/>
<path d="M66.7123 69.7537C66.6055 69.1257 66.2474 68.7731 65.6069 68.7281C65.3822 68.774 65.1506 68.774 64.9259 68.7281C64.6091 68.7134 64.3095 68.8069 64.0108 68.8918C63.8791 68.9291 63.6578 68.8918 63.7629 69.1985C63.8489 69.454 63.935 69.5077 64.1692 69.402C64.3403 69.338 64.5158 69.2868 64.6943 69.2487C64.9888 69.1554 65.3039 69.1509 65.6009 69.2357C66.2035 69.4211 66.2328 69.914 66.2664 70.4554C65.99 70.4276 65.7498 70.3861 65.5122 70.3835C65.2555 70.3846 64.999 70.4014 64.7443 70.4337C63.991 70.5203 63.6527 70.8599 63.5752 71.61C63.5479 71.9257 63.5845 72.2437 63.6828 72.5447C63.729 72.7193 63.8244 72.8767 63.9577 72.9979C64.0909 73.119 64.2562 73.1987 64.4335 73.2273C65.247 73.3966 66.0938 73.2701 66.8234 72.8704C66.72 71.8335 66.578 70.7984 66.7123 69.7537ZM66.1484 72.6123C65.9857 72.6564 65.8256 72.7136 65.6646 72.7656C65.3202 72.9882 64.9526 72.834 64.5945 72.8461C64.5945 72.8461 64.5816 72.8219 64.5824 72.8106C64.5863 72.7968 64.5927 72.7839 64.6014 72.7725C64.3345 72.6582 64.2441 72.413 64.1546 72.1662C64.0806 72.053 64.0409 71.9207 64.0401 71.7852C64.0393 71.6498 64.0776 71.517 64.1503 71.403C64.2562 71.0565 64.5575 70.9751 64.8536 70.8876C64.8398 70.8824 64.8226 70.8824 64.8132 70.8729C64.7983 70.8553 64.7851 70.8365 64.7736 70.8166C65.2447 70.7724 65.7189 70.7741 66.1897 70.8218C66.1897 70.8339 66.1897 70.8521 66.1811 70.8556C66.156 70.8687 66.1302 70.8803 66.1036 70.8902C66.1897 70.9517 66.3008 70.969 66.3008 71.1301C66.3008 71.5329 66.3214 71.9357 66.349 72.3377C66.3602 72.5014 66.2896 72.5707 66.1484 72.6097V72.6123Z" fill="black"/>
<path d="M90.1158 69.4051C89.6559 69.4014 89.1962 69.4216 88.7384 69.4658C88.4379 69.4961 88.2916 69.4597 88.32 69.1002C88.3467 68.7537 88.2924 68.4072 88.2881 68.0607C88.2881 67.8442 88.2468 67.729 87.9782 67.7411C87.6855 67.7532 87.7552 67.9187 87.7621 68.0876C87.806 69.0673 87.8577 70.047 87.8861 71.0276C87.9222 72.2403 87.9136 72.2403 89.1335 72.0194L88.5016 71.9917L88.4457 72.0081C88.4801 72.054 88.388 72.0246 88.4457 71.9882H88.4904C89.038 71.9449 89.5855 71.8357 90.1322 71.9882C90.8915 71.8799 91.1652 71.5845 91.1799 70.8379C91.1841 70.6934 91.1809 70.5489 91.1704 70.4047C91.1205 69.7585 90.7623 69.4069 90.1158 69.4051ZM90.1365 71.4676C89.6415 71.5291 89.1395 71.5274 88.6411 71.5629C88.4741 71.575 88.4078 71.5222 88.4155 71.3515C88.4259 71.1506 88.4155 70.9487 88.4155 70.7452C88.3759 69.9379 88.3759 69.9387 89.1714 69.924C89.471 69.9188 89.774 69.8902 90.0702 69.9058C90.4541 69.9249 90.6074 70.144 90.6151 70.6776C90.622 71.0362 90.5833 71.4122 90.1356 71.4676H90.1365Z" fill="black"/>
<path d="M15.435 72.9676C15.0151 73.0867 14.5705 73.0867 14.1506 72.9676L13.3826 72.9503C13.2225 72.6679 13.2552 72.3803 13.3577 72.0901C13.3499 71.8303 13.4326 71.5583 13.2854 71.3105C13.0133 71.392 12.8954 71.5635 12.941 71.8571C12.9599 71.9888 12.9789 72.1378 12.8738 72.2565C12.8592 72.6142 12.8463 72.9711 12.9333 73.3228L12.9746 72.9893C12.9866 73.4969 13.1209 74.0054 12.9599 74.5086C12.9694 74.811 12.978 75.115 12.9892 75.4156C12.9892 75.5351 13.003 75.6521 13.1752 75.6295C13.9431 75.5308 14.7248 75.6244 15.4875 75.4641C15.9085 75.3775 16.1487 75.0925 16.221 74.6663C16.2732 74.3666 16.2705 74.0598 16.2133 73.7611C16.1263 73.3366 15.9042 73.0213 15.435 72.9676ZM15.064 75.0137C14.8238 75.0353 14.5802 75.018 14.3374 75.018C13.4765 75.0639 13.4765 75.0639 13.4601 74.1691C13.4498 73.4934 13.4498 73.4952 14.1265 73.4623C14.4106 73.4484 14.6947 73.412 14.9796 73.4059C15.4617 73.3973 15.6571 73.6173 15.683 74.17C15.7088 74.7226 15.5332 74.9747 15.064 75.0137Z" fill="black"/>
<path d="M95.4986 69.2336C95.8955 68.6316 96.2501 68.0018 96.6419 67.3504C96.022 67.3453 96.0255 67.3504 95.7706 67.7948C95.5253 68.2279 95.2713 68.655 95.0044 69.1141C94.6601 68.6723 94.3045 68.2877 94.029 67.8546C93.7708 67.4457 93.4462 67.457 93.0312 67.5289C93.5383 68.1543 94.011 68.7477 94.4948 69.3298C94.6506 69.516 94.685 69.6581 94.5292 69.8764C94.1134 70.4593 93.7277 71.0631 93.33 71.6582C93.4789 71.7951 93.6692 71.6885 93.8327 71.7448L95.0277 70.0383C95.3367 70.4871 95.6708 70.9046 95.9273 71.3628C96.1434 71.75 96.4051 71.7699 96.7985 71.6313C96.3681 71.025 95.9626 70.429 95.5313 69.859C95.3669 69.6356 95.3342 69.4831 95.4986 69.2336Z" fill="black"/>
<path d="M53.1021 71.189C53.4938 70.6052 53.8338 69.985 54.2066 69.3595C53.746 69.2781 53.5058 69.4271 53.3319 69.7927C53.121 70.2405 52.8412 70.6589 52.5778 71.1085C52.2334 70.6684 51.8796 70.2855 51.6058 69.8507C51.3476 69.441 51.0247 69.447 50.6055 69.5215C51.1022 70.134 51.5576 70.723 52.044 71.2843C52.2515 71.5234 52.2369 71.6932 52.0621 71.9383C51.6627 72.497 51.2925 73.0774 50.9111 73.6491C51.0652 73.7574 51.2417 73.7279 51.413 73.7357L52.6062 72.0327C52.9196 72.4875 53.2536 72.9041 53.5101 73.3641C53.7271 73.7539 53.9854 73.7704 54.3762 73.624C53.9458 73.0176 53.5601 72.4347 53.1296 71.8811C52.9316 71.6299 52.9187 71.4627 53.1021 71.189Z" fill="black"/>
<path d="M30.2529 71.8964L30.2142 72.2291C30.2142 72.1234 30.203 72.0186 30.1935 71.9138C30.1737 71.9094 30.1797 71.8834 30.1935 71.8609C30.1582 71.4755 30.1074 71.0908 30.2305 70.708C30.2779 70.5183 30.2116 70.4481 30.0127 70.4628C29.3567 70.5033 28.7001 70.5356 28.043 70.5598C27.8217 70.5676 27.7563 70.6569 27.7554 70.876C27.7554 71.2632 27.7279 71.6513 27.6969 72.0385C27.6194 73.0191 27.4025 73.9762 27.1562 74.9317C27.7167 74.962 27.7253 74.9637 27.826 74.4648C28.0335 73.4366 28.2212 72.4066 28.2746 71.3559C28.2806 71.2381 28.2324 71.0718 28.433 71.0623C28.8471 71.0432 29.2939 70.9375 29.6632 71.0623C29.8526 71.1238 29.7097 71.6175 29.7639 71.9112C29.774 71.9527 29.7869 71.9936 29.8027 72.0333L29.844 71.8704C29.844 71.9224 29.85 71.9753 29.8552 72.0272C29.8552 72.0272 29.8552 72.035 29.8552 72.0402C29.8896 72.404 29.9636 72.7687 29.8285 73.1299C29.8474 73.6297 29.8707 74.1296 29.8836 74.6302C29.8836 74.7905 29.9327 74.8719 30.1074 74.8364C30.2503 74.807 30.4397 74.8581 30.4087 74.5965C30.2977 73.6973 30.3906 72.7904 30.2529 71.8964Z" fill="black"/>
<path d="M32.841 72.3057C33.4384 71.6863 33.9541 71.0064 34.4767 70.3039C34.0514 70.1999 33.7595 70.3039 33.5495 70.6659C33.416 70.8707 33.2651 71.0635 33.0984 71.242C32.7686 71.6378 32.4338 72.0294 32.0498 72.4841C32.0171 71.8137 31.9921 71.2515 31.9637 70.6902C31.956 70.5533 32.0377 70.3558 31.7545 70.3809C31.5376 70.3991 31.4058 70.4381 31.4386 70.7032C31.4782 71.0306 31.4274 71.3658 31.5152 71.6907C31.5264 71.4256 31.5384 71.1614 31.5496 70.8972C31.5548 71.1086 31.5642 71.3182 31.5754 71.5287C31.5705 71.442 31.5731 71.3551 31.5832 71.2688C31.5789 71.3555 31.5772 71.4421 31.5754 71.5356C31.6133 72.2234 31.6762 72.9086 31.7029 73.5955C31.7097 73.7817 31.6917 73.9697 31.708 74.1551C31.7201 74.298 31.6219 74.5458 31.8242 74.5544C32.0481 74.564 31.9517 74.3119 31.9568 74.175C31.9706 73.7878 31.9568 73.3997 31.9628 73.0125C31.9628 72.8739 31.9198 72.7198 32.0618 72.6149C32.5784 72.6669 32.9365 72.977 33.2766 73.3322C33.6399 73.7116 33.8637 74.1923 34.2029 74.5882C34.2318 74.5712 34.2642 74.5611 34.2976 74.5588L34.6996 74.434C34.2072 73.6137 33.7587 72.7553 32.841 72.3057Z" fill="black"/>
<path d="M82.0531 68.0202C81.051 68.0704 80.0498 68.1285 79.0468 68.1727C78.8479 68.1813 78.7489 68.2021 78.7541 68.4533C78.7601 68.7296 78.8987 68.7132 79.0812 68.6959C79.3662 68.6725 79.6546 68.669 79.9421 68.6318C80.2297 68.5945 80.3562 68.6569 80.3778 69.0008C80.4242 69.7475 80.3511 70.5011 80.4888 71.2434L80.5301 70.9983H80.5861C80.5861 71.3378 80.5861 71.6774 80.5861 72.017C80.5861 72.1261 80.5525 72.2569 80.6825 72.3201C80.8366 72.3946 80.9115 72.2664 81.0002 72.1789C80.9752 71.3716 80.9339 70.5652 80.933 69.7578C80.933 69.3793 80.6903 68.8752 80.9632 68.6586C81.2137 68.4594 81.7061 68.572 82.0909 68.5399C82.2554 68.5269 82.4697 68.6266 82.4577 68.2887C82.4456 67.9509 82.2485 68.0098 82.0531 68.0202Z" fill="black"/>
<path d="M62.8558 68.9716C62.5425 69.0521 62.2274 69.0244 61.9088 68.9863C61.1254 69.0157 60.342 69.0409 59.5594 69.0729C59.1772 69.0902 59.154 69.15 59.3227 69.5753C59.6068 69.4939 59.8926 69.5208 60.1836 69.5606C60.4083 69.6091 60.6416 69.5052 60.8646 69.5978L60.9395 69.5909C60.9954 70.6304 61.1194 71.6638 61.0255 72.7093C61.0255 72.7345 60.9954 72.757 60.9799 72.7804C60.9636 73.4422 60.9636 73.4422 61.4655 73.3001L61.0617 73.2758C61.5937 73.1528 61.2709 72.7371 61.4689 72.5257C61.4414 71.6534 61.4362 70.7794 61.3777 69.9097C61.3527 69.5459 61.4784 69.4705 61.7952 69.4896C62.0654 69.4985 62.336 69.491 62.6053 69.4671C63.0056 69.4411 63.0177 69.4125 62.8636 68.9707L62.8558 68.9716Z" fill="black"/>
<path d="M92.2714 71.0475C92.1233 70.7521 92.2318 70.4411 92.2051 70.1328C92.1988 69.7164 92.1925 69.2994 92.1862 68.8819C92.1052 68.5822 92.2137 68.2678 92.1199 67.9689C92.237 67.5358 91.9942 67.5263 91.6894 67.5982C91.6119 67.7827 91.6395 67.9689 91.6843 68.1552C91.6906 68.5715 91.6969 68.9885 91.7032 69.406C91.7893 69.7057 91.6756 70.0202 91.7703 70.3199L91.7884 71.4841C91.9029 71.6079 91.847 71.7613 91.8607 71.9025C92.181 71.9692 92.3454 71.8661 92.2989 71.5109C92.274 71.3576 92.2783 71.2017 92.2714 71.0475ZM92.0992 71.7041C91.9511 71.7448 91.9546 71.6088 91.9322 71.5144C91.7721 70.8301 91.8797 70.1362 91.8676 69.4467C91.8676 69.3601 91.9141 69.2735 92.0252 69.2891C92.1173 69.3055 92.1113 69.3956 92.1113 69.4623C92.1113 69.7508 92.1113 70.0401 92.1113 70.3684C92.1466 70.7001 92.0536 71.0778 92.1724 71.4468C92.2008 71.5412 92.2318 71.6677 92.1009 71.7041H92.0992Z" fill="black"/>
<path d="M70.7783 69.8478C70.4917 69.8539 70.2618 69.9292 70.2782 70.2809C70.2911 70.5598 70.3083 70.8526 70.7422 70.8067C71.0409 70.8466 71.1985 70.6906 71.1924 70.3667C71.1881 70.0877 71.1408 69.8409 70.7783 69.8478Z" fill="black"/>
<path d="M42.4182 71.2025C42.1298 71.2146 41.9189 71.258 41.9344 71.627C41.9473 71.9301 41.9895 72.1779 42.3648 72.1649C42.6593 72.1554 42.8642 72.048 42.8134 71.6893C42.8392 71.4043 42.7919 71.1817 42.4182 71.2025Z" fill="black"/>
<path d="M17.2163 73.2937L17.1586 73.3024C17.0992 73.8793 17.2817 74.4449 17.2447 75.021C17.2378 75.1188 17.2593 75.2522 17.1242 75.2592C16.989 75.2661 17.0028 75.1336 16.989 75.0365C16.8358 73.9104 16.9641 72.7679 16.8168 71.6409C16.8095 71.5692 16.8095 71.497 16.8168 71.4252C16.8237 71.3386 16.8427 71.2451 16.9615 71.2607C17.0476 71.2728 17.0536 71.3551 17.0656 71.4252C17.0992 71.6184 17.0002 71.8315 17.156 72.0048C17.156 71.7224 17.156 71.4408 17.156 71.1593C17.0002 71.2104 16.7161 70.9133 16.6911 71.2797C16.6627 71.6912 16.7221 72.1096 16.7428 72.5245C16.8805 72.7913 16.7979 73.0745 16.8048 73.3509L16.828 74.6017C16.9684 74.8538 16.8831 75.1214 16.8926 75.3865L17.323 75.3804C17.3962 74.9473 17.323 74.5142 17.3179 74.0811C17.1629 73.8342 17.2912 73.551 17.2163 73.2937Z" fill="black"/>
<path d="M31.9633 73.0101C31.9633 73.3973 31.971 73.7897 31.9573 74.1726C31.9521 74.3094 32.0485 74.5615 31.8247 74.552C31.6207 74.5433 31.7205 74.2921 31.7085 74.1526C31.6921 73.9673 31.7085 73.7793 31.7033 73.593C31.6766 72.9061 31.6172 72.2209 31.5759 71.5332V71.528C31.5647 71.3175 31.5552 71.1078 31.5501 70.8965C31.5389 71.1564 31.5268 71.4249 31.5156 71.6899L31.5466 72.8697C31.6912 73.1946 31.5914 73.5359 31.612 73.8694C31.6201 74.1425 31.6273 74.4151 31.6336 74.6871H32.1114L32.1226 74.5138C31.9797 74.247 32.0804 73.9612 32.0571 73.6857C32.0606 73.3277 32.0637 72.9702 32.0666 72.6133C31.9202 72.7173 31.965 72.8715 31.9633 73.0101Z" fill="black"/>
<path d="M66.7979 70.9614C66.6542 70.6955 66.754 70.4096 66.7334 70.1333C66.7265 70.0068 66.7187 69.8804 66.711 69.7539C66.5767 70.7986 66.7196 71.8328 66.8186 72.8723C66.9477 72.8134 66.8849 72.6991 66.8806 72.6125C66.8573 72.0615 66.8263 71.5115 66.7979 70.9614Z" fill="black"/>
<path d="M60.9421 69.5938L60.8672 69.6007C60.8758 69.9691 60.8847 70.337 60.8939 70.7043C61.0402 70.9996 60.9386 71.3106 60.9584 71.6173C60.9653 72.0047 60.9719 72.3922 60.9782 72.7797C60.9937 72.7563 61.0213 72.7338 61.0239 72.7087C61.1255 71.6666 60.998 70.6315 60.9421 69.5938Z" fill="black"/>
<path d="M80.682 72.3219C80.552 72.2586 80.5873 72.1278 80.5856 72.0187C80.5813 71.6791 80.5856 71.3396 80.5856 71H80.5296L80.4883 71.2451C80.4883 71.5743 80.5046 71.9043 80.4952 72.2344C80.4891 72.4119 80.5563 72.4501 80.719 72.4414C80.8963 72.4319 81.0814 72.4622 81.0014 72.1815C80.911 72.2682 80.8378 72.3964 80.682 72.3219Z" fill="black"/>
<path d="M49.8476 72.6938C49.9225 72.1788 49.9225 71.6556 49.8476 71.1406C49.7331 71.6519 49.7331 72.1825 49.8476 72.6938Z" fill="black"/>
<path d="M88.4932 71.9857H88.457H88.507L89.1389 72.0134L90.1349 71.9814C89.5883 71.8333 89.0407 71.9424 88.4932 71.9857Z" fill="black"/>
<path d="M30.1887 71.86C30.1887 71.8773 30.1887 71.8946 30.1887 71.9128C30.1982 72.0176 30.2059 72.1224 30.2094 72.2281L30.2481 71.8955C30.2395 71.4993 30.2306 71.1032 30.2214 70.707C30.1061 71.0899 30.1534 71.4745 30.1887 71.86Z" fill="black"/>
<path d="M12.971 72.9922L12.9297 73.3257C12.9389 73.7207 12.9478 74.116 12.9564 74.5115C13.1174 74.0083 12.9831 73.4998 12.971 72.9922Z" fill="black"/>
<path d="M25.3354 72.3625C24.8815 72.288 24.4187 72.288 23.9648 72.3625C24.4144 72.4787 24.8858 72.4787 25.3354 72.3625Z" fill="black"/>
<path d="M86.3953 71.3517C86.3953 71.3673 86.3953 71.382 86.3953 71.3976C86.3988 71.4432 86.4014 71.4891 86.4031 71.5353C86.4169 71.4816 86.4306 71.4279 86.4453 71.3742C86.4355 70.9781 86.4266 70.5825 86.4186 70.1875C86.286 70.5738 86.3635 70.9628 86.3953 71.3517Z" fill="black"/>
<path d="M55.1259 70.5332C55.0674 70.9913 55.0674 71.455 55.1259 71.9131C55.2409 71.4604 55.2409 70.9859 55.1259 70.5332Z" fill="black"/>
<path d="M29.8494 72.035C29.8494 72.0298 29.8494 72.0264 29.8494 72.022C29.8442 71.97 29.8408 71.9172 29.8382 71.8652L29.7969 72.0281C29.8055 72.3936 29.8144 72.7595 29.8236 73.1256C29.9579 72.7618 29.8838 72.3988 29.8494 72.035Z" fill="black"/>
<path d="M12.9393 71.8598C12.8972 71.5661 13.0151 71.3946 13.2837 71.3132C12.9678 71.2205 12.7766 71.2707 12.8403 71.6709C12.8615 71.8662 12.871 72.0626 12.8687 72.2591C12.9772 72.1404 12.9583 71.9914 12.9393 71.8598Z" fill="black"/>
<path d="M24.9471 71.0547H23.9062C23.9062 71.0781 23.9062 71.1006 23.9062 71.1231L24.0733 71.1517L24.8825 71.1456L24.9686 71.0798C24.9669 71.0703 24.9548 71.0547 24.9471 71.0547Z" fill="black"/>
<path d="M17.2578 73.1953C17.2648 73.2181 17.27 73.2419 17.2752 73.2656C17.2856 73.248 17.2796 73.2243 17.2578 73.1953Z" fill="black"/>
<path d="M17.1602 72.0039C17.1602 72.4364 17.1602 72.8696 17.1602 73.3032L17.2178 73.2946L17.2566 73.1958C17.248 72.7991 17.2391 72.4027 17.2299 72.0065H17.161L17.1602 72.0039Z" fill="black"/>
<path d="M38.3875 72.5733C38.4013 72.4866 38.4151 72.4095 38.4297 72.3272C38.4202 72.018 38.4116 71.7096 38.403 71.4004C38.2541 71.7876 38.3703 72.1809 38.3875 72.5733Z" fill="black"/>
<path d="M15.4368 72.968C15.0064 72.8995 14.5811 72.9593 14.1523 72.968C14.5723 73.0871 15.0168 73.0871 15.4368 72.968Z" fill="black"/>
<path d="M61.0586 73.2755L61.4624 73.2998C61.5235 73.0399 61.4735 72.7801 61.4624 72.5254C61.2678 72.7367 61.5906 73.1525 61.0586 73.2755Z" fill="black"/>
<path d="M58.7135 72.0853V71.0527C58.6007 71.3876 58.6007 71.7504 58.7135 72.0853Z" fill="black"/>
<path d="M56.3203 73.6272C56.6599 73.6801 57.0055 73.6818 57.3456 73.6324C57.0133 73.5202 56.6538 73.5183 56.3203 73.6272Z" fill="black"/>
<path d="M8.30859 71.7461V72.6929C8.42568 72.3883 8.42568 72.0507 8.30859 71.7461Z" fill="black"/>
<path d="M31.5468 72.8691C31.5365 73.2044 31.5218 73.5405 31.6122 73.8688C31.595 73.5353 31.6914 73.194 31.5468 72.8691Z" fill="black"/>
<path d="M46.2617 71.1387V72.0846C46.3758 71.7797 46.3758 71.4435 46.2617 71.1387Z" fill="black"/>
<path d="M37.4674 71.7578H36.5273C36.83 71.8743 37.1648 71.8743 37.4674 71.7578Z" fill="black"/>
<path d="M36.2695 74.588C36.5814 74.6279 36.8969 74.6279 37.2088 74.588C36.9061 74.4733 36.5722 74.4733 36.2695 74.588Z" fill="black"/>
<path d="M60.8936 70.7051C60.8858 71.0117 60.8677 71.3192 60.9581 71.6181C60.9383 71.3132 61.0391 71.0005 60.8936 70.7051Z" fill="black"/>
<path d="M13.3841 72.9539L13.3591 72.0938C13.2575 72.3839 13.224 72.6759 13.3841 72.9539Z" fill="black"/>
<path d="M21.8791 73.8183V72.959C21.8223 73.095 21.793 73.2411 21.793 73.3886C21.793 73.5362 21.8223 73.6823 21.8791 73.8183Z" fill="black"/>
<path d="M86.9818 71.6404C86.8282 71.6553 86.6738 71.6611 86.5195 71.6577C86.7072 71.8439 87.0473 71.6187 87.1945 71.9124C87.2324 71.7357 87.2246 71.6057 86.9818 71.6404Z" fill="black"/>
<path d="M38.4965 74.1677C38.4965 73.8789 38.4942 73.5919 38.4896 73.3066C38.4309 73.4427 38.4012 73.5896 38.4024 73.7379C38.4036 73.8862 38.4356 74.0326 38.4965 74.1677Z" fill="black"/>
<path d="M17.3169 74.0804C17.3386 73.8071 17.3244 73.5322 17.2747 73.2627C17.2695 73.2393 17.2644 73.2159 17.2575 73.1934L17.2188 73.2921C17.2928 73.5494 17.1645 73.8326 17.3169 74.0804Z" fill="black"/>
<path d="M92.2713 71.0475C92.2764 70.7409 92.3023 70.4325 92.205 70.1328C92.2317 70.4377 92.1232 70.7522 92.2713 71.0475Z" fill="black"/>
<path d="M93.3362 71.6582C93.3121 71.7136 93.164 71.8037 93.3087 71.8185C93.4809 71.8358 93.6857 71.9198 93.839 71.7422C93.6754 71.6885 93.4852 71.7951 93.3362 71.6582Z" fill="black"/>
<path d="M16.7455 72.5234C16.7386 72.8015 16.7171 73.0804 16.8075 73.3507C16.8006 73.0735 16.8833 72.7902 16.7455 72.5234Z" fill="black"/>
<path d="M32.1175 74.5137C32.1235 74.2356 32.1468 73.9558 32.0521 73.6855C32.0753 73.961 31.9746 74.2469 32.1175 74.5137Z" fill="black"/>
<path d="M47.6289 74.0666H48.396C48.2756 74.0111 48.1448 73.9824 48.0124 73.9824C47.8801 73.9824 47.7493 74.0111 47.6289 74.0666Z" fill="black"/>
<path d="M66.7981 70.9609C66.8059 70.6829 66.8326 70.4031 66.7327 70.1328C66.7542 70.4091 66.6543 70.695 66.7981 70.9609Z" fill="black"/>
<path d="M16.8331 74.6016C16.8331 74.8614 16.7892 75.1317 16.8968 75.3864C17.0406 75.5016 17.1817 75.4548 17.3272 75.3794L16.8968 75.3855C16.8882 75.1239 16.9734 74.8536 16.8331 74.6016Z" fill="black"/>
<path d="M34.2978 74.5564L34.2031 74.5858C34.3671 74.6022 34.5321 74.6049 34.6964 74.5936C34.8746 74.5668 34.7111 74.4879 34.6964 74.4316L34.2978 74.5564Z" fill="black"/>
<path d="M50.9104 73.6523C50.888 73.7086 50.7382 73.7987 50.8819 73.8126C51.0541 73.8299 51.2607 73.9165 51.4123 73.7355C51.2409 73.7312 51.0645 73.7606 50.9104 73.6523Z" fill="black"/>
<path d="M10.3575 71.3242H9.76172C9.85181 71.3782 9.95472 71.4067 10.0596 71.4067C10.1645 71.4067 10.2674 71.3782 10.3575 71.3242Z" fill="black"/>
<path d="M32.1102 74.6875H31.6367C31.79 74.8322 31.9484 74.7455 32.1102 74.6875Z" fill="black"/>
<path d="M91.7866 71.4844C91.8047 71.6256 91.7005 71.7876 91.8589 71.9028C91.8452 71.7616 91.9011 71.6082 91.7866 71.4844Z" fill="black"/>
<path d="M85.9257 71.7588L85.4591 71.7285L84.457 71.7571C84.7816 71.8515 85.5202 71.8584 85.9257 71.7588Z" fill="black"/>
<path d="M9.52344 71.8419L10.4446 71.8315C10.1355 71.6903 9.82906 71.6687 9.52344 71.8419Z" fill="black"/>
<path d="M75.0988 69.5117C75.0919 69.5212 75.0781 69.5308 75.0781 69.5412C75.0781 70.0909 75.0781 70.6413 75.0781 71.1922H75.1453L75.1737 71.0267C75.1737 70.5486 75.1717 70.0704 75.1677 69.5923L75.0988 69.5117Z" fill="black"/>
<path d="M49.3281 71.3397V72.5784C49.3496 72.6096 49.3712 72.6416 49.3936 72.672C49.3936 72.672 49.4202 72.6607 49.4202 72.6546C49.4202 72.1592 49.4202 71.6645 49.4202 71.1699H49.3574L49.3281 71.3397Z" fill="black"/>
<path d="M55.5718 70.5527C55.5632 70.5605 55.5469 70.5683 55.5469 70.5753C55.5469 71.0118 55.5469 71.4484 55.5469 71.885H55.6097L55.6407 71.7204C55.6407 71.3601 55.6407 71.0003 55.6407 70.6411L55.5718 70.5527Z" fill="black"/>
<path d="M66.181 70.856C66.1879 70.856 66.187 70.8344 66.1896 70.8222C65.7188 70.7746 65.2446 70.7729 64.7734 70.817C64.7849 70.837 64.7982 70.8558 64.813 70.8733C64.8225 70.8829 64.8397 70.8829 64.8535 70.8881H66.1035C66.13 70.879 66.1558 70.8683 66.181 70.856Z" fill="black"/>
<path d="M64.582 72.8087C64.582 72.82 64.5898 72.8442 64.5941 72.8442C64.9522 72.8321 65.3224 72.9863 65.6642 72.7637L64.601 72.7706C64.5923 72.782 64.5859 72.7949 64.582 72.8087Z" fill="black"/>
<path d="M64.1535 72.1635C64.1535 71.9089 64.1535 71.6551 64.1492 71.4004C64.0766 71.5144 64.0383 71.6472 64.0391 71.7826C64.0398 71.918 64.0796 72.0504 64.1535 72.1635Z" fill="black"/>
<path d="M92.1156 70.3709C92.1156 70.0426 92.1156 69.7533 92.1156 69.4648C92.1156 69.3964 92.1233 69.3063 92.0295 69.2916C91.9184 69.2725 91.8702 69.3661 91.872 69.4492C91.884 70.1422 91.7764 70.8352 91.9365 71.5169C91.9589 71.6113 91.9555 71.7473 92.1035 71.7066C92.2344 71.6702 92.2051 71.5437 92.1758 71.4511C92.0553 71.0803 92.1483 70.7026 92.1156 70.3709Z" fill="black"/>
<path d="M17.0707 71.4248C17.0586 71.3546 17.0569 71.2723 16.9665 71.2602C16.8477 71.2446 16.8288 71.3356 16.8219 71.4248C16.8146 71.4965 16.8146 71.5688 16.8219 71.6405C16.9674 72.7666 16.8391 73.9091 16.9941 75.0361C17.0078 75.1331 16.9898 75.2665 17.1292 75.2587C17.2687 75.2509 17.2429 75.1184 17.2498 75.0205C17.2894 74.4444 17.1068 73.8788 17.1637 73.3019C17.1637 72.8694 17.1637 72.4362 17.1637 72.0025H17.2325C17.2325 71.7184 17.2807 71.43 17.1611 71.1562C17.1611 71.4378 17.1611 71.7193 17.1611 72.0017C17.0053 71.831 17.1043 71.6179 17.0707 71.4248Z" fill="black"/>
<path d="M46.4939 59.7061C45.2482 59.746 44.0042 59.8205 42.7593 59.8716C42.569 59.8794 42.4812 59.9123 42.4933 60.1384C42.5507 61.1311 42.5946 62.1246 42.625 63.1191C42.6327 63.3348 42.6758 63.4249 42.916 63.4067C43.5298 63.3582 44.1453 63.3374 44.9021 63.2984C45.4995 63.2118 46.2511 63.2984 46.9889 63.1736C47.5648 63.0723 47.8567 62.7734 47.9824 62.1965C48.0745 61.7764 48.0289 61.3641 47.9634 60.9518C47.83 60.1011 47.3496 59.681 46.4939 59.7061Z" fill="#FBBC2B"/>
<path d="M42.7481 57.2845C43.8759 57.2134 45.0045 57.1641 46.134 57.1112C47.1714 57.0662 47.5665 56.6227 47.4891 55.5711C47.4796 55.4411 47.4684 55.3112 47.4538 55.1839C47.3771 54.5264 47.075 54.2154 46.4147 54.231C45.1276 54.2631 43.8423 54.3428 42.5561 54.3904C42.3219 54.3991 42.2729 54.4883 42.2823 54.7031C42.2996 55.0765 42.2875 55.4515 42.2875 55.8292H42.3736C42.3736 56.1887 42.3917 56.5499 42.3684 56.9077C42.3486 57.2074 42.4416 57.3044 42.7481 57.2845Z" fill="#FBBC2B"/>
<path d="M32.1329 55.9822C31.8401 55.2467 31.3029 54.8561 30.5152 54.7495C29.9018 54.683 29.2825 54.6946 28.672 54.7842C27.4806 54.9288 26.9382 55.465 26.7066 56.6656C26.6438 56.9896 26.6024 57.317 26.5508 57.6436L26.5559 59.7615C26.642 60.0127 26.6076 60.2752 26.63 60.5325C26.698 61.3225 26.7755 62.109 27.0518 62.8617C27.3411 63.65 27.8723 64.1065 28.7134 64.2295C29.378 64.3257 30.0288 64.2719 30.6805 64.168C31.7084 64.0026 32.287 63.3763 32.4884 62.3576C32.7355 61.1267 32.6701 59.888 32.5986 58.6501C32.5504 57.7441 32.4738 56.838 32.1329 55.9822Z" fill="#FBBC2B"/>
<path d="M26.4805 57.3008V60.1862H26.5209C26.5321 60.045 26.5425 59.9038 26.5536 59.7626L26.5485 57.6447C26.5072 57.5364 26.5907 57.3995 26.4805 57.3008Z" fill="black"/>
</svg>
