<svg width="78" height="95" viewBox="0 0 78 95" fill="none" xmlns="http://www.w3.org/2000/svg">
<path fill-rule="evenodd" clip-rule="evenodd" d="M59.3468 64.9531V65.0015C59.3468 65.0015 48.5591 74.8515 45.6256 79.0948C39.5942 87.8181 38.999 91.6681 38.999 91.6681C38.999 91.6681 38.4784 88.1948 32.5114 79.2548C28.4859 73.2265 18.6512 65.0015 18.6512 65.0015V64.9531C12.9569 60.7555 8.7508 54.9033 6.62852 48.2254C4.50624 41.5475 4.57541 34.3826 6.82625 27.7455C9.07708 21.1085 13.3955 15.3357 19.1697 11.2451C24.9439 7.15438 31.8812 4.95312 38.999 4.95312C46.1167 4.95312 53.054 7.15438 58.8283 11.2451C64.6025 15.3357 68.9209 21.1085 71.1717 27.7455C73.4225 34.3826 73.4917 41.5475 71.3694 48.2254C69.2472 54.9033 65.041 60.7555 59.3468 64.9531Z" fill="#FCB514"/>
<path d="M39 64C53.9117 64 66 52.3594 66 38C66 23.6406 53.9117 12 39 12C24.0883 12 12 23.6406 12 38C12 52.3594 24.0883 64 39 64Z" fill="white"/>
<path d="M60.6425 36.567C60.6425 36.421 60.6099 36.3758 60.4556 36.3837C59.6251 36.4267 58.7938 36.4594 57.9629 36.4963C57.1319 36.5333 56.3006 36.572 55.4697 36.6104C54.2713 36.6658 53.073 36.7215 51.8748 36.7774C51.0059 36.8176 50.1402 36.8549 49.273 36.895C48.0807 36.9502 46.8885 37.0059 45.6966 37.0621C44.8172 37.1026 43.9381 37.1399 43.0586 37.1801C41.8663 37.235 40.6741 37.2908 39.4822 37.3474C38.8305 37.378 38.1817 37.4118 37.5314 37.4405C36.9659 37.4658 36.4 37.486 35.8345 37.5084C35.0379 37.8496 34.2468 38.2113 33.4 38.4324C32.2714 38.7288 31.1306 38.9246 29.9604 38.9079C28.6457 38.8887 27.3934 38.6236 26.2456 37.9651C26.2294 37.9579 26.2124 37.9524 26.195 37.9487C24.4877 38.0307 22.7806 38.1127 21.0736 38.1946C19.6478 38.2622 18.2224 38.3162 16.797 38.3897C16.537 38.4029 16.2712 38.372 16.0156 38.4498C16.0761 38.5163 16.0493 38.5969 16.0493 38.6712C16.0507 41.549 16.0507 44.4276 16.0493 47.3068C16.0493 47.4251 16.0627 47.5129 16.1941 47.5417L16.701 47.5183L20.5305 47.3423L25.2094 47.1291L29.0393 46.9532L33.7363 46.7379L37.5662 46.5619L42.2451 46.3487L46.8701 46.1355L51.5309 45.9223C53.0725 45.8512 54.614 45.7801 56.1555 45.709C57.5887 45.6446 59.0221 45.5829 60.4556 45.5239C60.6066 45.5179 60.6436 45.4724 60.6432 45.3288C60.6381 42.4074 60.6379 39.4868 60.6425 36.567ZM24.4364 46.5754C24.045 46.5904 23.6533 46.6049 23.2619 46.6252C23.1442 46.6312 23.1573 46.5541 23.1533 46.4866C23.137 46.0843 23.1229 45.6817 23.1059 45.2783C23.0617 44.2254 23.0135 43.1724 22.9752 42.1194C22.9701 41.9829 22.927 41.9542 22.7963 41.962C22.4111 41.9858 22.0255 41.9975 21.6377 42.0103C21.5001 42.0146 21.4357 42.0409 21.4273 42.2072C21.3579 43.6668 21.1575 45.1176 20.8285 46.5428C20.7952 46.6849 20.7441 46.7485 20.5877 46.7517C20.1786 46.7602 19.7698 46.7851 19.3368 46.8043C19.541 45.957 19.7018 45.1002 19.8187 44.2371C19.9635 43.1681 20.0591 42.0963 20.0645 41.0177C20.0645 40.8649 20.104 40.8234 20.2626 40.817C21.5486 40.7665 22.833 40.7086 24.1156 40.6432C24.2695 40.6354 24.3014 40.6787 24.3072 40.8234C24.3702 42.462 24.4415 44.1003 24.5099 45.7389C24.5201 45.9813 24.5226 46.2243 24.536 46.4667C24.5403 46.5442 24.5143 46.5726 24.4364 46.5754ZM52.4273 37.1424C52.6685 37.1331 52.9092 37.125 53.1496 37.1097C53.2351 37.104 53.2459 37.1452 53.2557 37.2124C53.3147 37.6161 53.4581 37.7408 53.8712 37.7494C54.0159 37.7579 54.161 37.7434 54.301 37.7064C54.5653 37.6253 54.6992 37.4825 54.7076 37.2088C54.7126 37.0553 54.772 37.0233 54.9118 37.0262C55.0986 37.028 55.2853 37.0198 55.4712 37.0017C55.5711 36.9928 55.6055 37.0134 55.6091 37.12C55.6395 38.0038 55.1196 38.5848 54.2221 38.6595C54.1134 38.6684 54.0048 38.6694 53.9252 38.673C53.6974 38.673 53.4997 38.6627 53.306 38.6108C52.6141 38.4246 52.352 37.8958 52.3075 37.2508C52.3035 37.1552 52.3545 37.1452 52.4288 37.1424H52.4273ZM31.1382 44.0263C31.1251 44.5281 31.0357 45.0132 30.7982 45.4631C30.5607 45.913 30.1765 46.214 29.6845 46.3626C29.0076 46.5663 28.2913 46.6099 27.594 46.4898C26.8039 46.3587 26.2974 45.9006 26.0407 45.171C25.7511 44.3462 25.7181 43.4908 25.7699 42.6294C25.7866 42.3278 25.8412 42.0294 25.9325 41.7409C26.1497 41.0657 26.5961 40.6144 27.2996 40.426C27.9814 40.2385 28.6983 40.2088 29.3938 40.3393C30.0628 40.4662 30.5364 40.8461 30.8036 41.4634C31.04 42.0099 31.1201 42.5878 31.1374 43.1763C31.1543 43.4594 31.1547 43.7432 31.1382 44.0263ZM37.6154 44.8924C37.4978 45.5495 37.0061 45.9724 36.2758 46.0164C35.3073 46.0754 34.3381 46.1138 33.3688 46.1611C33.1585 46.1714 32.9474 46.1781 32.737 46.1966C32.6255 46.2062 32.5955 46.1685 32.5922 46.0609C32.5618 45.2211 32.5234 44.3817 32.4894 43.542C32.4481 42.5071 32.413 41.4723 32.3641 40.4378C32.3565 40.2825 32.4003 40.2601 32.5451 40.2551C33.6291 40.2128 34.7124 40.1595 35.7961 40.113C36.0314 40.1027 36.2668 40.1055 36.4974 40.1588C36.9514 40.2654 37.2364 40.5341 37.3345 40.9861C37.4114 41.3157 37.423 41.6568 37.3689 41.9908C37.2856 42.4662 36.9634 42.7068 36.5148 42.8209C36.4452 42.8383 36.375 42.8529 36.3055 42.8696C36.3015 42.8696 36.2993 42.8785 36.2954 42.8845C36.4094 42.8998 36.5235 42.8973 36.6371 42.9179C37.144 43.0089 37.4514 43.3017 37.5723 43.7854C37.6653 44.1474 37.68 44.5245 37.6154 44.8924ZM43.5268 45.7005C43.1594 45.7076 42.792 45.7225 42.4247 45.7453C42.3117 45.7524 42.2799 45.7254 42.2799 45.6156C42.2643 45.1127 42.24 44.6099 42.2179 44.1074C42.21 43.9297 42.1988 43.7555 42.1883 43.5583C41.8446 43.7553 41.4707 43.8962 41.0811 43.9755C40.6842 44.0558 40.2751 44.0583 39.8772 43.983C39.3653 43.8838 39.0202 43.5786 38.8153 43.1113C38.6415 42.715 38.5651 42.2939 38.5351 41.871C38.4938 41.2924 38.4829 40.7118 38.4507 40.1325C38.4438 40.0046 38.4844 39.9754 38.6089 39.9733C38.9583 39.968 39.3084 39.9545 39.6567 39.9289C39.7914 39.9193 39.8302 39.947 39.8341 40.0845C39.8483 40.5874 39.8772 41.0895 39.904 41.592C39.9154 41.7753 39.9538 41.9559 40.0181 42.1283C40.135 42.4517 40.357 42.6468 40.7154 42.688C41.1017 42.7321 41.4757 42.6912 41.8262 42.5299C42.0796 42.4137 42.1415 42.2765 42.1285 42.0039C42.0956 41.3237 42.0709 40.6432 42.0391 39.963C42.0344 39.8638 42.0489 39.8102 42.1687 39.8077C42.5123 39.8006 42.8566 39.7832 43.1988 39.7697C43.3751 39.7267 43.4461 39.7899 43.4207 39.969C43.4147 40.0501 43.4147 40.1314 43.4207 40.2125C43.475 40.5408 43.4569 40.8735 43.4732 41.204C43.5351 42.5167 43.5818 43.8305 43.6343 45.144C43.6398 45.2801 43.6445 45.4166 43.6593 45.5516C43.6691 45.654 43.6445 45.698 43.5268 45.7005ZM50.1243 45.3913C49.7569 45.4044 49.3896 45.4236 49.0225 45.4489C48.9085 45.4564 48.869 45.4297 48.8646 45.3103C48.8375 44.5409 48.8013 43.7723 48.7683 43.0032C48.7524 42.6333 48.7372 42.2633 48.7216 41.8873C48.6532 41.9126 48.6492 41.9726 48.6286 42.0163C48.0525 43.1955 47.3874 44.3263 46.6659 45.4233C46.6058 45.5147 46.5449 45.5612 46.424 45.5655C46.0619 45.5722 45.6999 45.5946 45.3403 45.6191C45.2343 45.6262 45.1915 45.6074 45.1872 45.4916C45.155 44.5861 45.1148 43.6813 45.0786 42.7761C45.0398 41.806 45.0062 40.8354 44.9609 39.8656C44.9548 39.7327 44.9801 39.6815 45.1278 39.6787C45.4772 39.6719 45.8266 39.651 46.1753 39.6247C46.3045 39.6151 46.3371 39.6574 46.3414 39.7789C46.3777 40.7789 46.4168 41.7786 46.4569 42.7786C46.461 42.9699 46.4828 43.1605 46.5221 43.3479C46.6572 43.1347 46.7958 42.9247 46.9269 42.7083C47.5243 41.7306 48.0428 40.71 48.5446 39.6837C48.5678 39.6364 48.5956 39.5913 48.6213 39.5454C48.7578 39.4868 48.9012 39.5149 49.0421 39.5127C49.1413 39.4772 49.2441 39.485 49.3465 39.4879C49.5276 39.4779 49.7057 39.4715 49.8849 39.4562C49.9697 39.4488 50.0062 39.4694 50.0022 39.5579C49.9972 39.6695 50.0022 39.781 50.0022 39.8926C50.0384 40.0131 50.0305 40.1371 50.0279 40.2604C50.0313 40.4332 50.0348 40.6057 50.0384 40.7782C50.0765 40.8998 50.0667 41.0245 50.0645 41.1489C50.0689 41.3223 50.0734 41.4956 50.0783 41.6688C50.1311 42.0092 50.1145 42.3536 50.1326 42.6958C50.1793 43.5487 50.205 44.3995 50.2441 45.251C50.2492 45.3462 50.2322 45.3874 50.1243 45.3913ZM56.6598 45.0974C56.3166 45.1024 55.9719 45.1149 55.6301 45.1397C55.4806 45.1508 55.436 45.1117 55.431 44.962C55.3977 43.9386 55.3553 42.9154 55.3144 41.8923C55.3104 41.7935 55.3187 41.6926 55.2782 41.5895C55.0345 42.0515 54.8006 42.5096 54.5541 42.9606C54.1496 43.7001 53.7043 44.4158 53.2434 45.1223C53.2182 45.1682 53.1804 45.2062 53.1342 45.2319C53.088 45.2576 53.0354 45.27 52.9824 45.2677C52.6268 45.276 52.2715 45.2903 51.9165 45.3107C51.8078 45.3167 51.7745 45.2929 51.7716 45.1792C51.7149 43.6826 51.6546 42.1863 51.5906 40.6904C51.5747 40.3059 51.5587 39.9218 51.5334 39.538C51.5251 39.4171 51.5519 39.3724 51.6837 39.3706C52.0392 39.3656 52.3945 39.3514 52.7496 39.3279C52.8799 39.3191 52.9099 39.3592 52.9143 39.48C52.9418 40.237 52.9769 40.9939 53.0088 41.7505C53.0273 42.1798 53.045 42.6095 53.0953 43.0505C53.1848 42.9151 53.2763 42.7811 53.3629 42.6436C54.0211 41.5899 54.587 40.4882 55.1236 39.372C55.1801 39.2544 55.2441 39.2028 55.377 39.2004C55.7326 39.1933 56.0878 39.1765 56.4429 39.1563C56.5515 39.1499 56.5859 39.1826 56.5899 39.2917C56.6363 40.5514 56.6858 41.8112 56.7384 43.0711C56.7634 43.6919 56.7858 44.3131 56.8173 44.9336C56.8195 45.0584 56.7854 45.0953 56.6598 45.0974ZM58.1848 39.2657C57.9611 39.2277 57.9451 39.3517 57.9625 39.5209C57.981 39.6986 57.9788 39.8763 57.9936 40.054C58.0012 40.1446 57.9618 40.1606 57.881 40.167C57.8003 40.1734 57.78 40.1403 57.7779 40.0668C57.7717 39.8599 57.7489 39.6531 57.7514 39.4463C57.7514 39.3187 57.7105 39.2828 57.586 39.297C57.5233 39.3041 57.4234 39.3507 57.4183 39.2117C57.4133 39.0728 57.5157 39.119 57.5798 39.1101C57.6808 39.0959 57.784 39.0955 57.8861 39.0891V39.0849C57.9824 39.0849 58.0791 39.0895 58.1758 39.0849C58.2565 39.0799 58.2612 39.125 58.2645 39.1837C58.2677 39.2423 58.246 39.2764 58.1834 39.2657H58.1848ZM59.4082 40.0952C59.3072 40.0998 59.3036 40.0444 59.3039 39.9737C59.3039 39.7746 59.3039 39.5756 59.3039 39.3766L59.2511 39.3702C59.1957 39.5692 59.1396 39.7682 59.0863 39.9676C59.069 40.0326 59.0592 40.0884 58.9672 40.0945C58.8753 40.1005 58.8459 40.054 58.8224 39.9779C58.7558 39.7771 58.6805 39.5788 58.6088 39.3795L58.5795 39.3773C58.5907 39.5906 58.6001 39.8038 58.6157 40.0145C58.6211 40.0916 58.6062 40.1343 58.5154 40.141C58.4245 40.1478 58.4194 40.0902 58.4169 40.0305C58.4042 39.7409 58.3948 39.4509 58.3807 39.1616C58.3771 39.0923 58.402 39.055 58.4697 39.0635C58.5483 39.0728 58.6508 38.9992 58.6971 39.1346C58.7761 39.3628 58.8662 39.5877 58.9658 39.851C59.0382 39.5945 59.1081 39.3741 59.1548 39.1488C59.1863 38.9989 59.2902 39.0255 59.3876 39.0216C59.5121 39.0166 59.473 39.1151 59.4763 39.1748C59.4918 39.4406 59.4973 39.7078 59.5125 39.9726C59.5121 40.0501 59.5002 40.0909 59.4068 40.0952H59.4082Z" fill="#FBBC2B"/>
<path d="M26.2437 37.965C27.3914 38.6235 28.6438 38.889 29.9584 38.9078C31.1293 38.9245 32.2702 38.7302 33.398 38.4324C34.2449 38.2099 35.0342 37.8481 35.8325 37.5084C36.8879 37.131 37.7782 36.4707 38.7225 35.9C39.5415 35.4049 41.1762 34.0062 41.3185 33.8359C41.1334 33.9425 40.9727 34.0307 40.8156 34.1249C39.1957 35.0979 37.5081 35.9295 35.7134 36.5521C33.7894 37.2198 31.8343 37.7276 29.781 37.7902C29.045 37.8122 28.3093 37.7987 27.5902 37.626C26.1532 37.2802 25.0739 36.4888 24.4533 35.1448C24.3146 34.8441 24.2343 34.5236 24.1238 34.2133L24.0706 34.4639C24.0721 34.4895 24.0666 34.515 24.0547 34.5378C24.0778 34.7539 24.1185 34.9678 24.1763 35.1775C24.4986 36.3463 25.1427 37.2902 26.193 37.9494C26.2104 37.9529 26.2274 37.9581 26.2437 37.965Z" fill="#0F0F0F"/>
<path d="M41.9688 33.3392C41.8855 33.4167 41.8012 33.4931 41.6875 33.5976C41.8193 33.5621 41.8866 33.5049 41.958 33.4555C42.8367 32.8449 43.7321 32.2536 44.588 31.6157C45.2733 31.1054 45.9178 30.5414 46.5746 29.9945C46.983 29.654 47.4236 29.3473 47.7889 28.9607C49.1459 27.5243 50.4976 26.0834 51.844 24.6383C52.6626 23.7548 53.5348 22.9186 54.2619 21.9545C54.9994 20.9768 55.7575 20.0141 56.5066 19.0447C56.4932 19.0013 56.4628 18.9928 56.4223 19.0052C56.3777 19.0443 56.331 19.0816 56.2887 19.1228C55.5988 19.7938 54.9096 20.4651 54.2209 21.1368C52.0124 23.2889 49.7832 25.4187 47.6553 27.649C45.8056 29.5897 43.9341 31.5087 41.9688 33.3392Z" fill="#0F0F0F"/>
<path d="M39.8662 22.6578C39.7786 22.8134 39.809 22.9595 39.9386 23.0487C40.0682 23.1379 40.1852 23.1027 40.2884 22.9933C40.3365 22.9417 40.3923 22.8966 40.4444 22.849C40.483 22.8384 40.5185 22.8191 40.548 22.7925C40.5244 22.8223 40.5016 22.8525 40.481 22.8849C40.4086 23.0203 40.4183 23.1443 40.5422 23.2452C40.666 23.3461 40.7717 23.2871 40.8782 23.2097C40.9965 23.1223 41.1186 23.0398 41.2402 22.9552C41.2661 22.9533 41.2915 22.9473 41.3155 22.9375C41.3014 22.952 41.288 22.9673 41.2746 22.9833C41.2326 23.016 41.191 23.0498 41.1479 23.0814C40.9813 23.2051 40.9444 23.3181 41.0313 23.4531C41.1294 23.6049 41.2543 23.5672 41.3916 23.5075C42.0409 23.2248 42.6914 22.9449 43.3431 22.6677C43.4589 22.6183 43.5581 22.5256 43.6961 22.5323C43.6743 22.5981 43.6059 22.6034 43.5567 22.6308C42.884 22.9897 42.2101 23.3469 41.5349 23.7022C41.3988 23.7733 41.3137 23.8661 41.376 24.0285C41.4383 24.1909 41.5487 24.2115 41.7084 24.1706C42.032 24.0857 42.3601 24.0164 42.6859 23.9407C42.696 23.9448 42.7064 23.9482 42.7171 23.9506C42.7057 23.9568 42.6961 23.9658 42.6892 23.9766C42.6041 24.0047 42.5176 24.0284 42.4299 24.0476C42.283 24.0732 42.2033 24.1482 42.208 24.2964C42.2127 24.4446 42.3083 24.4929 42.4401 24.5199C42.9575 24.6248 43.4734 24.7353 43.9901 24.844C44.0017 24.8583 44.0154 24.8709 44.0306 24.8814C44.0088 24.8802 43.987 24.883 43.9662 24.8895H43.9604C43.9634 24.8935 43.9667 24.8973 43.9702 24.9009C43.9032 24.9109 43.8358 24.9251 43.775 24.8792L42.5078 24.8082C42.3612 24.8707 42.208 24.8245 42.0581 24.8337C41.9053 25.0004 41.9205 25.1443 42.1102 25.2442C42.6171 25.5111 43.1284 25.7737 43.6378 26.0381C43.6414 25.9624 43.5733 25.9347 43.5292 25.896C43.2638 25.6593 42.9955 25.4254 42.7084 25.1731L44.1722 24.9418C44.1765 24.9315 44.1773 24.9202 44.1744 24.9094V24.9059C44.171 24.9019 44.1671 24.8984 44.1628 24.8956H44.1519C44.157 24.8956 44.162 24.892 44.1675 24.8895C44.17 24.8872 44.1723 24.8847 44.1744 24.8821V24.8739C44.1757 24.8635 44.1748 24.853 44.1718 24.843L42.9488 24.2797L44.5321 23.5171C44.4799 23.4634 44.4064 23.5199 44.351 23.4815L44.355 23.4862C44.2446 23.5928 44.0958 23.596 43.9568 23.6283C43.9133 23.5512 43.8499 23.5594 43.7732 23.5732C43.6179 23.6013 43.46 23.6184 43.305 23.5629L42.4075 23.6315C42.469 23.581 42.4944 23.5587 42.5212 23.5384C42.9412 23.2209 43.3612 22.9038 43.7812 22.5871C43.8264 22.5515 43.8898 22.5316 43.8898 22.4588L43.8123 22.4545L43.7547 22.4133C43.6955 22.4181 43.6372 22.43 43.5809 22.4488C43.082 22.5835 42.5813 22.7132 42.0813 22.8444L42.0451 22.8017L42.5483 22.3511C42.5244 22.2445 42.6323 22.2246 42.6794 22.1681C42.761 22.0729 42.8503 21.9845 42.9466 21.9037C43.0418 21.8212 42.9727 21.8045 42.9061 21.7811C43.1371 21.6034 43.3561 21.4122 43.6197 21.2807C43.674 21.2853 43.6537 21.2096 43.7008 21.2071C43.7029 21.1936 43.7005 21.1797 43.694 21.1675C43.6875 21.1554 43.6772 21.1456 43.6646 21.1396L41.5932 22.2562L41.5773 22.2299L42.5089 20.9299C42.5074 20.9181 42.5074 20.9062 42.5089 20.8944L42.4003 20.9655C42.389 20.9655 42.3782 20.9655 42.3669 20.9655L42.4452 20.8589L42.3995 20.8564L40.6425 22.0849C40.8235 21.5814 40.9955 21.1133 41.1656 20.6453L41.0614 20.5742C40.9136 20.8283 40.7648 21.0817 40.6186 21.3365C40.3684 21.7768 40.1149 22.2164 39.8662 22.6578Z" fill="#0F0F0F"/>
<path d="M42.5046 20.8935C42.501 20.8904 42.4968 20.8881 42.4922 20.8867L42.5046 20.8935Z" fill="#0F0F0F"/>
<path d="M42.5807 26.7174C42.5221 26.6932 42.4935 26.6267 42.4272 26.6129C42.391 26.5606 42.3577 26.502 42.2802 26.4995C42.2411 26.4199 42.1662 26.3705 42.1079 26.3069C42.0872 26.2983 42.0651 26.293 42.0427 26.2913C41.9587 26.2433 41.8743 26.2277 41.794 26.2966C41.7136 26.3655 41.7078 26.4387 41.7215 26.5368C41.7607 26.781 41.7845 27.0276 41.8197 27.2728C41.8313 27.3513 41.8016 27.372 41.7281 27.384C41.6267 27.4007 41.517 27.368 41.3906 27.4338C41.6231 27.5454 41.8269 27.652 42.038 27.7423C42.1578 27.7934 42.2628 27.7049 42.2552 27.571C42.2483 27.4263 42.1882 27.297 42.1184 27.1733C42.021 27.002 41.9167 26.8343 41.8037 26.6452L42.7867 26.9228C42.7954 26.8723 42.7636 26.8517 42.7436 26.8222C42.6763 26.8062 42.6133 26.7842 42.5807 26.7174Z" fill="#0F0F0F"/>
<path d="M43.4352 26.0283C42.9568 25.8999 42.4792 25.7696 42.0022 25.6374C41.8918 25.6065 41.7987 25.6125 41.7368 25.717C41.6749 25.8215 41.6887 25.916 41.7839 26.0013C41.8791 26.0866 41.9751 26.179 42.0703 26.2693C42.0811 26.2847 42.0932 26.2992 42.1065 26.3126C42.1648 26.3762 42.2397 26.4256 42.2788 26.5052C42.3563 26.5077 42.3874 26.5664 42.4258 26.6186C42.4921 26.6325 42.5207 26.6989 42.5793 26.7231C42.6123 26.7899 42.6749 26.8119 42.7423 26.8265L42.285 26.06L43.6608 26.115L43.6633 26.044C43.6535 26.0429 43.6435 26.0439 43.634 26.0468L43.6384 26.044L43.634 26.0415C43.6338 26.0431 43.6338 26.0448 43.634 26.0465C43.5652 26.0902 43.4993 26.0454 43.4352 26.0283Z" fill="#0F0F0F"/>
<path d="M41.6872 28.3799C41.7698 28.3088 41.7597 28.2243 41.7311 28.1365C41.6547 27.8931 41.5015 27.6916 41.3462 27.4805C41.3257 27.6122 41.3191 27.7457 41.3266 27.8788C41.331 27.962 41.3198 28.0032 41.218 28.0093C41.0746 28.0226 40.9321 28.0441 40.7911 28.0736C40.7738 28.0768 40.739 28.0466 40.7386 28.107C40.7386 28.4201 40.6528 28.4521 40.3733 28.6088C40.3668 28.6418 40.3733 28.6685 40.4095 28.6799C40.4841 28.7154 40.5576 28.7538 40.6344 28.7865C40.7372 28.8284 40.8462 28.8575 40.9374 28.7698C41.0287 28.682 41.0066 28.5722 40.9667 28.4713C40.9244 28.3646 40.8675 28.2644 40.8074 28.1411C41.0344 28.2303 41.2444 28.3103 41.4523 28.3952C41.5359 28.4272 41.6119 28.4439 41.6872 28.3799Z" fill="#0F0F0F"/>
<path d="M16.0485 47.3023C16.0517 44.424 16.0517 41.5455 16.0485 38.6667C16.0485 38.5924 16.0753 38.5118 16.0148 38.4453C16.0109 38.4862 16.0029 38.527 16.0029 38.5679C16.0036 41.5085 16.0027 44.4484 16 47.3876C16 47.5525 16.0702 47.561 16.1937 47.5372C16.0619 47.5084 16.0482 47.4207 16.0485 47.3023Z" fill="#FAB71C"/>
<path d="M42.9446 21.9042C42.8484 21.985 42.759 22.0735 42.6774 22.1686C42.6304 22.2251 42.5225 22.245 42.5464 22.3516C42.8901 22.0259 43.2337 21.7001 43.5772 21.3744C43.5905 21.3627 43.6011 21.3484 43.6081 21.3323C43.6151 21.3162 43.6184 21.2987 43.6177 21.2812C43.3541 21.4127 43.1351 21.6054 42.9041 21.7816C42.9722 21.8065 43.0399 21.8218 42.9446 21.9042Z" fill="#0F0F0F"/>
<path d="M40.3051 21.5815L41.0325 20.504C41.0362 20.4977 41.0382 20.4906 41.0382 20.4834C41.0382 20.4761 41.0362 20.469 41.0325 20.4628C41.0299 20.4606 41.0268 20.459 41.0236 20.4581C41.0203 20.4571 41.0169 20.4568 41.0135 20.4572C41.0101 20.4575 41.0069 20.4586 41.0039 20.4602C41.0009 20.4618 40.9983 20.464 40.9963 20.4667C40.753 20.7983 40.5094 21.1294 40.2656 21.4599C40.3243 21.4859 40.3261 21.5296 40.3051 21.5815Z" fill="#0F0F0F"/>
<path d="M43.7714 23.5742C43.8481 23.5603 43.9115 23.5522 43.9549 23.6293C44.0925 23.5966 44.2413 23.5937 44.3532 23.4871C44.1458 23.4729 43.943 23.5177 43.7377 23.5294C43.6765 23.5788 43.6048 23.5529 43.5371 23.5561L43.3047 23.5642C43.4582 23.6193 43.6161 23.6023 43.7714 23.5742Z" fill="#0F0F0F"/>
<path d="M24.124 34.2149L24.0089 33.69L23.9727 33.6875C23.9811 33.9733 24.0087 34.2582 24.0552 34.5404L24.0711 34.4665L24.124 34.2149Z" fill="#0F0F0F"/>
<path d="M41.3556 20.0781H41.3144L41.1648 20.2913C41.1235 20.3724 41.0609 20.4445 41.0595 20.5401C41.0583 20.5519 41.0583 20.5638 41.0595 20.5756L41.1637 20.6467C41.2282 20.4573 41.3339 20.2796 41.3556 20.0781Z" fill="#0F0F0F"/>
<path d="M42.4426 20.8613L42.4911 20.8866C42.4969 20.8883 42.5022 20.8912 42.5067 20.8951C42.5052 20.9069 42.5052 20.9188 42.5067 20.9306C42.593 20.8368 42.6651 20.7312 42.7207 20.6172L42.3984 20.8588L42.4441 20.8613H42.4426Z" fill="#0F0F0F"/>
<path d="M52.2986 47.3874C52.2986 47.3948 52.2986 47.397 52.2986 47.3973C52.2997 47.3992 52.3005 47.4013 52.3011 47.4034C52.3073 47.419 52.3138 47.3945 52.3229 47.3934C52.3192 47.2543 52.3157 47.1154 52.3124 46.9766C52.2838 47.1134 52.3048 47.2513 52.2986 47.3874Z" fill="#0F0F0F"/>
<path d="M43.207 47.4083L43.5883 47.4044C43.4635 47.3691 43.331 47.3705 43.207 47.4083Z" fill="#0F0F0F"/>
<path d="M30.3477 35.1024C30.502 35.1317 30.6607 35.1317 30.8151 35.1024C30.6597 35.0857 30.503 35.0857 30.3477 35.1024Z" fill="#0F0F0F"/>
<path d="M19.7617 50.5818C19.7801 50.7097 19.7342 50.7776 19.5977 50.7769C19.7425 50.8146 19.8069 50.7705 19.7787 50.617C19.7718 50.5535 19.7689 50.4896 19.77 50.4258C19.753 50.4761 19.7502 50.53 19.7617 50.5818Z" fill="#0F0F0F"/>
<path d="M31 35.0587C31.0854 35.0317 31.1789 35.0231 31.2476 34.9414L31.0351 34.9702C31.0565 35.0121 31.0199 35.0324 31 35.0587Z" fill="#0F0F0F"/>
<path d="M42.5044 24.8096C42.3548 24.8213 42.1995 24.7417 42.0547 24.8351C42.2046 24.8259 42.3563 24.8721 42.5044 24.8096Z" fill="#0F0F0F"/>
<path d="M42.4334 47.2969L42.0352 47.3029C42.1691 47.3186 42.3016 47.3299 42.4334 47.2969Z" fill="#0F0F0F"/>
<path d="M43.8166 21.1406L43.8125 21.1434C43.8139 21.1434 43.8152 21.1425 43.8166 21.1406Z" fill="#0F0F0F"/>
<path d="M43.7014 21.2078C43.7593 21.2213 43.7904 21.1908 43.8121 21.1439C43.8121 21.1321 43.8121 21.1204 43.8121 21.1083C43.752 21.0696 43.7064 21.0973 43.6641 21.14C43.6769 21.1458 43.6875 21.1556 43.6942 21.1678C43.7009 21.18 43.7034 21.1941 43.7014 21.2078Z" fill="#0F0F0F"/>
<path d="M54.7701 47.2577C54.7726 47.1319 54.7802 47.0058 54.7422 46.8828C54.7817 47.0058 54.736 47.1348 54.7701 47.2577Z" fill="#0F0F0F"/>
<path d="M54.5649 47.4727C54.5631 47.5985 54.5533 47.725 54.5931 47.8476C54.5533 47.7246 54.5996 47.5956 54.5649 47.4727Z" fill="#0F0F0F"/>
<path d="M40.9492 47.5452L41.3113 47.5391C41.1889 47.5228 41.0687 47.5118 40.9492 47.5452Z" fill="#0F0F0F"/>
<path d="M48.3308 46.9805H48.0078C48.1146 46.9995 48.224 46.9995 48.3308 46.9805Z" fill="#0F0F0F"/>
<path d="M44.5287 23.5163L44.6145 23.4808C44.5211 23.4538 44.4335 23.4435 44.3477 23.4843C44.4027 23.5192 44.4762 23.4626 44.5287 23.5163Z" fill="#0F0F0F"/>
<path d="M43.8147 22.4542L43.8921 22.4585L43.9562 22.4198C43.9562 22.4059 43.9562 22.3924 43.9562 22.3789C43.89 22.3889 43.8165 22.3601 43.7578 22.4144L43.8147 22.4542Z" fill="#0F0F0F"/>
<path d="M44.0907 22.3193C44.0642 22.3136 44.0366 22.3164 44.0118 22.3273C43.9871 22.3382 43.9665 22.3565 43.9531 22.3797C43.9531 22.3932 43.9531 22.4067 43.9531 22.4205C44.0281 22.4259 44.0617 22.3797 44.0907 22.3193Z" fill="#4A4A4A"/>
<path d="M41.4037 19.9336C41.3621 19.9801 41.3092 20.0086 41.3172 20.0775H41.3585C41.3922 20.0406 41.4447 20.01 41.4037 19.9336Z" fill="#0F0F0F"/>
<path d="M43.5911 47.1953H43.3047C43.3992 47.2142 43.4966 47.2142 43.5911 47.1953Z" fill="#0F0F0F"/>
<path d="M44.1705 24.8736V24.9091C44.1734 24.9199 44.1727 24.9312 44.1683 24.9415C44.2045 24.9482 44.2534 24.9482 44.2585 24.9148C44.2668 24.8597 44.2074 24.8569 44.168 24.8438C44.1708 24.8534 44.1717 24.8636 44.1705 24.8736Z" fill="#0F0F0F"/>
<path d="M23.9643 33.5156C23.9328 33.5867 23.9317 33.6393 23.9744 33.6873L24.0106 33.6898C23.9969 33.6368 23.9824 33.5835 23.9643 33.5156Z" fill="#0F0F0F"/>
<path d="M54.5588 46.7344C54.5013 46.8101 54.5364 46.8865 54.5566 46.9629C54.5378 46.8865 54.5262 46.8101 54.5588 46.7344Z" fill="#0F0F0F"/>
<path d="M43.6602 26.1147C43.6917 26.1129 43.7416 26.1445 43.7474 26.0955C43.7482 26.0854 43.7461 26.0753 43.7415 26.0662C43.7369 26.0572 43.7299 26.0495 43.7212 26.044C43.7126 26.0386 43.7025 26.0355 43.6922 26.0352C43.6819 26.0349 43.6717 26.0373 43.6627 26.0422L43.6602 26.1147Z" fill="#737373"/>
<path d="M43.7357 23.5275C43.6677 23.5172 43.598 23.5265 43.5352 23.5542C43.6029 23.551 43.6745 23.5769 43.7357 23.5275Z" fill="#0F0F0F"/>
<path d="M40.3745 28.6094C40.3021 28.6542 40.3383 28.705 40.3662 28.7554C40.351 28.7199 40.3691 28.7117 40.4024 28.7171C40.4056 28.7046 40.4089 28.6922 40.4125 28.6797C40.3738 28.6677 40.3676 28.6424 40.3745 28.6094Z" fill="#0F0F0F"/>
<path d="M43.8168 21.14C43.8327 21.131 43.8463 21.1186 43.8565 21.1037C43.8667 21.0888 43.8733 21.0718 43.8759 21.054C43.8663 21.0445 43.8533 21.0392 43.8397 21.0391C43.8009 21.049 43.8252 21.0867 43.8125 21.1101C43.8125 21.1219 43.8125 21.1336 43.8125 21.1457L43.8168 21.14Z" fill="#0F0F0F"/>
<path d="M43.9686 24.9031C43.9651 24.8994 43.9619 24.8956 43.9588 24.8917C43.9552 24.8874 43.9512 24.8835 43.9476 24.8789L43.7734 24.8814C43.8343 24.9272 43.9016 24.913 43.9686 24.9031Z" fill="#0F0F0F"/>
<path d="M36.6372 42.9152C36.5235 42.8946 36.4095 42.8971 36.2954 42.8818C36.2994 42.8757 36.3016 42.8679 36.3056 42.8669C36.3751 42.8502 36.4453 42.8356 36.5148 42.8182C36.9634 42.7041 37.2857 42.4628 37.3689 41.988C37.4231 41.6541 37.4114 41.313 37.3345 40.9834C37.2364 40.5313 36.9515 40.2609 36.4975 40.1561C36.2665 40.1028 36.0315 40.0999 35.7961 40.1102C34.7125 40.1582 33.6292 40.2115 32.5452 40.2524C32.4004 40.258 32.3562 40.2797 32.3642 40.435C32.4131 41.4695 32.4482 42.5044 32.4894 43.5392C32.5235 44.379 32.5619 45.2184 32.5923 46.0581C32.5963 46.1647 32.6263 46.2035 32.7371 46.1939C32.9475 46.1765 33.1585 46.1697 33.3689 46.1583C34.3381 46.1111 35.3074 46.0727 36.2759 46.0137C37.0069 45.9696 37.4986 45.5467 37.6155 44.8896C37.6801 44.5209 37.665 44.1429 37.5713 43.7802C37.4515 43.299 37.1426 43.0062 36.6372 42.9152ZM33.8207 42.3466C33.8305 42.1998 33.8229 42.0516 33.8229 41.9041H33.7867C33.7867 41.7506 33.7918 41.5967 33.7845 41.4422C33.7806 41.354 33.8012 41.3174 33.8997 41.3139C34.4406 41.2943 34.9811 41.2616 35.5224 41.2485C35.8001 41.2417 35.9272 41.3693 35.9594 41.6394C35.9656 41.692 35.9703 41.746 35.9743 41.7982C36.0069 42.2297 35.8407 42.4116 35.4044 42.4301C34.9294 42.4507 34.4547 42.471 33.9804 42.5012C33.8515 42.5104 33.8124 42.4706 33.8207 42.3487V42.3466ZM36.1814 44.5165C36.1285 44.7532 36.0058 44.8758 35.7636 44.9174C35.4533 44.9703 35.1372 44.9316 34.8859 44.9685C34.5677 44.9845 34.3088 44.9931 34.0507 45.013C33.9496 45.0204 33.9315 44.9835 33.9283 44.895C33.9145 44.487 33.8961 44.0794 33.8729 43.6721C33.8678 43.5794 33.9047 43.5655 33.9848 43.5627C34.5083 43.5417 35.0315 43.5111 35.5554 43.4948C35.9174 43.4838 36.1173 43.6569 36.1734 44.0058C36.2009 44.1764 36.2201 44.3456 36.1814 44.5165Z" fill="#0F0F0F"/>
<path d="M56.7323 43.0712C56.6825 41.8115 56.6335 40.5519 56.5853 39.2925C56.5813 39.1834 56.5491 39.1503 56.4383 39.1571C56.0831 39.1773 55.7279 39.1926 55.3724 39.2012C55.2388 39.2036 55.1747 39.2552 55.1189 39.3728C54.5823 40.489 54.0164 41.5907 53.3582 42.6444C53.2724 42.7819 53.1801 42.9159 53.0907 43.0513C53.0396 42.6103 53.0226 42.1806 53.0041 41.7513C52.9723 40.9947 52.9371 40.2378 52.9096 39.4808C52.9053 39.36 52.8752 39.3199 52.7449 39.3287C52.3901 39.3524 52.0348 39.3666 51.679 39.3714C51.5472 39.3714 51.5204 39.4179 51.5287 39.5388C51.5541 39.9226 51.57 40.3067 51.5859 40.6912C51.6482 42.1874 51.7085 43.6836 51.767 45.18C51.7713 45.2937 51.8061 45.3175 51.9118 45.3115C52.2666 45.2916 52.6219 45.2772 52.9777 45.2685C53.0307 45.2708 53.0834 45.2584 53.1295 45.2327C53.1757 45.207 53.2136 45.169 53.2387 45.1231C53.6996 44.4166 54.1439 43.7016 54.5494 42.9614C54.7963 42.5104 55.0302 42.0523 55.2735 41.5903C55.3144 41.6934 55.3061 41.7943 55.3097 41.8931C55.3506 42.9162 55.393 43.9394 55.4263 44.9628C55.4314 45.1121 55.4759 45.1512 55.6254 45.1405C55.9679 45.1157 56.3134 45.105 56.6551 45.0982C56.7822 45.0961 56.8163 45.0592 56.8101 44.9348C56.7797 44.3132 56.7572 43.692 56.7323 43.0712Z" fill="#0F0F0F"/>
<path d="M50.1345 42.693C50.1157 42.3507 50.1345 42.0064 50.0802 41.6659V41.9786C50.036 41.9929 50.0393 41.9694 50.0389 41.9584C50.0255 41.4865 50.0277 41.0134 49.9955 40.5429C49.9749 40.2419 49.9629 39.942 49.9662 39.6413C49.9662 39.5195 49.8992 39.5084 49.8043 39.5123C49.4326 39.5275 49.0607 39.5417 48.6885 39.555C48.666 39.5532 48.6439 39.5488 48.6226 39.5418C48.5969 39.5877 48.569 39.6328 48.5458 39.6801C48.0425 40.7075 47.5255 41.7281 46.9285 42.7072C46.7974 42.9222 46.6587 43.1336 46.5237 43.3468C46.4839 43.1579 46.4618 42.9658 46.4578 42.7729C46.4176 41.7729 46.3771 40.7732 46.3423 39.7732C46.338 39.6517 46.3061 39.6094 46.1761 39.619C45.8275 39.6453 45.4781 39.6662 45.1287 39.673C44.981 39.6758 44.9556 39.727 44.9618 39.8599C45.0052 40.8297 45.0407 41.8002 45.0794 42.7704C45.1156 43.6756 45.1558 44.5803 45.1881 45.4858C45.1924 45.6017 45.2351 45.6205 45.3412 45.6134C45.7033 45.5889 46.0635 45.5665 46.4249 45.5598C46.5458 45.5573 46.6059 45.5107 46.6667 45.4176C47.3883 44.3191 48.0534 43.1898 48.6294 42.0106C48.6508 41.9669 48.6541 41.9069 48.7225 41.8816C48.7381 42.2576 48.7533 42.6279 48.7692 42.9975C48.8021 43.7665 48.8383 44.5352 48.8655 45.3046C48.8698 45.424 48.9093 45.4507 49.0234 45.4432C49.39 45.4183 49.7573 45.3991 50.1251 45.3856C50.2337 45.3817 50.2504 45.3405 50.246 45.2435C50.2073 44.3966 50.1801 43.5441 50.1345 42.693Z" fill="#0F0F0F"/>
<path d="M31.1379 43.1747C31.1205 42.5862 31.0405 42.0083 30.804 41.4618C30.5368 40.8445 30.0633 40.4646 29.3942 40.3377C28.6987 40.2072 27.9818 40.2369 27.3 40.4244C26.5965 40.6124 26.1505 41.0641 25.9329 41.7393C25.8416 42.0277 25.787 42.3261 25.7703 42.6277C25.7185 43.4892 25.7511 44.3446 26.0411 45.1694C26.2978 45.899 26.8044 46.357 27.5944 46.4882C28.2917 46.6083 29.0081 46.5647 29.6849 46.3609C30.177 46.2124 30.5586 45.9164 30.7986 45.4615C31.0387 45.0066 31.1245 44.5265 31.1386 44.0247C31.0887 43.7435 31.0884 43.456 31.1379 43.1747ZM29.6657 44.5816C29.5796 44.9995 29.3363 45.2568 28.9054 45.3243C28.6313 45.367 28.3576 45.389 28.0781 45.3495C27.7244 45.2991 27.501 45.1118 27.3793 44.7884C27.2631 44.4796 27.2305 44.1569 27.2019 43.8328C27.1925 43.7262 27.207 43.6196 27.1708 43.5165C27.1661 43.5745 27.1617 43.6324 27.157 43.6903H27.14V42.5066C27.1863 42.5471 27.1512 42.6032 27.1686 42.6487C27.1903 42.5147 27.2077 42.3804 27.2341 42.2475C27.3315 41.7549 27.56 41.535 28.0607 41.4756C28.3175 41.4389 28.5779 41.4341 28.8359 41.4614C29.1672 41.504 29.3931 41.6654 29.5162 41.9671C29.661 42.3182 29.6918 42.6899 29.7135 43.0616C29.7421 43.5684 29.7696 44.0766 29.6657 44.5816Z" fill="#0F0F0F"/>
<path d="M24.5075 45.7372C24.4391 44.0986 24.3678 42.4603 24.3048 40.8217C24.299 40.6756 24.2686 40.6337 24.1132 40.6415C22.8306 40.7064 21.5477 40.7651 20.2645 40.8174C20.106 40.8238 20.0676 40.8654 20.0665 41.0182C20.0611 42.0968 19.964 43.1686 19.8207 44.2376C19.7042 45.1006 19.5437 45.9575 19.3398 46.8048C19.7743 46.7856 20.1816 46.7607 20.5908 46.7522C20.7472 46.749 20.7982 46.6861 20.8315 46.5432C21.1605 45.1181 21.3609 43.6673 21.4304 42.2077C21.4387 42.0413 21.5028 42.015 21.6407 42.0108C22.0267 41.9994 22.4123 41.9863 22.7993 41.9625C22.93 41.9546 22.9731 41.9834 22.9782 42.1199C23.0166 43.1729 23.0647 44.2258 23.1089 45.2788C23.1259 45.6807 23.14 46.0834 23.1563 46.4871C23.1592 46.5553 23.1462 46.6317 23.2649 46.6257C23.6563 46.6054 24.0481 46.5901 24.4395 46.5759C24.5159 46.5731 24.5419 46.5446 24.5376 46.4661C24.5213 46.222 24.5188 45.9796 24.5075 45.7372Z" fill="#0F0F0F"/>
<path d="M43.6339 45.1446C43.5811 43.8297 43.5347 42.5173 43.4728 41.2045C43.4572 40.874 43.4728 40.5414 43.4203 40.213V40.53H43.3772C43.3772 40.3612 43.3649 40.191 43.3809 40.0236C43.3953 39.8751 43.3475 39.793 43.198 39.7695C42.8548 39.783 42.5101 39.8004 42.168 39.8076C42.0481 39.81 42.0336 39.8637 42.0383 39.9629C42.0702 40.643 42.0948 41.3236 42.1278 42.0038C42.1408 42.2763 42.0785 42.4135 41.8254 42.5297C41.4735 42.6911 41.1013 42.7319 40.7146 42.6879C40.3562 42.6466 40.1353 42.4515 40.0173 42.1282C39.953 41.9558 39.9146 41.7751 39.9033 41.5919C39.8765 41.0894 39.8475 40.5872 39.8334 40.0844C39.8294 39.9469 39.7907 39.9191 39.656 39.9287C39.3077 39.9543 38.9576 39.9678 38.6082 39.9732C38.4836 39.9753 38.4431 40.0044 38.45 40.1324C38.4822 40.7116 38.493 41.2923 38.5343 41.8709C38.5644 42.2973 38.6408 42.7149 38.8145 43.1111C39.0195 43.5784 39.3645 43.8837 39.8765 43.9829C40.2743 44.0582 40.6835 44.0556 41.0803 43.9754C41.47 43.896 41.8439 43.7549 42.1875 43.5578C42.198 43.7551 42.2092 43.9306 42.2172 44.1069C42.2393 44.6094 42.2635 45.1122 42.2791 45.6151C42.2824 45.7249 42.3124 45.7519 42.4239 45.7448C42.7908 45.7211 43.1582 45.7062 43.526 45.7C43.6437 45.6975 43.6687 45.6549 43.6575 45.5511C43.6441 45.4171 43.6394 45.2807 43.6339 45.1446Z" fill="#0F0F0F"/>
<path d="M53.3102 38.611C53.5039 38.6629 53.7016 38.6735 53.9293 38.6732C54.0094 38.6696 54.118 38.6686 54.2262 38.6597C55.1238 38.585 55.6437 38.004 55.6133 37.1202C55.6097 37.0136 55.5771 36.993 55.4753 37.0018C55.2895 37.02 55.1027 37.0281 54.916 37.0264C54.7762 37.0235 54.7168 37.0555 54.7118 37.209C54.7031 37.482 54.5695 37.6248 54.3052 37.7066C54.1652 37.7436 54.0201 37.7581 53.8754 37.7496C53.4608 37.741 53.3175 37.6163 53.2599 37.2126C53.2501 37.144 53.2393 37.1042 53.1538 37.1099C52.9134 37.1252 52.6726 37.1333 52.4315 37.1426C52.3591 37.1454 52.3062 37.1554 52.3131 37.2517C52.3562 37.896 52.6183 38.4248 53.3102 38.611Z" fill="#0F0F0F"/>
<path d="M59.4709 39.1729C59.4677 39.1132 59.5071 39.0147 59.3822 39.0197C59.2848 39.0236 59.1809 38.997 59.1494 39.1469C59.1027 39.3722 59.031 39.5926 58.9604 39.8492C58.8609 39.5858 58.7707 39.3609 58.6918 39.1327C58.6451 38.998 58.543 39.0716 58.4644 39.0616C58.3967 39.0535 58.3717 39.0904 58.3753 39.1597C58.3902 39.449 58.3996 39.739 58.4115 40.0286C58.4141 40.0883 58.4152 40.1463 58.51 40.1391C58.6049 40.132 58.6157 40.0897 58.6103 40.0126C58.5955 39.7994 58.5861 39.588 58.5741 39.3754L58.6034 39.3776C58.6758 39.5769 58.7504 39.7752 58.8171 39.976C58.842 40.0521 58.867 40.099 58.9619 40.0926C59.0567 40.0862 59.0636 40.0308 59.081 39.9657C59.1342 39.7664 59.1896 39.5673 59.2457 39.3683L59.2986 39.3747C59.2986 39.5737 59.2986 39.7728 59.2986 39.9718C59.2986 40.0428 59.3019 40.0979 59.4029 40.0933C59.4963 40.089 59.5082 40.0482 59.5039 39.97C59.4919 39.7049 59.4865 39.4387 59.4709 39.1729Z" fill="#0F0F0F"/>
<path d="M58.1716 39.0785C58.0757 39.0846 57.979 39.0785 57.882 39.0785V39.0828C57.7799 39.0892 57.6767 39.0895 57.5757 39.1038C57.5116 39.1126 57.4095 39.0682 57.4142 39.2054C57.4189 39.3426 57.5192 39.2978 57.5819 39.2907C57.7064 39.2765 57.7488 39.3124 57.7473 39.4399C57.7448 39.6468 57.7676 39.8536 57.7737 40.0604C57.7759 40.134 57.7947 40.1649 57.8769 40.1606C57.9591 40.1564 57.9971 40.1383 57.9895 40.0476C57.9747 39.8699 57.9769 39.6923 57.9584 39.5146C57.941 39.3454 57.9584 39.2214 58.1807 39.2594C58.2433 39.2701 58.2633 39.2324 58.26 39.1741C58.2567 39.1158 58.2524 39.0735 58.1716 39.0785Z" fill="#0F0F0F"/>
<path d="M49.8021 39.5139C49.897 39.51 49.9651 39.521 49.964 39.6429C49.9607 39.9435 49.9727 40.2435 49.9933 40.5445C50.0255 41.015 50.0234 41.488 50.0367 41.9599C50.0367 41.9709 50.0339 41.9955 50.078 41.9802V41.6674C50.0734 41.494 50.0689 41.3207 50.0643 41.1475C50.0038 41.0274 50.0462 40.8988 50.0382 40.7769C50.0346 40.6042 50.0311 40.4316 50.0277 40.2591C49.968 40.1397 50.0092 40.0135 50.002 39.8909C50.002 39.7793 49.9962 39.6678 50.002 39.5562C50.006 39.4677 49.9694 39.4471 49.8847 39.4545C49.7037 39.4698 49.5259 39.4762 49.3463 39.4862C49.2489 39.5416 49.1435 39.505 49.0418 39.511C48.901 39.5132 48.7576 39.4851 48.6211 39.5437C48.6424 39.5507 48.6646 39.5551 48.687 39.5569C49.0585 39.5431 49.4302 39.5288 49.8021 39.5139Z" fill="#0F0F0F"/>
<path d="M43.3778 40.024C43.3619 40.1914 43.3742 40.3616 43.3742 40.5304H43.4173V40.2134C43.4113 40.1324 43.4113 40.0511 43.4173 39.97C43.4426 39.7923 43.3716 39.7276 43.1953 39.7706C43.3445 39.7934 43.3923 39.8755 43.3778 40.024Z" fill="#0F0F0F"/>
<path d="M31.1387 44.0248C31.1554 43.742 31.1554 43.4585 31.1387 43.1758C31.0892 43.4567 31.0892 43.7439 31.1387 44.0248Z" fill="#0F0F0F"/>
<path d="M50.029 40.2584C50.0316 40.1351 50.0392 40.0097 50.0033 39.8906C50.0106 40.0129 49.9693 40.139 50.029 40.2584Z" fill="#0F0F0F"/>
<path d="M50.0644 41.148C50.0666 41.0236 50.0763 40.8992 50.0383 40.7773C50.0463 40.901 50.0039 41.0279 50.0644 41.148Z" fill="#0F0F0F"/>
<path d="M49.3475 39.487C49.245 39.4842 49.1422 39.4767 49.043 39.5119C49.1451 39.5062 49.2504 39.5418 49.3475 39.487Z" fill="#0F0F0F"/>
<path d="M29.4701 28.6518C29.5425 28.6798 29.6272 28.7228 29.6874 28.6756C29.7388 28.6329 29.6823 28.5551 29.666 28.494C29.6012 28.2541 29.6012 28.2541 29.838 28.1386C30.04 28.0409 30.1066 27.7978 29.9875 27.592C29.855 27.3628 29.9078 27.145 30.1417 27.0266C30.397 26.8976 30.6801 26.845 30.9423 26.9666C31.4455 27.1993 31.9329 27.4641 32.443 27.7253L32.2906 27.7811C32.4187 27.8316 32.2703 27.8277 32.2707 27.8625C32.2707 28.0672 32.2468 28.2722 32.2877 28.4755C32.2917 28.4947 32.3203 28.5089 32.3376 28.5253C32.431 28.5043 32.5248 28.484 32.6179 28.462C33.3463 28.2886 34.0853 28.1461 34.7743 27.8451C35.9916 27.312 36.9564 26.463 37.7573 25.4395C38.1958 24.8809 38.5578 24.2632 38.9478 23.6683C39.4032 22.975 39.8529 22.2785 40.3059 21.583C40.3269 21.5311 40.3251 21.4867 40.2646 21.4615C39.4782 22.5194 38.6838 23.5717 37.9087 24.6378C37.4177 25.313 36.8254 25.8816 36.1519 26.3898C36.1324 26.3383 36.1157 26.3003 36.1038 26.2612C35.9876 25.9026 35.9065 25.528 35.749 25.1883C35.2729 24.1616 34.5458 23.3304 33.6059 22.6818C33.5357 22.6393 33.4841 22.5727 33.4611 22.4949C33.3163 21.9878 33.0042 21.5837 32.6284 21.2188C32.7732 21.6392 33.0386 22.0144 33.1407 22.453C32.9441 22.4814 32.7754 22.3897 32.5657 22.4245C32.7594 22.4977 32.9216 22.561 33.0857 22.62C33.1226 22.63 33.1554 22.6512 33.1793 22.6807C33.2032 22.7101 33.2169 22.7462 33.2185 22.7838C33.241 22.9768 33.2786 23.1676 33.3101 23.3592L33.3243 23.2902H33.3395V24.2853C33.3413 24.29 33.3413 24.2952 33.3395 24.2998V24.4065C33.3 24.3791 33.3268 24.3318 33.3109 24.2959C33.2765 24.523 33.2475 24.7508 33.2066 24.9768C33.0494 25.8422 32.7359 26.6602 32.4187 27.4972C32.2247 27.3195 32.0476 27.1517 31.8666 26.9893C31.6265 26.7736 31.3727 26.5742 31.0769 26.436C30.5338 26.1819 30.023 26.2732 29.5563 26.6155C29.2916 26.8095 29.1218 27.3355 29.2286 27.5899C29.247 27.6276 29.2552 27.6693 29.2524 27.7109C29.2497 27.7526 29.2362 27.7929 29.2131 27.828C29.0233 28.1756 29.1359 28.5206 29.4701 28.6518ZM33.0379 27.5266C33.2191 26.8919 33.4012 26.2574 33.5842 25.6229C33.6649 25.3429 33.6863 25.0543 33.7066 24.7661C33.6584 24.425 33.6584 24.0791 33.7066 23.738C33.6979 23.4661 33.6385 23.201 33.5886 22.9082C33.9926 23.1776 34.3087 23.502 34.5958 23.8574C35.1976 24.6012 35.5545 25.4527 35.7797 26.3695C35.8275 26.5646 35.787 26.6503 35.6226 26.7548C34.8876 27.2235 34.0726 27.4655 33.2196 27.6077L33.0415 27.6386C33.0027 27.6034 33.0288 27.5643 33.0389 27.5266H33.0379Z" fill="#0F0F0F"/>
<path d="M40.366 28.755C40.3957 29.1843 40.4421 29.308 39.9106 29.3531C39.8928 29.3557 39.8753 29.3601 39.8584 29.3663C39.7741 29.3933 39.6999 29.4373 39.6839 29.5283C39.6358 29.8023 39.4504 29.9867 39.265 30.174C38.9884 30.4534 38.681 30.7071 38.4822 31.0522C38.353 31.2778 38.152 31.4043 37.8935 31.4431C37.5742 31.49 37.3226 31.6495 37.1137 31.8837C36.9862 32.0259 36.7903 32.0564 36.6368 32.157C36.623 32.1639 36.607 32.1651 36.5923 32.1604C36.5776 32.1558 36.5654 32.1456 36.5583 32.1321C36.4406 31.9704 36.257 31.9545 36.0876 31.9605C35.7592 31.9729 35.5083 31.8422 35.2871 31.6222C35.1678 31.4955 35.0152 31.4037 34.8461 31.3567C34.6734 31.3134 34.4891 31.3734 34.4572 31.5252C34.3848 31.8613 34.2012 32.1712 34.2197 32.5287C34.1364 32.5152 34.0615 32.4477 33.9757 32.4879C33.8899 32.528 33.9116 32.6322 33.8634 32.7398C33.6962 31.9811 33.3471 31.334 33.0017 30.6843C33.0253 30.9157 33.0589 31.1431 33.1031 31.3684C33.1715 31.7139 33.1828 32.0792 33.3993 32.3791C33.812 32.9513 34.1817 33.5536 34.6267 34.1031C34.8682 34.4016 35.1281 34.6859 35.3935 34.9915C35.2708 34.9737 35.1697 34.8966 35.0771 34.951C34.8997 35.0551 34.7762 34.9666 34.6426 34.8699C34.509 34.7733 34.3692 34.6766 34.2277 34.5878C34.1191 34.5199 33.9974 34.478 33.8656 34.51C33.7287 34.5434 33.635 34.5078 33.5662 34.3831C33.5155 34.2907 33.4214 34.1983 33.3193 34.2605C33.1237 34.3799 33.0553 34.2388 32.9652 34.1301C32.5839 33.6681 32.2921 33.1546 32.0137 32.6311C31.9865 32.5803 31.9775 32.5128 31.875 32.4666C32.0723 32.9492 32.1266 33.4449 32.4308 33.8525C32.5694 34.0373 32.6842 34.2399 32.8117 34.4321C32.8508 34.4908 32.8924 34.5707 32.9503 34.5899C33.1915 34.6702 33.4011 34.8472 33.6335 34.8945C33.8644 34.936 34.0806 35.035 34.2613 35.182C34.3895 35.2861 34.5459 35.3572 34.6907 35.4407C34.7994 35.5036 34.9214 35.5295 35.038 35.4887C35.1263 35.4577 35.1828 35.4823 35.2527 35.5242C35.4637 35.6486 35.6766 35.773 35.9254 35.8106C36.0702 35.833 36.1915 35.7921 36.2664 35.6649C36.3414 35.5377 36.2748 35.4471 36.1868 35.3515C35.6606 34.7808 35.1373 34.2074 34.6169 33.6315C34.3558 33.3411 34.1386 33.0231 34.051 32.6261C34.1752 32.6187 34.2842 32.6688 34.4065 32.6386C34.2979 32.4609 34.3508 32.2999 34.4427 32.1464C34.5156 32.0312 34.5704 31.9058 34.6053 31.7746C34.6451 31.6087 34.6994 31.5866 34.8587 31.6577C35.018 31.7288 35.1397 31.8621 35.2527 31.9911C35.4467 32.2125 35.685 32.3251 35.9804 32.3155C36.037 32.3122 36.0936 32.3224 36.1454 32.3451C36.1972 32.3678 36.2427 32.4024 36.278 32.4459C36.4341 32.6194 36.6285 32.6389 36.8363 32.5476C37.0937 32.4342 37.3519 32.3223 37.5604 32.1229C37.6777 32.0121 37.8239 31.9353 37.983 31.9012C38.2852 31.834 38.5515 31.6598 38.731 31.4118C39.0728 30.947 39.4247 30.49 39.7744 30.0312C39.8335 29.9541 39.8907 29.8709 39.8965 29.7785C39.9059 29.6321 39.9812 29.5901 40.1162 29.5585C40.4899 29.4707 40.6108 29.228 40.4743 28.8769C40.4529 28.8222 40.4251 28.7703 40.4019 28.7163C40.366 28.7113 40.3494 28.7181 40.366 28.755Z" fill="#0F0F0F"/>
<path d="M26.5027 32.0211C26.6718 31.9831 26.6808 31.9813 26.7833 32.1081C26.9128 32.2741 27.1036 32.3835 27.3144 32.4127C27.4629 32.4351 27.6113 32.4578 27.7601 32.4784C28.0592 32.52 28.3213 32.6181 28.4481 32.9166C28.5404 33.1298 28.6979 33.3036 28.8308 33.492C28.9321 33.6341 28.9209 33.7141 28.7721 33.809C28.7283 33.837 28.6816 33.8601 28.6016 33.9046C28.7659 33.9401 28.897 33.9611 29.0158 33.8914C29.0914 33.847 29.1182 33.8765 29.1606 33.927C29.25 34.0393 29.3054 34.1697 29.3778 34.2923C29.5994 34.6782 29.876 35.003 30.3482 35.0979C30.5035 35.0812 30.6602 35.0812 30.8156 35.0979L30.9991 35.0567C31.0191 35.0304 31.0556 35.0101 31.0353 34.9682C30.9336 34.9682 30.8322 34.9654 30.7305 34.965C30.098 34.9625 29.6686 34.2425 29.6179 33.7891C29.5701 33.664 29.5701 33.5261 29.6179 33.401C29.6686 33.3203 29.4951 33.1988 29.678 33.137C29.9506 33.0446 30.2033 32.907 30.4571 32.7741C30.5295 32.7368 30.5835 32.6991 30.6201 32.8225C30.6472 32.9134 30.749 32.9372 30.846 32.9365C31.07 32.9319 31.2863 32.8551 31.4615 32.718C31.7149 32.53 31.896 32.2752 32.0824 32.0296C32.1049 32.0001 32.1498 31.9703 32.1063 31.9205C32.0755 31.9372 32.044 31.9532 32.0136 31.9713C31.6179 32.2059 31.2229 32.4418 30.8264 32.675C30.7942 32.6938 30.7634 32.7379 30.7149 32.7052C30.6726 32.6764 30.6755 32.6433 30.6914 32.5986C30.7319 32.4795 30.6755 32.3679 30.6407 32.2592C30.6117 32.1679 30.6353 32.133 30.7156 32.0847C31.1273 31.8388 31.4289 31.0776 31.292 30.6422L30.9561 31.1334C30.8695 30.9674 30.7931 30.8213 30.7171 30.6749C30.7026 30.6468 30.6986 30.5957 30.6487 30.6341C30.6367 30.6433 30.6447 30.6778 30.6432 30.7009C30.6899 30.8382 30.6899 30.9868 30.6432 31.1241C30.653 31.1952 30.6606 31.2641 30.6726 31.3334C30.7019 31.5026 30.5111 31.9084 30.3525 31.9855C30.1291 32.0943 29.9006 32.1924 29.6729 32.2954C29.6367 32.1988 29.6161 32.1046 29.569 32.025C29.4354 31.799 29.4394 31.7538 29.6324 31.5669C29.8538 31.3579 30.0639 31.1378 30.262 30.9073C30.4589 30.6728 30.5748 30.4159 30.5708 30.1003C30.5708 29.7751 30.5876 29.4501 30.6211 29.1266C30.6452 28.8259 30.5992 28.5238 30.4868 28.2431C30.4557 28.161 30.4235 28.1063 30.3322 28.1909C30.2841 28.2354 30.2303 28.2738 30.1722 28.3049C30.102 28.343 30.1038 28.3906 30.136 28.4471C30.2301 28.6127 30.2446 28.7921 30.2403 28.9777C30.2359 29.2317 30.2421 29.4858 30.2439 29.7399C30.3033 29.9489 30.2699 30.1603 30.2631 30.3714C30.2631 30.3732 30.2537 30.3768 30.2486 30.3764C30.2428 30.3751 30.2373 30.3728 30.2323 30.3697C30.1451 30.5692 30.0225 30.752 29.8702 30.9095C29.6041 31.1656 29.4004 31.4775 29.2743 31.8217C29.1943 32.0513 29.0364 32.0502 28.876 32.106C28.7674 32.1437 28.7004 32.1181 28.6447 32.015C28.5762 31.8761 28.4655 31.7613 28.3279 31.6867C28.1975 31.6206 28.0744 31.6049 27.9998 31.7645L28.0683 31.8356C28.183 31.7446 28.233 31.8487 28.275 31.9152C28.3594 32.0484 28.4274 32.1917 28.5024 32.3306C28.5125 32.3363 28.527 32.3395 28.5317 32.348C28.5679 32.4102 28.6718 32.3853 28.6852 32.4692C28.6852 32.4784 28.6606 32.5047 28.6544 32.5012C28.586 32.4774 28.5458 32.4216 28.5016 32.3686C28.3279 32.2475 28.1226 32.2077 27.9223 32.1554L27.6707 32.1622C27.3474 32.1714 27.019 32.2112 26.7616 31.9418C26.6932 31.8708 26.5806 31.8875 26.4886 31.923C26.4811 31.9248 26.4742 31.9282 26.4683 31.933C26.4623 31.9377 26.4575 31.9437 26.4542 31.9505C26.4509 31.9573 26.4492 31.9648 26.4492 31.9723C26.4492 31.9798 26.4509 31.9873 26.4542 31.9941C26.4636 32.0122 26.4712 32.0282 26.5027 32.0211ZM29.3438 32.3004C29.4162 32.2649 29.4582 32.2499 29.497 32.3558C29.5505 32.5015 29.6671 32.5218 29.8409 32.4486C30.0426 32.3633 30.1939 32.208 30.3768 32.0747C30.385 32.1241 30.4034 32.1713 30.4307 32.2135C30.458 32.2557 30.4937 32.292 30.5357 32.3203C30.1736 32.4752 29.8333 32.6167 29.497 32.7677C29.3854 32.8178 29.3373 32.8136 29.3253 32.6792C29.3129 32.5634 29.2691 32.453 29.1986 32.3594C29.2515 32.3374 29.2993 32.3221 29.3438 32.3004ZM28.7837 32.5957C28.8398 32.5467 28.9024 32.5161 28.9788 32.5378C29.065 32.5623 29.0332 32.6281 29.0277 32.6835C29.0183 32.7862 29.0085 32.8893 28.9966 33.0158C28.926 32.9092 28.8644 32.8207 28.8072 32.729C28.7826 32.6895 28.7182 32.6529 28.7837 32.5957Z" fill="#0F0F0F"/>
<path d="M26.8693 33.6391C26.7628 33.6501 26.652 33.6337 26.5514 33.6838C26.4623 33.7283 26.4066 33.7993 26.4199 33.8946C26.433 33.982 26.4171 34.0986 26.5123 34.1433C26.7234 34.2453 26.9163 34.1146 26.9156 33.8814C26.9156 33.8285 26.9127 33.7748 26.9113 33.7226C27.2556 34.1554 27.5865 34.6007 28.0699 34.9088C27.7831 35.1011 27.7512 35.2685 27.9547 35.4774C28.0085 35.5241 28.0654 35.5673 28.1249 35.6068C28.1973 35.6633 28.2418 35.654 28.2878 35.5695C28.371 35.4284 28.4073 35.2655 28.3917 35.1032C28.651 35.2144 28.904 35.3083 29.1778 35.3186C29.4319 35.3281 29.6757 35.4197 29.8715 35.5791C30.0467 35.7162 30.1908 35.8833 30.3331 36.0521C30.4754 36.2209 30.5865 36.4032 30.7752 36.5759C30.7752 36.3012 30.7654 36.0606 30.7777 35.8207C30.7904 35.562 31.0044 35.4056 31.1611 35.1871C30.9616 35.2002 30.7882 35.1967 30.6405 35.3029C30.4439 35.4451 30.4131 35.6583 30.4015 35.9202C30.3291 35.8086 30.2853 35.7344 30.2361 35.6629C30.0148 35.3431 29.7574 35.0488 29.3505 34.9845C28.8859 34.9117 28.5108 34.6867 28.1455 34.422C27.4627 33.9276 26.858 33.3732 26.5753 32.5548C26.546 32.4904 26.5105 32.4289 26.4692 32.3711L26.433 32.4102C26.4819 32.8533 26.6549 33.2531 26.8693 33.6391Z" fill="#0F0F0F"/>
<path d="M33.3379 24.4021V23.2891H33.3227L33.3086 23.358C33.3086 23.6693 33.3086 23.9805 33.3086 24.2916C33.3252 24.3292 33.2985 24.3747 33.3379 24.4021Z" fill="#0F0F0F"/>
<path d="M32.2843 28.4757C32.2434 28.2724 32.2691 28.0674 32.2673 27.8627C32.2673 27.8271 32.4154 27.8317 32.2872 27.7813C32.2438 27.7813 32.201 27.7781 32.2032 27.8413C32.2112 28.0546 32.2191 28.2678 32.2235 28.4792C32.2257 28.5834 32.2887 28.5304 32.3343 28.5254C32.3169 28.5091 32.2883 28.4949 32.2843 28.4757Z" fill="#0F0F0F"/>
<path d="M30.2652 30.3737C30.272 30.1626 30.3053 29.9511 30.246 29.7422C30.2419 29.9519 30.238 30.1618 30.2344 30.3719C30.2394 30.3751 30.2449 30.3773 30.2507 30.3787C30.2543 30.379 30.2652 30.3755 30.2652 30.3737Z" fill="#0F0F0F"/>
<path d="M27.9531 31.9099C27.9691 31.9643 27.931 32.0272 27.9806 32.0855L28.0693 31.8406L28.0009 31.7695L27.9531 31.9099Z" fill="#0F0F0F"/>
<path d="M30.6444 30.7031C30.629 30.8438 30.629 30.9857 30.6444 31.1264C30.6911 30.989 30.6911 30.8405 30.6444 30.7031Z" fill="#0F0F0F"/>
<path d="M29.6179 33.7904C29.6354 33.6616 29.6354 33.5311 29.6179 33.4023C29.5701 33.5274 29.5701 33.6653 29.6179 33.7904Z" fill="#0F0F0F"/>
<path d="M26.4681 32.3747C26.4524 32.3198 26.4182 32.2717 26.3711 32.2383C26.3745 32.3014 26.3961 32.3623 26.4334 32.4138L26.4681 32.3747Z" fill="#363636"/>
<path d="M33.7041 23.7383C33.6559 24.0794 33.6559 24.4253 33.7041 24.7664C33.7289 24.4241 33.7289 24.0805 33.7041 23.7383Z" fill="#0F0F0F"/>
<path d="M42.5059 20.8931L42.49 20.8846L42.4415 20.8594L42.3633 20.966C42.3745 20.966 42.3854 20.966 42.3966 20.966L42.5052 20.8949L42.5059 20.8931Z" fill="#0F0F0F"/>
<path d="M24.3006 48.1465C24.1594 48.175 24.0537 48.2571 23.9512 48.3662C23.9737 47.9134 24.083 47.7603 24.5012 47.7091C24.6196 47.6945 24.734 47.6536 24.8517 47.6298C25.02 47.5964 25.0913 47.5118 25.0149 47.3359C24.8111 47.4425 24.5859 47.4735 24.3632 47.5101C24.0537 47.5609 23.8542 47.7261 23.7894 48.0389C23.6946 48.5044 23.7009 48.9843 23.8078 49.4472C23.8484 49.6292 23.9418 49.7905 24.1225 49.8801C24.6145 50.1235 25.1587 49.8236 25.2032 49.2855C25.1793 49.2297 25.167 49.1698 25.167 49.1093C25.167 49.0487 25.1793 48.9888 25.2032 48.933C25.1909 48.3072 24.873 48.0314 24.3006 48.1465ZM24.9653 49.2375C24.9592 49.6995 24.6757 49.7415 24.339 49.707C24.146 49.6875 24.0653 49.5311 24.0186 49.3648C23.9584 49.1515 23.9635 48.9301 23.9863 48.7134C24.0128 48.4646 24.1576 48.363 24.4719 48.3452C24.7275 48.331 24.8535 48.422 24.9223 48.6565C24.9614 48.7898 24.9523 48.9259 24.9653 49.0307C24.9653 49.1196 24.9661 49.1786 24.9653 49.2375Z" fill="#0F0F0F"/>
<path d="M52.3883 48.3999L52.3576 48.2833C52.3514 48.3054 52.3456 48.3274 52.3398 48.3494C52.3398 48.3305 52.3387 48.3117 52.3366 48.2929C52.3357 48.2872 52.3357 48.2813 52.3366 48.2755C52.3232 48.116 52.2906 47.9557 52.3478 47.7979C52.3525 47.6636 52.3576 47.5292 52.3221 47.3974C52.313 47.3974 52.3065 47.423 52.3004 47.4073C52.2998 47.4052 52.2989 47.4032 52.2978 47.4013C52.2978 47.4013 52.2978 47.3988 52.2978 47.3913C52.304 47.2545 52.283 47.1174 52.3098 46.9809C52.3395 46.8668 52.3029 46.8235 52.1762 46.8334C51.9227 46.8533 51.6711 46.8689 51.4184 46.8689C51.2971 46.8689 51.267 46.908 51.2685 47.0203C51.2739 47.4415 51.2015 47.8544 51.1208 48.2666C51.0943 48.4003 51.0596 48.5047 50.8869 48.4724C50.8 48.4561 50.7891 48.5044 50.8007 48.5762C50.8248 48.7335 50.8464 48.8914 50.8655 49.0499C50.8717 49.1046 50.8814 49.1405 50.9495 49.1334C51.0096 49.127 51.0549 49.117 51.0444 49.0399C51.0346 48.9689 51.0393 48.8978 51.027 48.8267C51.0074 48.7173 51.036 48.6682 51.161 48.6654C51.468 48.6579 51.7743 48.6376 52.081 48.622C52.4477 48.6032 52.4474 48.6032 52.489 48.961C52.4941 49.003 52.4727 49.0616 52.556 49.0556C52.6172 49.0513 52.657 49.041 52.6574 48.9664C52.6574 48.8128 52.6664 48.6597 52.6718 48.5062C52.6106 48.3839 52.4676 48.4763 52.3883 48.3999ZM52.1385 48.4415C51.968 48.4823 51.6573 48.4795 51.5208 48.4415H51.3076C51.3673 48.1103 51.4347 47.7908 51.4636 47.466C51.4649 47.4539 51.4673 47.442 51.4709 47.4304C51.5046 47.3181 51.4292 47.1362 51.5201 47.1003C51.6736 47.0395 51.8619 47.0623 52.0353 47.0505C52.115 47.0452 52.098 47.1046 52.0998 47.1479C52.1175 47.5367 52.136 47.9255 52.1512 48.3143C52.1573 48.4799 52.0009 48.3711 51.9423 48.4287L52.1385 48.4415Z" fill="#0F0F0F"/>
<path d="M20.3585 48.2617C20.3206 48.2839 20.2774 48.2956 20.2332 48.2956C20.1891 48.2956 20.1459 48.2839 20.108 48.2617C19.8907 48.2806 19.6793 48.3069 19.4961 48.4351C19.5453 48.5601 19.5453 48.6986 19.4961 48.8236C19.5202 49.4632 19.5444 50.1029 19.5685 50.7426C19.5685 50.7543 19.5884 50.7657 19.5989 50.7781C19.7354 50.7781 19.7799 50.711 19.7629 50.583C19.7519 50.5311 19.7553 50.4772 19.7727 50.427V50.0315C19.8172 50.0503 19.8542 50.067 19.8922 50.0819C20.3473 50.2596 20.8426 50.0489 20.9313 49.6299C20.9936 49.3209 20.9812 49.0019 20.8951 48.6985C20.8223 48.4191 20.6583 48.2941 20.3585 48.2617ZM20.7177 49.4529C20.7043 49.744 20.5866 49.8637 20.2981 49.9103C20.1789 49.9286 20.0571 49.9189 19.9425 49.8819C19.8285 49.8463 19.747 49.7792 19.7441 49.6416C19.7376 49.3413 19.7325 49.04 19.705 48.7408C19.6898 48.5759 19.7575 48.5187 19.9056 48.5048C19.9402 48.4981 19.9741 48.488 20.0066 48.4746C20.1351 48.4035 20.264 48.4124 20.394 48.4703C20.5844 48.5389 20.6608 48.6814 20.6923 48.8712C20.7212 49.0637 20.7297 49.2587 20.7177 49.4529Z" fill="#0F0F0F"/>
<path d="M26.9422 48.3739C26.906 48.1636 26.7735 48.0271 26.5508 47.988C26.2771 47.94 26.0139 47.988 25.7518 48.063C25.6645 48.0882 25.6917 48.1309 25.7138 48.1774C25.7358 48.224 25.7116 48.3078 25.8162 48.2741C25.9209 48.2403 26.0226 48.2179 26.1261 48.1906L26.0559 48.1788C26.0559 48.1696 26.0559 48.1604 26.0559 48.1508H26.4936C26.4969 48.1508 26.5005 48.1572 26.5038 48.1607L26.4676 48.1877C26.6877 48.2428 26.7315 48.4137 26.7601 48.6021C26.7753 48.7027 26.713 48.6852 26.6562 48.6867C26.4671 48.7343 26.2689 48.7343 26.0798 48.6867C25.8694 48.7083 25.7101 48.8068 25.6555 49.0115C25.6106 49.1843 25.6154 49.366 25.6692 49.5364C25.6873 49.6083 25.726 49.6737 25.7807 49.7248C25.8354 49.7759 25.9039 49.8105 25.9781 49.8246C26.3141 49.8996 26.6334 49.8345 26.9466 49.7151C26.9701 49.7095 26.9906 49.6954 27.004 49.6757C27.0174 49.6559 27.0228 49.632 27.019 49.6085C26.9875 49.1991 27.0117 48.783 26.9422 48.3739ZM26.4397 49.6373C26.3742 49.6437 26.3075 49.6423 26.2413 49.6423C25.9752 49.6423 25.9154 49.5918 25.8767 49.3363C25.8274 49.0165 25.9169 48.9006 26.2424 48.869C26.2786 48.8654 26.3148 48.8647 26.351 48.8636C26.7514 48.8526 26.7514 48.8526 26.7826 49.2425C26.8086 49.5787 26.788 49.6035 26.4397 49.6373Z" fill="#0F0F0F"/>
<path d="M48.3339 46.9805C48.2271 46.9995 48.1177 46.9995 48.0109 46.9805C47.6488 47.0075 47.4537 47.1678 47.3954 47.4862C47.3447 47.7661 47.3541 48.0533 47.4229 48.3295C47.5134 48.7026 47.7097 48.8522 48.1003 48.8551C48.533 48.8583 48.7922 48.7072 48.8704 48.3853C48.9514 48.05 48.938 47.6994 48.8317 47.371C48.7593 47.1386 48.5964 46.9933 48.3339 46.9805ZM48.6521 48.2666C48.6231 48.5111 48.4711 48.6124 48.1601 48.6326C47.8842 48.6507 47.7332 48.5576 47.6633 48.3241C47.6449 48.2627 47.6318 48.1994 47.6163 48.1372L47.6043 48.2051H47.5761C47.5761 47.9791 47.5761 47.7533 47.5761 47.5277C47.5761 47.5235 47.5819 47.5196 47.5848 47.5157L47.6134 47.548C47.7357 47.2193 48.0757 47.0818 48.4117 47.2193C48.5312 47.2683 48.588 47.3632 48.6163 47.4723C48.678 47.7326 48.6905 48.0018 48.6532 48.2666H48.6521Z" fill="#0F0F0F"/>
<path d="M32.1869 49.0752C32.1913 48.9405 32.1978 48.8058 32.1616 48.6736C32.1554 48.7074 32.1496 48.7408 32.1439 48.7746C32.1366 48.6136 32.0877 48.4523 32.1504 48.2934C32.1142 47.8979 31.9549 47.7429 31.5584 47.7305C31.3658 47.7297 31.174 47.7564 30.9892 47.8097C30.9067 47.8311 30.8651 47.8552 30.8984 47.9519C30.9295 48.0425 30.9628 48.0557 31.0508 48.0183C31.1674 47.9689 31.297 47.9665 31.4226 47.9554C31.8086 47.922 31.953 48.0621 31.9295 48.4483L31.7564 48.4384C31.6292 48.4862 31.4884 48.4862 31.3611 48.4384C31.125 48.4501 30.9248 48.5169 30.8451 48.765C30.7993 48.9181 30.7965 49.0806 30.8372 49.2351C30.8937 49.4768 30.9939 49.5614 31.2521 49.6001C31.3794 49.553 31.5198 49.553 31.6471 49.6001C31.8386 49.5752 32.0305 49.5532 32.1902 49.4285C32.1645 49.3731 32.151 49.313 32.1504 49.2522C32.1499 49.1913 32.1623 49.1311 32.1869 49.0752ZM31.6076 49.3951L31.5714 49.3979C31.1308 49.4334 31.0218 49.3172 31.0646 48.883C31.079 48.7408 31.1587 48.6719 31.289 48.6498C31.3783 48.637 31.4682 48.6293 31.5584 48.6267C31.961 48.6072 31.961 48.6079 31.9719 49.0034C31.982 49.3592 31.9751 49.3659 31.6066 49.3965L31.6076 49.3951Z" fill="#0F0F0F"/>
<path d="M36.9644 48.1838C36.9007 47.6863 36.6849 47.4937 36.2041 47.5086C35.7081 47.525 35.4883 47.7218 35.4572 48.1838C35.5051 48.3089 35.5051 48.4468 35.4572 48.5719C35.4551 48.7063 35.4773 48.8399 35.5227 48.9667C35.5998 49.2123 35.7588 49.3662 36.0314 49.385C36.082 49.3622 36.137 49.3505 36.1927 49.3505C36.2484 49.3505 36.3034 49.3622 36.354 49.385C36.7432 49.3391 36.9 49.1945 36.9651 48.8217C36.9167 48.6118 36.9164 48.3939 36.9644 48.1838ZM36.7863 48.8054C36.7863 48.8079 36.7754 48.8128 36.7751 48.8125C36.7657 48.8 36.7566 48.7869 36.7476 48.7741C36.6389 49.1174 36.3938 49.2514 36.0318 49.1668C35.8449 49.1234 35.7378 48.987 35.7102 48.7275C35.683 48.5224 35.6806 48.3149 35.703 48.1092C35.7331 47.8814 35.821 47.7869 36.0517 47.751C36.1285 47.7372 36.2064 47.7303 36.2845 47.7304C36.5437 47.7375 36.6657 47.8434 36.7128 48.0943C36.7237 48.1515 36.7128 48.213 36.749 48.2659L36.762 48.197H36.7885C36.787 48.3992 36.7874 48.6021 36.7867 48.8054H36.7863Z" fill="#0F0F0F"/>
<path d="M40.1275 47.3522C40.008 47.3393 39.8873 47.3412 39.7683 47.3578C39.3976 47.4048 39.2346 47.564 39.1836 47.9353C39.2319 48.121 39.2319 48.3157 39.1836 48.5014C39.2107 48.9169 39.3574 49.1223 39.6861 49.2058C39.8264 49.1611 39.9776 49.1619 40.1173 49.2079C40.4979 49.1461 40.6554 48.972 40.6916 48.5725C40.6441 48.4351 40.6441 48.2863 40.6916 48.1489C40.7024 48.0167 40.667 47.892 40.6289 47.7676C40.5547 47.5224 40.3914 47.3831 40.1275 47.3522ZM40.445 48.6454C40.4088 48.8536 40.289 48.9709 40.0768 48.9975C39.6329 49.054 39.4856 48.9428 39.4251 48.5061C39.4191 48.4774 39.411 48.4493 39.4008 48.4218L39.3878 48.4894H39.3614C39.3614 48.3102 39.3614 48.1311 39.3614 47.952C39.3614 47.9492 39.3682 47.946 39.3719 47.9428L39.4001 47.9783C39.5138 47.6048 39.7824 47.4659 40.1738 47.5835C40.3567 47.6386 40.4124 47.7967 40.4338 47.9552C40.4638 48.1841 40.4866 48.4144 40.445 48.6454Z" fill="#0F0F0F"/>
<path d="M44.0574 47.6167C44.0125 47.3591 43.8619 47.2144 43.5925 47.1959C43.498 47.2148 43.4006 47.2148 43.3061 47.1959C43.1729 47.1899 43.0469 47.2283 42.9213 47.2631C42.8659 47.2784 42.7728 47.2631 42.817 47.3889C42.8532 47.4937 42.8894 47.5158 42.9879 47.4724C43.0598 47.4462 43.1336 47.4251 43.2087 47.4095C43.3326 47.3712 43.4651 47.3694 43.59 47.4042C43.8434 47.4802 43.8557 47.6825 43.8699 47.9046C43.7536 47.8932 43.6526 47.8761 43.5527 47.8751C43.4447 47.8755 43.3369 47.8824 43.2297 47.8957C42.9129 47.9312 42.7706 48.0705 42.7381 48.3783C42.7266 48.5078 42.742 48.6382 42.7833 48.7617C42.8027 48.8334 42.8429 48.8979 42.8989 48.9476C42.955 48.9973 43.0245 49.03 43.099 49.0418C43.4412 49.1112 43.7973 49.0593 44.1041 48.8953C44.0607 48.47 44.0009 48.0453 44.0574 47.6167ZM43.8203 48.7894C43.7518 48.8076 43.6845 48.831 43.6168 48.8523C43.472 48.9437 43.3174 48.8804 43.1667 48.8854C43.1667 48.8854 43.1613 48.8754 43.1617 48.8708C43.1633 48.8652 43.166 48.8599 43.1696 48.8552C43.0574 48.8083 43.0194 48.7077 42.9817 48.6064C42.9506 48.56 42.9339 48.5057 42.9336 48.4501C42.9333 48.3946 42.9494 48.3401 42.9799 48.2933C43.0245 48.1512 43.1512 48.1178 43.2757 48.0819C43.2699 48.0798 43.2627 48.0798 43.2587 48.0759C43.2525 48.0687 43.2469 48.0609 43.2421 48.0528C43.4402 48.0346 43.6396 48.0353 43.8376 48.0549C43.8376 48.0599 43.8376 48.0673 43.834 48.0687C43.8235 48.0741 43.8126 48.0789 43.8014 48.083C43.8376 48.1082 43.8843 48.1153 43.8843 48.1814C43.8843 48.3466 43.893 48.5119 43.9046 48.6768C43.9093 48.744 43.8796 48.7724 43.8203 48.7884V48.7894Z" fill="#0F0F0F"/>
<path d="M53.9012 47.4721C53.7078 47.4706 53.5145 47.4789 53.3219 47.497C53.1956 47.5094 53.134 47.4945 53.146 47.347C53.1572 47.2048 53.1344 47.0627 53.1326 46.9206C53.1326 46.8317 53.1152 46.7844 53.0022 46.7894C52.8791 46.7944 52.9084 46.8623 52.9113 46.9316C52.9298 47.3335 52.9515 47.7354 52.9635 48.1377C52.9787 48.6352 52.9751 48.6352 53.4881 48.5446L53.2224 48.5332L53.1988 48.54C53.2133 48.5588 53.1746 48.5467 53.1988 48.5318H53.2176C53.4479 48.5141 53.6782 48.4693 53.9081 48.5318C54.2274 48.4874 54.3426 48.3662 54.3487 48.0599C54.3505 48.0006 54.3492 47.9413 54.3447 47.8822C54.3237 47.6171 54.1731 47.4728 53.9012 47.4721ZM53.9099 48.3182C53.7017 48.3435 53.4906 48.3428 53.281 48.3573C53.2108 48.3623 53.1829 48.3406 53.1861 48.2706C53.1905 48.1882 53.1861 48.1054 53.1861 48.0219C53.1695 47.6906 53.1695 47.691 53.504 47.685C53.63 47.6828 53.7575 47.6711 53.882 47.6775C54.0435 47.6853 54.1079 47.7752 54.1112 47.9941C54.1141 48.1413 54.0978 48.2955 53.9095 48.3182H53.9099Z" fill="#0F0F0F"/>
<path d="M22.4917 48.9337C22.3151 48.9826 22.1282 48.9826 21.9515 48.9337L21.6286 48.9266C21.5612 48.8108 21.575 48.6928 21.6181 48.5737C21.6148 48.4671 21.6496 48.3555 21.5877 48.2539C21.4733 48.2873 21.4237 48.3577 21.4428 48.4781C21.4508 48.5322 21.4588 48.5933 21.4146 48.642C21.4084 48.7887 21.403 48.9352 21.4396 49.0794L21.457 48.9426C21.462 49.1509 21.5185 49.3595 21.4508 49.5659C21.4548 49.69 21.4584 49.8147 21.4631 49.938C21.4631 49.9871 21.4689 50.035 21.5413 50.0258C21.8643 49.9853 22.193 50.0237 22.5138 49.9579C22.6909 49.9224 22.7919 49.8055 22.8223 49.6306C22.8442 49.5077 22.8431 49.3818 22.819 49.2593C22.7825 49.0851 22.6891 48.9558 22.4917 48.9337ZM22.3357 49.7731C22.2347 49.782 22.1322 49.7749 22.0301 49.7749C21.668 49.7937 21.668 49.7937 21.6612 49.4266C21.6568 49.1495 21.6568 49.1502 21.9414 49.1367C22.0609 49.131 22.1804 49.116 22.3002 49.1136C22.503 49.11 22.5851 49.2003 22.596 49.427C22.6069 49.6537 22.533 49.7571 22.3357 49.7731Z" fill="#0F0F0F"/>
<path d="M56.1627 47.4057C56.3296 47.1588 56.4787 46.9004 56.6435 46.6332C56.3828 46.631 56.3842 46.6332 56.2771 46.8155C56.1739 46.9932 56.0671 47.1684 55.9548 47.3567C55.81 47.1755 55.6605 47.0177 55.5446 46.84C55.436 46.6722 55.2995 46.6769 55.125 46.7064C55.3383 46.9629 55.537 47.2064 55.7405 47.4452C55.806 47.5216 55.8205 47.5799 55.755 47.6694C55.5801 47.9086 55.4179 48.1563 55.2506 48.4004C55.3133 48.4566 55.3933 48.4129 55.4621 48.436L55.9646 47.7359C56.0946 47.92 56.2351 48.0913 56.343 48.2793C56.4338 48.4381 56.5439 48.4463 56.7094 48.3894C56.5283 48.1407 56.3578 47.8962 56.1764 47.6623C56.1073 47.5706 56.0935 47.5081 56.1627 47.4057Z" fill="#0F0F0F"/>
<path d="M38.3312 48.2048C38.496 47.9652 38.639 47.7108 38.7957 47.4542C38.602 47.4208 38.501 47.4819 38.4279 47.6319C38.3392 47.8156 38.2215 47.9873 38.1107 48.1717C37.9659 47.9912 37.8171 47.8341 37.702 47.6557C37.5933 47.4876 37.4576 47.4901 37.2812 47.5207C37.4902 47.7719 37.6817 48.0136 37.8863 48.2438C37.9735 48.3419 37.9674 48.4116 37.8939 48.5121C37.7259 48.7414 37.5702 48.9795 37.4098 49.214C37.4746 49.2584 37.5488 49.2464 37.6209 49.2496L38.1227 48.5509C38.2545 48.7375 38.3949 48.9084 38.5028 49.0971C38.5941 49.257 38.7027 49.2638 38.8671 49.2037C38.686 48.9549 38.5238 48.7158 38.3428 48.4887C38.2595 48.3856 38.2541 48.317 38.3312 48.2048Z" fill="#0F0F0F"/>
<path d="M28.7242 48.4952L28.7079 48.6316C28.7079 48.5883 28.7032 48.5453 28.6992 48.5023C28.6909 48.5005 28.6934 48.4898 28.6992 48.4806C28.6844 48.3225 28.663 48.1647 28.7148 48.0076C28.7347 47.9298 28.7068 47.901 28.6232 47.907C28.3473 47.9236 28.0712 47.9369 27.7948 47.9468C27.7017 47.95 27.6742 47.9866 27.6739 48.0765C27.6739 48.2354 27.6623 48.3946 27.6492 48.5535C27.6167 48.9557 27.5254 49.3484 27.4219 49.7404C27.6576 49.7528 27.6612 49.7536 27.7036 49.5489C27.7908 49.127 27.8697 48.7045 27.8922 48.2734C27.8947 48.2251 27.8745 48.1569 27.9588 48.1529C28.133 48.1451 28.3209 48.1018 28.4762 48.1529C28.5558 48.1782 28.4957 48.3807 28.5186 48.5012C28.5228 48.5183 28.5282 48.535 28.5348 48.5513L28.5522 48.4845C28.5522 48.5058 28.5548 48.5275 28.5569 48.5488C28.5569 48.5488 28.5569 48.552 28.5569 48.5542C28.5714 48.7034 28.6026 48.853 28.5457 49.0012C28.5537 49.2063 28.5635 49.4113 28.5689 49.6167C28.5689 49.6825 28.5895 49.7159 28.663 49.7013C28.7231 49.6892 28.8028 49.7102 28.7897 49.6029C28.743 49.234 28.7821 48.8619 28.7242 48.4952Z" fill="#0F0F0F"/>
<path d="M29.8106 48.6651C30.0619 48.411 30.2788 48.132 30.4985 47.8438C30.3197 47.8012 30.197 47.8438 30.1086 47.9924C30.0525 48.0764 29.989 48.1555 29.9189 48.2287C29.7802 48.3911 29.6394 48.5517 29.4779 48.7383C29.4641 48.4632 29.4536 48.2326 29.4417 48.0023C29.4384 47.9462 29.4728 47.8651 29.3537 47.8754C29.2625 47.8829 29.2071 47.8989 29.2208 48.0076C29.2375 48.142 29.2161 48.2795 29.2531 48.4128C29.2578 48.304 29.2628 48.1956 29.2675 48.0872C29.2697 48.174 29.2737 48.26 29.2784 48.3463C29.2763 48.3107 29.2774 48.2751 29.2817 48.2397C29.2799 48.2752 29.2791 48.3108 29.2784 48.3492C29.2943 48.6313 29.3208 48.9124 29.332 49.1942C29.3349 49.2706 29.3273 49.3478 29.3342 49.4238C29.3392 49.4824 29.298 49.5841 29.383 49.5876C29.4772 49.5915 29.4366 49.4881 29.4388 49.432C29.4446 49.2731 29.4388 49.1139 29.4413 48.9551C29.4413 48.8982 29.4232 48.8349 29.483 48.7919C29.7002 48.8133 29.8508 48.9405 29.9938 49.0862C30.1466 49.2419 30.2408 49.4391 30.3834 49.6015C30.3956 49.5945 30.4092 49.5904 30.4232 49.5894L30.5923 49.5382C30.3852 49.2017 30.1966 48.8495 29.8106 48.6651Z" fill="#0F0F0F"/>
<path d="M50.5086 46.9066C50.0872 46.9272 49.6661 46.951 49.2443 46.9692C49.1606 46.9727 49.119 46.9813 49.1212 47.0843C49.1237 47.1977 49.182 47.1909 49.2588 47.1838C49.3786 47.1742 49.4999 47.1728 49.6208 47.1575C49.7417 47.1422 49.795 47.1678 49.804 47.3089C49.8236 47.6152 49.7928 47.9244 49.8507 48.229L49.8681 48.1284H49.8916C49.8916 48.2677 49.8916 48.407 49.8916 48.5463C49.8916 48.5911 49.8775 48.6448 49.9322 48.6707C49.997 48.7013 50.0285 48.6487 50.0658 48.6128C50.0553 48.2816 50.0379 47.9507 50.0375 47.6195C50.0375 47.4642 49.9354 47.2574 50.0502 47.1685C50.1556 47.0868 50.3627 47.133 50.5245 47.1198C50.5937 47.1145 50.6838 47.1554 50.6788 47.0168C50.6737 46.8782 50.5908 46.9024 50.5086 46.9066Z" fill="#0F0F0F"/>
<path d="M42.4342 47.2972C42.3024 47.3303 42.1699 47.3189 42.0359 47.3033C41.7065 47.3154 41.377 47.3257 41.0479 47.3388C40.8871 47.3459 40.8774 47.3704 40.9483 47.5449C41.0678 47.5115 41.188 47.5225 41.3104 47.5389C41.4049 47.5588 41.503 47.5161 41.5968 47.5542L41.6283 47.5513C41.6518 47.9778 41.7039 48.4017 41.6645 48.8307C41.6645 48.841 41.6518 48.8502 41.6453 48.8598C41.6384 49.1313 41.6384 49.1313 41.8495 49.073L41.6797 49.0631C41.9034 49.0126 41.7677 48.842 41.8509 48.7553C41.8394 48.3975 41.8372 48.0389 41.8126 47.6821C41.8021 47.5328 41.8549 47.5019 41.9882 47.5097C42.1018 47.5134 42.2156 47.5103 42.3289 47.5005C42.4972 47.4898 42.5023 47.4781 42.4375 47.2969L42.4342 47.2972Z" fill="#0F0F0F"/>
<path d="M54.8082 48.1477C54.746 48.0265 54.7916 47.8989 54.7804 47.7724C54.7777 47.6016 54.7751 47.4305 54.7724 47.2593C54.7384 47.1363 54.784 47.0073 54.7445 46.8847C54.7938 46.707 54.6917 46.7031 54.5635 46.7326C54.5309 46.8083 54.5425 46.8847 54.5613 46.9611C54.564 47.1319 54.5666 47.303 54.5693 47.4743C54.6055 47.5972 54.5577 47.7262 54.5975 47.8492L54.6051 48.3268C54.6533 48.3776 54.6298 48.4405 54.6355 48.4984C54.7702 48.5258 54.8394 48.4835 54.8198 48.3378C54.8093 48.2749 54.8111 48.2109 54.8082 48.1477ZM54.7358 48.4171C54.6736 48.4338 54.675 48.378 54.6656 48.3392C54.5982 48.0585 54.6435 47.7738 54.6384 47.491C54.6384 47.4554 54.658 47.4199 54.7047 47.4263C54.7434 47.433 54.7409 47.47 54.7409 47.4974C54.7409 47.6157 54.7409 47.7344 54.7409 47.8691C54.7557 48.0052 54.7166 48.1601 54.7666 48.3115C54.7786 48.3503 54.7916 48.4021 54.7366 48.4171H54.7358Z" fill="#0F0F0F"/>
<path d="M45.7654 47.6563C45.6448 47.6588 45.5482 47.6897 45.555 47.834C45.5605 47.9484 45.5677 48.0685 45.7502 48.0497C45.8758 48.0661 45.9421 48.0021 45.9395 47.8692C45.9377 47.7547 45.9178 47.6535 45.7654 47.6563Z" fill="#0F0F0F"/>
<path d="M33.8405 48.2115C33.7192 48.2165 33.6305 48.2342 33.6371 48.3856C33.6425 48.51 33.6602 48.6116 33.8181 48.6063C33.9419 48.6024 34.0281 48.5583 34.0067 48.4112C34.0176 48.2943 33.9977 48.203 33.8405 48.2115Z" fill="#0F0F0F"/>
<path d="M23.2397 49.0705L23.2154 49.0741C23.1904 49.3107 23.2672 49.5428 23.2516 49.7791C23.2487 49.8193 23.2578 49.874 23.2009 49.8769C23.1441 49.8797 23.1499 49.8253 23.1441 49.7855C23.0796 49.3235 23.1336 48.8548 23.0717 48.3925C23.0686 48.363 23.0686 48.3334 23.0717 48.304C23.0746 48.2684 23.0825 48.23 23.1325 48.2364C23.1687 48.2414 23.1712 48.2752 23.1763 48.304C23.1904 48.3832 23.1488 48.4706 23.2143 48.5417C23.2143 48.4259 23.2143 48.3104 23.2143 48.1949C23.1488 48.2158 23.0293 48.0939 23.0188 48.2443C23.0069 48.4131 23.0318 48.5847 23.0405 48.7549C23.0985 48.8644 23.0637 48.9806 23.0666 49.094L23.0764 49.6071C23.1354 49.7105 23.0995 49.8204 23.1035 49.9291L23.2846 49.9266C23.3153 49.7489 23.2846 49.5712 23.2824 49.3935C23.2172 49.2923 23.2712 49.1761 23.2397 49.0705Z" fill="#0F0F0F"/>
<path d="M29.4422 48.9531C29.4422 49.1119 29.4454 49.2729 29.4396 49.43C29.4375 49.4861 29.478 49.5895 29.3839 49.5856C29.2981 49.5821 29.3401 49.479 29.335 49.4218C29.3281 49.3457 29.335 49.2686 29.3328 49.1922C29.3216 48.9104 29.2966 48.6293 29.2793 48.3471V48.345C29.2745 48.2587 29.2706 48.1726 29.2684 48.0859C29.2637 48.1925 29.2586 48.3027 29.2539 48.4115L29.2669 48.8955C29.3278 49.0287 29.2858 49.1688 29.2945 49.3056C29.2978 49.4176 29.3009 49.5295 29.3035 49.6411H29.5045L29.5092 49.57C29.4491 49.4605 29.4914 49.3433 29.4816 49.2302C29.4831 49.0834 29.4844 48.9367 29.4856 48.7903C29.4241 48.8329 29.4429 48.8962 29.4422 48.9531Z" fill="#0F0F0F"/>
<path d="M44.0947 48.1126C44.0343 48.0035 44.0763 47.8862 44.0676 47.7728C44.0647 47.721 44.0614 47.6691 44.0582 47.6172C44.0017 48.0458 44.0618 48.4701 44.1034 48.8965C44.1577 48.8724 44.1313 48.8255 44.1295 48.7899C44.1197 48.5639 44.1067 48.3382 44.0947 48.1126Z" fill="#0F0F0F"/>
<path d="M41.6292 47.5508L41.5977 47.5536C41.6013 47.7048 41.605 47.8557 41.6089 48.0064C41.6704 48.1276 41.6277 48.2551 41.636 48.3809C41.6389 48.5399 41.6417 48.6989 41.6444 48.8578C41.6509 48.8483 41.6625 48.839 41.6636 48.8287C41.7063 48.4012 41.6527 47.9765 41.6292 47.5508Z" fill="#0F0F0F"/>
<path d="M49.933 48.6712C49.8784 48.6453 49.8932 48.5916 49.8925 48.5468C49.8907 48.4075 49.8925 48.2682 49.8925 48.1289H49.8689L49.8516 48.2295C49.8516 48.3645 49.8584 48.4999 49.8545 48.6353C49.8519 48.7082 49.8802 48.7238 49.9486 48.7202C50.0232 48.7163 50.101 48.7288 50.0674 48.6136C50.0293 48.6492 49.9986 48.7018 49.933 48.6712Z" fill="#0F0F0F"/>
<path d="M36.9619 48.8247C36.9934 48.6134 36.9934 48.3988 36.9619 48.1875C36.9137 48.3973 36.9137 48.6149 36.9619 48.8247Z" fill="#0F0F0F"/>
<path d="M53.2144 48.5326H53.1992H53.2202L53.486 48.544L53.9049 48.5308C53.675 48.4701 53.4447 48.5148 53.2144 48.5326Z" fill="#0F0F0F"/>
<path d="M28.6966 48.4808C28.6966 48.4879 28.6966 48.495 28.6966 48.5025C28.7006 48.5455 28.7039 48.5885 28.7053 48.6319L28.7216 48.4954C28.718 48.3329 28.7142 48.1703 28.7104 48.0078C28.6619 48.1649 28.6818 48.3227 28.6966 48.4808Z" fill="#0F0F0F"/>
<path d="M21.4549 48.9453L21.4375 49.0821C21.4414 49.2442 21.4451 49.4064 21.4487 49.5686C21.5164 49.3622 21.4599 49.1536 21.4549 48.9453Z" fill="#0F0F0F"/>
<path d="M26.6545 48.687C26.4637 48.6564 26.269 48.6564 26.0781 48.687C26.2672 48.7346 26.4655 48.7346 26.6545 48.687Z" fill="#0F0F0F"/>
<path d="M52.3342 48.2706C52.3342 48.277 52.3342 48.283 52.3342 48.2894C52.3356 48.3081 52.3367 48.327 52.3375 48.3459C52.3433 48.3239 52.349 48.3019 52.3552 48.2798C52.3511 48.1173 52.3474 47.955 52.344 47.793C52.2882 47.9515 52.3208 48.111 52.3342 48.2706Z" fill="#0F0F0F"/>
<path d="M39.1825 47.9375C39.1579 48.1254 39.1579 48.3157 39.1825 48.5036C39.2309 48.3179 39.2309 48.1232 39.1825 47.9375Z" fill="#0F0F0F"/>
<path d="M28.5533 48.554C28.5533 48.5519 28.5533 48.5505 28.5533 48.5487C28.5512 48.5274 28.5497 48.5057 28.5486 48.4844L28.5312 48.5512C28.5349 48.7012 28.5386 48.8512 28.5425 49.0014C28.599 48.8522 28.5678 48.7033 28.5533 48.554Z" fill="#0F0F0F"/>
<path d="M21.4413 48.4788C21.4236 48.3584 21.4732 48.288 21.5861 48.2546C21.4533 48.2166 21.3729 48.2372 21.3997 48.4014C21.4086 48.4815 21.4126 48.5621 21.4116 48.6427C21.4572 48.594 21.4493 48.5328 21.4413 48.4788Z" fill="#0F0F0F"/>
<path d="M26.4924 48.1523H26.0547C26.0547 48.1619 26.0547 48.1712 26.0547 48.1804L26.1249 48.1921L26.4653 48.1897L26.5015 48.1627C26.5007 48.1587 26.4957 48.1523 26.4924 48.1523Z" fill="#0F0F0F"/>
<path d="M23.2578 49.0273C23.2606 49.037 23.2627 49.047 23.2648 49.057C23.2689 49.0496 23.2665 49.0396 23.2578 49.0273Z" fill="#0F0F0F"/>
<path d="M23.2188 48.5391C23.2188 48.7165 23.2188 48.8942 23.2188 49.0721L23.243 49.0686L23.2593 49.0281C23.2557 48.8653 23.2519 48.7027 23.2481 48.5401H23.2191L23.2188 48.5391Z" fill="#0F0F0F"/>
<path d="M32.1422 48.7741C32.148 48.7386 32.1538 48.707 32.1599 48.6732C32.1559 48.5463 32.1523 48.4198 32.1487 48.293C32.0861 48.4518 32.1349 48.6132 32.1422 48.7741Z" fill="#0F0F0F"/>
<path d="M22.4933 48.9352C22.3123 48.9071 22.1334 48.9316 21.9531 48.9352C22.1297 48.984 22.3167 48.984 22.4933 48.9352Z" fill="#0F0F0F"/>
<path d="M41.6797 49.0617L41.8495 49.0716C41.8752 48.965 41.8542 48.8584 41.8495 48.7539C41.7677 48.8406 41.9034 49.0112 41.6797 49.0617Z" fill="#0F0F0F"/>
<path d="M40.6918 48.572V48.1484C40.6444 48.2858 40.6444 48.4347 40.6918 48.572Z" fill="#0F0F0F"/>
<path d="M39.6875 49.2048C39.8303 49.2265 39.9757 49.2272 40.1187 49.207C39.9789 49.1609 39.8278 49.1602 39.6875 49.2048Z" fill="#0F0F0F"/>
<path d="M19.4961 48.4336V48.822C19.5453 48.6971 19.5453 48.5586 19.4961 48.4336Z" fill="#0F0F0F"/>
<path d="M29.2689 48.8945C29.2645 49.0321 29.2584 49.1699 29.2964 49.3046C29.2892 49.1678 29.3297 49.0278 29.2689 48.8945Z" fill="#0F0F0F"/>
<path d="M35.457 48.1836V48.5717C35.505 48.4466 35.505 48.3087 35.457 48.1836Z" fill="#0F0F0F"/>
<path d="M31.7587 48.4375H31.3633C31.4906 48.4853 31.6314 48.4853 31.7587 48.4375Z" fill="#0F0F0F"/>
<path d="M31.2539 49.6017C31.385 49.6181 31.5178 49.6181 31.6489 49.6017C31.5216 49.5546 31.3812 49.5546 31.2539 49.6017Z" fill="#0F0F0F"/>
<path d="M41.6083 48.0078C41.6051 48.1336 41.5975 48.2598 41.6355 48.3824C41.6272 48.2573 41.6695 48.129 41.6083 48.0078Z" fill="#0F0F0F"/>
<path d="M21.6286 48.931L21.6181 48.5781C21.5753 48.6972 21.5612 48.8169 21.6286 48.931Z" fill="#0F0F0F"/>
<path d="M25.2003 49.2861V48.9336C25.1764 48.9894 25.1641 49.0493 25.1641 49.1099C25.1641 49.1704 25.1764 49.2303 25.2003 49.2861Z" fill="#0F0F0F"/>
<path d="M52.5811 48.3929C52.5165 48.399 52.4516 48.4014 52.3867 48.4C52.4656 48.4764 52.6087 48.384 52.6706 48.5045C52.6865 48.432 52.6832 48.3787 52.5811 48.3929Z" fill="#0F0F0F"/>
<path d="M32.188 49.4275C32.188 49.309 32.1871 49.1913 32.1851 49.0742C32.1605 49.13 32.148 49.1903 32.1485 49.2511C32.149 49.312 32.1624 49.372 32.188 49.4275Z" fill="#0F0F0F"/>
<path d="M23.2835 49.3912C23.2926 49.2791 23.2866 49.1663 23.2657 49.0558C23.2635 49.0462 23.2614 49.0366 23.2585 49.0273L23.2422 49.0679C23.2733 49.1734 23.2194 49.2896 23.2835 49.3912Z" fill="#0F0F0F"/>
<path d="M54.807 48.1487C54.8092 48.0229 54.8201 47.8964 54.7791 47.7734C54.7904 47.8985 54.7447 48.0275 54.807 48.1487Z" fill="#0F0F0F"/>
<path d="M55.2528 48.3984C55.2426 48.4212 55.1803 48.4581 55.2412 48.4642C55.3136 48.4713 55.3997 48.5058 55.4642 48.4329C55.3954 48.4109 55.3154 48.4546 55.2528 48.3984Z" fill="#0F0F0F"/>
<path d="M23.0421 48.7539C23.0392 48.868 23.0302 48.9824 23.0682 49.0933C23.0653 48.9796 23.1 48.8634 23.0421 48.7539Z" fill="#0F0F0F"/>
<path d="M29.5096 49.5702C29.5121 49.4561 29.5219 49.3413 29.482 49.2305C29.4918 49.3435 29.4495 49.4608 29.5096 49.5702Z" fill="#0F0F0F"/>
<path d="M36.0312 49.3861H36.3538C36.3032 49.3633 36.2482 49.3516 36.1925 49.3516C36.1369 49.3516 36.0819 49.3633 36.0312 49.3861Z" fill="#0F0F0F"/>
<path d="M44.092 48.1132C44.0952 47.9991 44.1065 47.8843 44.0645 47.7734C44.0735 47.8868 44.0315 48.0041 44.092 48.1132Z" fill="#0F0F0F"/>
<path d="M23.0779 49.6055C23.0779 49.7121 23.0595 49.823 23.1047 49.9274C23.1652 49.9747 23.2246 49.9555 23.2858 49.9246L23.1047 49.9271C23.1011 49.8198 23.137 49.7089 23.0779 49.6055Z" fill="#0F0F0F"/>
<path d="M30.4226 49.5863L30.3828 49.5984C30.4518 49.6051 30.5211 49.6062 30.5903 49.6016C30.6652 49.5906 30.5964 49.5583 30.5903 49.5352L30.4226 49.5863Z" fill="#0F0F0F"/>
<path d="M37.4129 49.2148C37.4035 49.2379 37.3405 49.2749 37.4009 49.2806C37.4733 49.2877 37.5602 49.3232 37.624 49.249C37.5519 49.2472 37.4777 49.2593 37.4129 49.2148Z" fill="#0F0F0F"/>
<path d="M20.356 48.2617H20.1055C20.1434 48.2839 20.1866 48.2956 20.2307 48.2956C20.2748 48.2956 20.3181 48.2839 20.356 48.2617Z" fill="#0F0F0F"/>
<path d="M29.5038 49.6406H29.3047C29.3691 49.7 29.4358 49.6644 29.5038 49.6406Z" fill="#0F0F0F"/>
<path d="M54.6009 48.3281C54.6085 48.3861 54.5647 48.4525 54.6313 48.4998C54.6256 48.4418 54.6491 48.3789 54.6009 48.3281Z" fill="#0F0F0F"/>
<path d="M52.1372 48.4382L51.941 48.4258L51.5195 48.4375C51.656 48.4762 51.9667 48.4791 52.1372 48.4382Z" fill="#0F0F0F"/>
<path d="M20.0039 48.4724L20.3913 48.4681C20.2613 48.4102 20.1324 48.4013 20.0039 48.4724Z" fill="#0F0F0F"/>
<path d="M47.5829 47.5195C47.58 47.5234 47.5742 47.5274 47.5742 47.5316C47.5742 47.7572 47.5742 47.9829 47.5742 48.209H47.6025L47.6144 48.1411C47.6144 47.9449 47.6136 47.7487 47.6119 47.5526L47.5829 47.5195Z" fill="#0F0F0F"/>
<path d="M36.7461 48.2689V48.7771C36.7551 48.7899 36.7642 48.803 36.7736 48.8154C36.7736 48.8154 36.7848 48.8108 36.7848 48.8083C36.7848 48.6051 36.7848 48.4021 36.7848 48.1992H36.7584L36.7461 48.2689Z" fill="#0F0F0F"/>
<path d="M39.3699 47.9453C39.3663 47.9485 39.3594 47.9517 39.3594 47.9546C39.3594 48.1337 39.3594 48.3128 39.3594 48.4919H39.3858L39.3988 48.4244C39.3988 48.2765 39.3988 48.1289 39.3988 47.9816L39.3699 47.9453Z" fill="#0F0F0F"/>
<path d="M43.8342 48.0681C43.8371 48.0681 43.8367 48.0592 43.8378 48.0543C43.6398 48.0347 43.4403 48.034 43.2422 48.0521C43.247 48.0603 43.2526 48.068 43.2588 48.0752C43.2628 48.0792 43.2701 48.0792 43.2759 48.0813H43.8016C43.8127 48.0776 43.8236 48.0732 43.8342 48.0681Z" fill="#0F0F0F"/>
<path d="M43.1602 48.87C43.1602 48.8747 43.1634 48.8846 43.1652 48.8846C43.3158 48.8796 43.4715 48.9429 43.6153 48.8516L43.1681 48.8544C43.1645 48.8591 43.1618 48.8644 43.1602 48.87Z" fill="#0F0F0F"/>
<path d="M42.9817 48.6061C42.9817 48.5016 42.9817 48.3974 42.9799 48.293C42.9494 48.3397 42.9333 48.3942 42.9336 48.4498C42.9339 48.5053 42.9506 48.5596 42.9817 48.6061Z" fill="#0F0F0F"/>
<path d="M54.7416 47.8696C54.7416 47.7349 54.7416 47.6162 54.7416 47.4979C54.7416 47.4698 54.7448 47.4328 54.7054 47.4268C54.6587 47.419 54.6384 47.4574 54.6391 47.4915C54.6442 47.7758 54.5989 48.0601 54.6663 48.3398C54.6757 48.3785 54.6742 48.4343 54.7365 48.4176C54.7916 48.4027 54.7792 48.3508 54.7669 48.3128C54.7162 48.1607 54.7553 48.0057 54.7416 47.8696Z" fill="#0F0F0F"/>
<path d="M23.1812 48.3016C23.1761 48.2728 23.1754 48.239 23.1374 48.234C23.0874 48.2277 23.0794 48.265 23.0765 48.3016C23.0735 48.331 23.0735 48.3606 23.0765 48.3901C23.1377 48.852 23.0838 49.3208 23.1489 49.7831C23.1547 49.8229 23.1471 49.8777 23.2058 49.8745C23.2644 49.8713 23.2536 49.8169 23.2565 49.7767C23.2731 49.5404 23.1964 49.3083 23.2203 49.0717C23.2203 48.8942 23.2203 48.7165 23.2203 48.5386H23.2492C23.2492 48.422 23.2695 48.3037 23.2192 48.1914C23.2192 48.3069 23.2192 48.4224 23.2192 48.5383C23.1536 48.4682 23.1953 48.3808 23.1812 48.3016Z" fill="#0F0F0F"/>
<path d="M35.554 43.4965C35.0301 43.5129 34.507 43.5434 33.9834 43.5644C33.9034 43.5676 33.8665 43.5811 33.8716 43.6739C33.8957 44.0811 33.9142 44.4887 33.9269 44.8967C33.9302 44.9852 33.9483 45.0222 34.0493 45.0147C34.3075 44.9948 34.5663 44.9863 34.8846 44.9703C35.1359 44.9347 35.4519 44.9703 35.7622 44.9191C36.0045 44.8775 36.1272 44.7549 36.18 44.5182C36.2188 44.3459 36.1996 44.1767 36.1721 44.0076C36.116 43.6586 35.9139 43.4862 35.554 43.4965Z" fill="#FBBC2B"/>
<path d="M33.9776 42.5029C34.4519 42.4738 34.9265 42.4535 35.4016 42.4318C35.8379 42.4134 36.004 42.2314 35.9715 41.8C35.9675 41.7467 35.9628 41.6934 35.9566 41.6411C35.9244 41.3714 35.7973 41.2438 35.5196 41.2502C34.9783 41.2634 34.4378 41.2961 33.8968 41.3156C33.7984 41.3192 33.7777 41.3558 33.7817 41.4439C33.7889 41.5971 33.7839 41.751 33.7839 41.9059H33.8201C33.8201 42.0534 33.8277 42.2016 33.8179 42.3483C33.8096 42.4713 33.8487 42.5111 33.9776 42.5029Z" fill="#FBBC2B"/>
<path d="M29.5117 41.9684C29.3886 41.6667 29.1626 41.5065 28.8314 41.4627C28.5734 41.4354 28.3129 41.4402 28.0562 41.477C27.5551 41.5363 27.327 41.7563 27.2296 42.2488C27.2032 42.3817 27.1858 42.5161 27.1641 42.6501L27.1662 43.5189C27.2024 43.622 27.188 43.7297 27.1974 43.8352C27.226 44.1593 27.2586 44.482 27.3748 44.7908C27.4964 45.1142 27.7198 45.3015 28.0736 45.352C28.3531 45.3914 28.6268 45.3694 28.9009 45.3267C29.3332 45.2589 29.5765 45.0019 29.6612 44.584C29.7651 44.079 29.7376 43.5708 29.7075 43.063C29.6873 42.6913 29.655 42.3196 29.5117 41.9684Z" fill="#FBBC2B"/>
<path d="M27.1367 42.5078V43.6916H27.1537C27.1584 43.6336 27.1628 43.5757 27.1675 43.5178L27.1653 42.6489C27.1479 42.6045 27.1831 42.5483 27.1367 42.5078Z" fill="#0F0F0F"/>
</svg>
