<svg width="24" height="24" viewBox="0 0 24 24" fill="none" xmlns="http://www.w3.org/2000/svg">
<g opacity="0.5">
<path d="M18.25 11C18.25 11.8194 17.9808 12.8179 17.5028 13.8874C17.0289 14.9478 16.3714 16.0298 15.6482 17.0022C14.9239 17.9759 14.1495 18.8185 13.4527 19.4089C13.1038 19.7045 12.7888 19.9246 12.5216 20.0673C12.2432 20.2161 12.0738 20.25 12 20.25C11.9262 20.25 11.7568 20.2161 11.4784 20.0673C11.2112 19.9246 10.8962 19.7045 10.5473 19.4089C9.85049 18.8185 9.07606 17.9759 8.35179 17.0022C7.62861 16.0298 6.97112 14.9478 6.49722 13.8874C6.01918 12.8179 5.75 11.8194 5.75 11C5.75 7.54822 8.54822 4.75 12 4.75C15.4518 4.75 18.25 7.54822 18.25 11Z" stroke="white" stroke-width="1.5"/>
<circle cx="12" cy="11" r="2.25" stroke="white" stroke-width="1.5"/>
</g>
</svg>
