<svg width="14" height="14" viewBox="0 0 14 14" fill="none" xmlns="http://www.w3.org/2000/svg">
<mask id="mask0_225_1176" style="mask-type:luminance" maskUnits="userSpaceOnUse" x="0" y="0" width="14" height="14">
<path d="M14 0H0V14H14V0Z" fill="white"/>
</mask>
<g mask="url(#mask0_225_1176)">
<path fill-rule="evenodd" clip-rule="evenodd" d="M7.07067 0.466797H6.91592C6.89204 0.470566 6.86865 0.475774 6.84537 0.480956C6.80765 0.489355 6.77022 0.497687 6.73154 0.499723C3.8703 0.588622 1.33831 2.6366 0.646868 5.49455C0.525043 5.99502 0.455899 6.50208 0.465776 7.01242C0.518458 9.21845 1.42063 10.9964 3.19861 12.3134C4.09419 12.9752 5.10501 13.3703 6.20802 13.4922C8.19015 13.7062 9.93849 13.1497 11.4169 11.8031C12.4541 10.8548 13.1093 9.6794 13.3891 8.30311C13.43 8.09419 13.4498 7.88105 13.4697 7.66737C13.4802 7.55439 13.4907 7.44125 13.5044 7.32851C13.511 7.24949 13.5241 7.17047 13.5373 7.09145V6.9367C13.5343 6.92348 13.5312 6.91043 13.5281 6.89747C13.5174 6.8523 13.5069 6.80824 13.5044 6.76219C13.4682 5.55382 13.1159 4.44093 12.4442 3.43999C11.3938 1.86943 9.9319 0.908001 8.06502 0.578744C7.89425 0.550282 7.71911 0.536378 7.54444 0.522512C7.45643 0.515525 7.36855 0.508548 7.2814 0.499723C7.23938 0.495721 7.19616 0.488074 7.15319 0.480473C7.12544 0.475563 7.0978 0.470673 7.07067 0.466797ZM3.25146 5.99927C3.11339 5.99927 3.00146 6.1112 3.00146 6.24927V7.74927C3.00146 7.88734 3.11339 7.99927 3.25146 7.99927H10.7515C10.8895 7.99927 11.0015 7.88734 11.0015 7.74927V6.24927C11.0015 6.1112 10.8895 5.99927 10.7515 5.99927H3.25146Z" fill="#737373"/>
</g>
</svg>
