<svg width="24" height="24" viewBox="0 0 24 24" fill="none" xmlns="http://www.w3.org/2000/svg">
<path d="M8 6C8 4.34315 9.27919 3 10.8571 3C12.4351 3 13.7143 4.34315 13.7143 6V16.8C13.7143 17.7941 12.9468 18.6 12 18.6C11.0532 18.6 10.2857 17.7941 10.2857 16.8V8.4C10.2857 8.06863 10.5416 7.8 10.8571 7.8C11.1727 7.8 11.4286 8.06863 11.4286 8.4V16.8C11.4286 17.1314 11.6844 17.4 12 17.4C12.3156 17.4 12.5714 17.1314 12.5714 16.8V6C12.5714 5.00589 11.8039 4.2 10.8571 4.2C9.91037 4.2 9.14286 5.00589 9.14286 6V16.8C9.14286 18.4569 10.422 19.8 12 19.8C13.578 19.8 14.8571 18.4569 14.8571 16.8V8.4C14.8571 8.06863 15.113 7.8 15.4286 7.8C15.7442 7.8 16 8.06863 16 8.4V16.8C16 19.1196 14.2091 21 12 21C9.79086 21 8 19.1196 8 16.8V6Z" fill="#737373"/>
</svg>
