<svg width="24" height="24" viewBox="0 0 24 24" fill="none" xmlns="http://www.w3.org/2000/svg">
<path d="M19.3489 20.4015C10.3907 20.4143 3.59199 13.534 3.60157 4.6542C3.60157 4.0743 4.07167 3.60156 4.65157 3.60156H7.4229C7.94325 3.60156 8.38529 3.9839 8.4617 4.49861C8.64483 5.73222 9.00399 6.93318 9.52827 8.0648L9.63617 8.29769C9.7862 8.62152 9.68451 9.00627 9.39407 9.21368C8.53583 9.82658 8.20783 11.0603 8.87644 12.0229C9.71548 13.2309 10.7731 14.2884 11.9808 15.127C12.9434 15.7954 14.177 15.4675 14.7898 14.6094C14.9974 14.3188 15.3824 14.2171 15.7064 14.3672L15.9382 14.4745C17.0699 14.9988 18.271 15.358 19.5047 15.5411C20.0194 15.6175 20.4016 16.0595 20.4016 16.5798V19.3515C20.4016 19.9314 19.9303 20.4015 19.3504 20.4015L19.3489 20.4015Z" fill="#9E9E9E"/>
</svg>
