<svg width="30" height="30" viewBox="0 0 30 30" fill="none" xmlns="http://www.w3.org/2000/svg">
<path fill-rule="evenodd" clip-rule="evenodd" d="M16.3486 22.4373C16.3486 22.4373 16.845 22.3846 17.0992 22.1235C17.3319 21.8843 17.3238 21.433 17.3238 21.433C17.3238 21.433 17.2928 19.3252 18.3164 19.014C19.3252 18.708 20.6204 21.0523 21.9951 21.9538C23.0334 22.6353 23.8216 22.4862 23.8216 22.4862L27.4949 22.4373C27.4949 22.4373 29.4156 22.3241 28.505 20.88C28.4297 20.7617 27.9737 19.8113 25.7746 17.8592C23.4706 15.8158 23.7799 16.1463 26.5534 12.6111C28.2427 10.4584 28.9179 9.14413 28.7067 8.58215C28.5063 8.04462 27.2635 8.18736 27.2635 8.18736L23.1289 8.21179C23.1289 8.21179 22.8223 8.17193 22.5949 8.30181C22.373 8.42912 22.2291 8.72618 22.2291 8.72618C22.2291 8.72618 21.5754 10.3915 20.7025 11.8087C18.8612 14.7973 18.1254 14.9555 17.8241 14.7703C17.1234 14.3369 17.2982 13.0316 17.2982 12.1045C17.2982 9.20714 17.7582 7.99961 16.4038 7.68711C15.9545 7.58295 15.6237 7.51479 14.4737 7.50322C12.9982 7.48907 11.75 7.50836 11.0425 7.83886C10.5718 8.05876 10.2086 8.55001 10.4305 8.5783C10.7036 8.61302 11.3223 8.73776 11.6505 9.1647C12.0741 9.71639 12.0594 10.9535 12.0594 10.9535C12.0594 10.9535 12.3028 14.3639 11.4904 14.787C10.9336 15.0776 10.1696 14.4848 8.52731 11.7727C7.68667 10.3838 7.05182 8.84835 7.05182 8.84835C7.05182 8.84835 6.92942 8.56158 6.71018 8.40726C6.44521 8.22079 6.07533 8.16293 6.07533 8.16293L2.14651 8.18736C2.14651 8.18736 1.55604 8.20279 1.3395 8.44841C1.14716 8.66574 1.3247 9.11712 1.3247 9.11712C1.3247 9.11712 4.40078 15.9984 7.88439 19.4667C11.0788 22.6456 14.705 22.4373 14.705 22.4373H16.3486Z" fill="#4680C2"/>
</svg>
