<svg width="43" height="84" viewBox="0 0 43 84" fill="none" xmlns="http://www.w3.org/2000/svg">
<path d="M11.8832 18.1153L16.4701 7.45312L13.712 7.45312L13.0824 7.45312L10.8998 13.0443L10.8879 13.0324L9.88653 15.526L9.6347 13.8875C9.07108 11.9201 7.25429 9.75538 5.24564 8.70292L5.27562 8.81654C5.24564 8.7986 5.21566 8.78066 5.17969 8.76272L8.00379 19.2574L11.3915 19.2574L11.4215 19.1916L11.4575 19.1916L11.8832 18.1153Z" fill="#00579F"/>
<path d="M39.6069 14.4071L38.0359 7.38672L36.3511 7.38672L35.5956 7.38672C34.8401 7.38672 34.2764 7.4525 33.9647 8.24184L29.2578 19.197L29.6955 19.197L32.6455 19.197L33.2751 17.2296L37.2864 17.2296L37.6642 19.197L40.6741 19.197L39.6069 14.4071ZM35.8474 10.6039L36.0333 11.7162C36.0333 11.7162 36.6209 14.4908 36.7708 15.2563L34.1505 15.2563C34.4024 14.5985 35.4037 11.7819 35.4037 11.7819C35.4037 11.7819 35.6555 11.0643 35.8474 10.6039Z" fill="#00579F"/>
<path d="M18.2285 7.39453L17.6589 7.39453L15.6563 19.1988L18.8521 19.1988L20.7948 7.39453L18.2285 7.39453Z" fill="#00579F"/>
<path d="M29.7052 15.33C29.7052 13.9546 28.8898 12.9021 27.0071 12.053C25.8798 11.461 25.1903 11.1321 25.1903 10.5461C25.1903 10.0198 25.7539 9.49361 27.0071 9.49361C28.0743 9.49361 28.8238 9.69095 29.3875 9.95406L29.6992 10.0856L30.2029 7.52623C29.5733 7.26311 28.572 7 27.3189 7C24.183 7 21.9225 8.63849 21.9225 11.0005C21.9225 12.7706 23.4934 13.6915 24.7466 14.2775C25.61 14.6842 26.0537 14.9951 26.2516 15.324L26.0657 15.1326C26.1736 15.2463 26.2576 15.3419 26.3115 15.4436C26.3595 15.5572 26.3775 15.6708 26.3775 15.7904C26.3775 16.5798 25.3762 16.9685 24.4948 16.9685C23.2416 16.9685 22.5521 16.7711 21.4848 16.3107L21.0471 16.1133L20.6094 18.8043C20.6154 18.8043 20.6154 18.8043 20.6214 18.8103L20.6094 18.8701C21.3649 19.199 22.7439 19.5279 24.183 19.5279C26.1916 19.5279 27.8225 18.9359 28.7639 17.8894L28.7279 17.8535C29.3575 17.1778 29.7052 16.3226 29.7052 15.33Z" fill="#00579F"/>
<path d="M9.54043 13.8151C9.55242 13.839 9.55842 13.8629 9.57041 13.8869L9.45648 13.3845L8.44316 8.3734C8.25729 7.58405 7.68767 7.38672 6.99814 7.38672L1.16406 7.38672L3.16672 8.02657C5.63705 9.01325 7.68767 10.5979 8.85689 12.4457C9.14469 12.9241 9.38453 13.4264 9.57041 13.9407L9.54043 13.8151Z" fill="#F79510"/>
<path d="M17.3955 47.6538C21.8683 47.6538 25.4942 44.0377 25.4942 39.5769C25.4942 35.1162 21.8683 31.5 17.3955 31.5C12.9228 31.5 9.29688 35.1162 9.29688 39.5769C9.29688 44.0377 12.9228 47.6538 17.3955 47.6538Z" fill="#EE0005"/>
<path d="M27.4502 47.6538C31.923 47.6538 35.5489 44.0377 35.5489 39.5769C35.5489 35.1162 31.923 31.5 27.4502 31.5C22.9775 31.5 19.3516 35.1162 19.3516 39.5769C19.3516 44.0377 22.9775 47.6538 27.4502 47.6538Z" fill="#F9A000"/>
<path d="M19.3594 39.5769C19.3594 42.1407 20.5558 44.4231 22.4271 45.9038C24.2984 44.4231 25.4948 42.1407 25.4948 39.5769C25.4948 37.0131 24.2984 34.7308 22.4271 33.25C20.5558 34.7308 19.3594 37.0131 19.3594 39.5769Z" fill="#FF6300"/>
<path d="M11.065 49.3876L11.1203 49.663C11.1816 49.5651 11.2675 49.4855 11.3779 49.4182C11.4884 49.3509 11.6172 49.3203 11.7583 49.3203C12.0774 49.3203 12.2921 49.4427 12.4026 49.6813C12.5621 49.4427 12.7952 49.3203 13.102 49.3203C13.3535 49.3203 13.5437 49.3876 13.6848 49.5222C13.826 49.6569 13.8934 49.8527 13.8934 50.1158V51.5782H13.3474V50.2381C13.3474 50.1035 13.3106 49.9934 13.2431 49.9138C13.1756 49.8343 13.0774 49.7976 12.9547 49.7976C12.8075 49.7976 12.6909 49.8527 12.6173 49.9567C12.5437 50.0607 12.5007 50.1953 12.5007 50.3544V51.5782H11.9547V50.1953C11.9547 49.9261 11.832 49.7976 11.5866 49.7976C11.4454 49.7976 11.3289 49.8527 11.243 49.9567C11.1571 50.0668 11.1203 50.2198 11.1203 50.4217V51.5721H10.5742V49.3876H11.065Z" fill="black"/>
<path d="M16.2122 49.3859H16.6724V51.5704H16.2122L16.1509 51.3134C15.973 51.5275 15.746 51.6377 15.4576 51.6377C15.157 51.6377 14.8993 51.5337 14.6845 51.3195C14.4698 51.1053 14.3594 50.8239 14.3594 50.4751C14.3594 50.1263 14.4698 49.8448 14.6907 49.6307C14.9116 49.4165 15.1631 49.3125 15.4576 49.3125C15.7582 49.3125 15.9914 49.4165 16.1509 49.6184L16.2122 49.3859ZM15.9852 49.9917C15.8625 49.8693 15.7153 49.802 15.5374 49.802C15.3594 49.802 15.2061 49.8632 15.0895 49.9917C14.9668 50.1141 14.9116 50.2793 14.9116 50.4812C14.9116 50.6831 14.9729 50.8483 15.0895 50.9707C15.2122 51.0931 15.3594 51.1604 15.5374 51.1604C15.7153 51.1604 15.8687 51.0992 15.9852 50.9707C16.1079 50.8483 16.1632 50.6831 16.1632 50.4812C16.1632 50.2793 16.1079 50.1141 15.9852 49.9917Z" fill="black"/>
<path d="M18.3983 51.1193C18.4658 51.0764 18.5026 51.0152 18.5026 50.9296C18.5026 50.85 18.4658 50.7827 18.3922 50.7399C18.3186 50.6971 18.1897 50.6665 18.0057 50.6481C17.7541 50.6175 17.5517 50.5441 17.4106 50.4278C17.2694 50.3116 17.1958 50.1525 17.1958 49.9628C17.1958 49.767 17.2756 49.6079 17.4412 49.4916C17.6069 49.3754 17.8155 49.3203 18.0609 49.3203C18.3247 49.3203 18.5272 49.3815 18.6806 49.5039C18.834 49.6263 18.926 49.7915 18.9567 50.0056L18.4658 50.0852C18.4474 49.9689 18.4045 49.8832 18.3309 49.8221C18.2572 49.7609 18.1652 49.7303 18.0548 49.7303C17.9566 49.7303 17.8707 49.7486 17.8094 49.7915C17.7419 49.8343 17.7112 49.8894 17.7112 49.9567C17.7112 50.1158 17.8768 50.2137 18.202 50.2443C18.7542 50.2993 19.0242 50.5196 19.0242 50.8929C19.0242 51.107 18.9383 51.2845 18.7726 51.4252C18.6069 51.5659 18.3861 51.6332 18.1161 51.6332C17.8278 51.6332 17.5946 51.5598 17.4106 51.413C17.2265 51.2661 17.1222 51.0703 17.0977 50.8317L17.6008 50.7399C17.6314 50.8806 17.6866 50.9908 17.7603 51.0642C17.84 51.1376 17.9566 51.1743 18.11 51.1743C18.2327 51.1866 18.3247 51.1621 18.3983 51.1193Z" fill="black"/>
<path d="M19.6053 48.8242H20.1513V49.3872H20.5808V49.8094H20.1513V50.8373C20.1513 51.0393 20.2372 51.1433 20.409 51.1433C20.4704 51.1433 20.5256 51.131 20.587 51.1127V51.5777C20.5195 51.6022 20.4152 51.6144 20.2925 51.6144C20.0839 51.6144 19.9182 51.5594 19.7894 51.4431C19.6605 51.3268 19.5992 51.1494 19.5992 50.9108V49.8155H19.2617V49.3933H19.5992V48.8242H19.6053Z" fill="black"/>
<path d="M23.1261 50.6281H21.4266C21.445 50.7933 21.5125 50.9279 21.6229 51.0258C21.7334 51.1237 21.8684 51.1726 22.0401 51.1726C22.3101 51.1726 22.4942 51.0564 22.5985 50.8239L23.1077 50.983C23.0157 51.191 22.8807 51.3562 22.6905 51.4663C22.5064 51.5826 22.2856 51.6377 22.0401 51.6377C21.6904 51.6377 21.4082 51.5275 21.1996 51.3134C20.991 51.0992 20.8867 50.8177 20.8867 50.4751C20.8867 50.1385 20.9972 49.8632 21.2242 49.6429C21.4512 49.4226 21.7211 49.3125 22.0463 49.3125C22.3592 49.3125 22.623 49.4104 22.8255 49.6062C23.0341 49.802 23.1322 50.0774 23.1322 50.4323V50.6281H23.1261ZM22.0401 49.7592C21.8868 49.7592 21.7579 49.802 21.6598 49.8877C21.5555 49.9733 21.488 50.0896 21.4512 50.2303H22.6046C22.5555 49.9183 22.3715 49.7592 22.0401 49.7592Z" fill="black"/>
<path d="M24.9062 49.3564L24.808 49.8275C24.7528 49.8092 24.6976 49.7969 24.6301 49.7969C24.4951 49.7969 24.3847 49.852 24.2926 49.9683C24.2006 50.0845 24.1515 50.2253 24.1515 50.3966V51.5775H23.6055V49.3931H24.0963L24.1515 49.6807C24.2006 49.5767 24.2681 49.491 24.3663 49.4237C24.4644 49.3564 24.581 49.3258 24.716 49.3258C24.7896 49.3197 24.851 49.3319 24.9062 49.3564Z" fill="black"/>
<path d="M26.7531 50.7582L27.2746 50.9357C27.1089 51.4068 26.7592 51.6455 26.2316 51.6455C25.9064 51.6455 25.6303 51.5415 25.4094 51.3273C25.1886 51.1131 25.0781 50.8317 25.0781 50.4829C25.0781 50.1341 25.1886 49.8527 25.4094 49.6385C25.6303 49.4243 25.9064 49.3203 26.2316 49.3203C26.5077 49.3203 26.7347 49.3876 26.9126 49.5161C27.0905 49.6507 27.2071 49.8404 27.2562 50.0852L26.7531 50.1831C26.7224 50.0729 26.661 49.9811 26.569 49.9077C26.477 49.8343 26.3604 49.8037 26.2316 49.8037C26.0475 49.8037 25.9003 49.8649 25.796 49.9934C25.6855 50.1219 25.6303 50.281 25.6303 50.4829C25.6303 50.6787 25.6855 50.8439 25.796 50.9724C25.9064 51.1009 26.0536 51.1621 26.2316 51.1621C26.4954 51.156 26.6672 51.0275 26.7531 50.7582Z" fill="black"/>
<path d="M29.4779 49.3859H29.938V51.5704H29.4779L29.4165 51.3134C29.2386 51.5275 29.0116 51.6377 28.7232 51.6377C28.4226 51.6377 28.1649 51.5337 27.9502 51.3195C27.7354 51.1053 27.625 50.8239 27.625 50.4751C27.625 50.1263 27.7354 49.8448 27.9563 49.6307C28.1772 49.4165 28.4287 49.3125 28.7232 49.3125C29.0239 49.3125 29.257 49.4165 29.4165 49.6184L29.4779 49.3859ZM29.2509 49.9917C29.1282 49.8693 28.9809 49.802 28.803 49.802C28.6251 49.802 28.4717 49.8632 28.3551 49.9917C28.2324 50.1141 28.1772 50.2793 28.1772 50.4812C28.1772 50.6831 28.2385 50.8483 28.3551 50.9707C28.4778 51.0931 28.6251 51.1604 28.803 51.1604C28.9809 51.1604 29.1343 51.0992 29.2509 50.9707C29.3736 50.8483 29.4288 50.6831 29.4288 50.4812C29.4288 50.2793 29.3736 50.1141 29.2509 49.9917Z" fill="black"/>
<path d="M31.8163 49.3564L31.7182 49.8275C31.6629 49.8092 31.6077 49.7969 31.5402 49.7969C31.4053 49.7969 31.2948 49.852 31.2028 49.9683C31.1108 50.0845 31.0617 50.2253 31.0617 50.3966V51.5775H30.5156V49.3931H31.0065L31.0617 49.6807C31.1108 49.5767 31.1782 49.491 31.2764 49.4237C31.3746 49.3564 31.4911 49.3258 31.6261 49.3258C31.6997 49.3197 31.7611 49.3319 31.8163 49.3564Z" fill="black"/>
<path d="M34.2807 48.5977V51.5776H33.8205L33.7592 51.3206C33.5812 51.5347 33.3542 51.6449 33.0781 51.6449C32.7775 51.6449 32.5198 51.5408 32.3112 51.3267C32.1026 51.1125 31.9922 50.831 31.9922 50.4823C31.9922 50.1335 32.0965 49.852 32.3112 49.6379C32.526 49.4237 32.7775 49.3197 33.0597 49.3197C33.3542 49.3197 33.5751 49.4176 33.7224 49.6073V48.5977H34.2807ZM33.5997 49.9928C33.4831 49.8704 33.3358 49.8031 33.1579 49.8031C32.98 49.8031 32.8327 49.8643 32.7162 49.9928C32.5996 50.1151 32.5444 50.2803 32.5444 50.4823C32.5444 50.6842 32.5996 50.8494 32.7162 50.9718C32.8327 51.0942 32.98 51.1615 33.1579 51.1615C33.3358 51.1615 33.4831 51.1003 33.5997 50.9718C33.7162 50.8494 33.7714 50.6842 33.7714 50.4823C33.7776 50.2803 33.7162 50.1151 33.5997 49.9928Z" fill="black"/>
<path d="M34.625 44.3789H34.9747V44.4462H34.8397V44.8378H34.7661V44.4462H34.6311V44.3789H34.625Z" fill="#F9A000"/>
<path d="M35.2862 44.5992L35.4641 44.3789H35.5254V44.8378H35.4518V44.5013L35.2862 44.7093L35.1205 44.5013V44.8317H35.0469V44.3789H35.1082L35.2862 44.5992Z" fill="#F9A000"/>
<path d="M16.5113 65.3359C16.5113 68.8253 16.5113 72.2824 16.5113 75.7556C15.4655 75.7556 14.4196 75.7556 13.3414 75.7556C13.3414 75.648 13.3414 75.5459 13.3414 75.4384C13.3414 73.5727 13.3414 71.7124 13.3414 69.8468C13.3414 69.6855 13.3468 69.5188 13.1474 69.492C12.9425 69.4651 12.9102 69.6371 12.8617 69.7823C12.2848 71.6748 11.7026 73.562 11.1312 75.4599C11.0611 75.6964 10.9694 75.7932 10.7053 75.7824C10.1392 75.7609 9.57318 75.7663 9.00713 75.7824C8.79688 75.7878 8.71063 75.7179 8.65133 75.519C8.07989 73.6265 7.49767 71.734 6.92084 69.8414C6.89927 69.7715 6.89388 69.6909 6.85076 69.6425C6.79146 69.578 6.68903 69.4866 6.62434 69.5027C6.54347 69.5242 6.47339 69.6264 6.43026 69.7124C6.39792 69.7769 6.41948 69.8683 6.41948 69.949C6.41948 71.7662 6.41948 73.5888 6.41948 75.4061C6.41948 75.5136 6.41948 75.6212 6.41948 75.7502C5.34668 75.7502 4.29545 75.7502 3.22266 75.7502C3.22266 72.2931 3.22266 68.836 3.22266 65.3521C3.30891 65.3467 3.40595 65.3359 3.49759 65.3359C4.53804 65.3359 5.58389 65.3359 6.62434 65.3359C7.42759 65.3359 7.97207 65.7338 8.20388 66.4973C8.68906 68.0887 9.17425 69.6801 9.66482 71.2716C9.70256 71.4006 9.76186 71.5296 9.81038 71.6533C9.84273 71.6533 9.87507 71.6587 9.90742 71.6587C9.96133 71.535 10.0314 71.4167 10.0691 71.2931C10.5489 69.7339 11.0233 68.1801 11.4977 66.6209C11.7781 65.7015 12.2686 65.3359 13.2282 65.3359C14.2148 65.3359 15.2067 65.3359 16.1932 65.3359C16.3065 65.3359 16.4035 65.3359 16.5113 65.3359Z" fill="#4DB45F"/>
<path d="M18.0469 75.784C18.0469 72.2839 18.0469 68.8268 18.0469 65.3536C19.0981 65.3536 20.1332 65.3536 21.2168 65.3536C21.2168 65.4558 21.2168 65.5579 21.2168 65.6601C21.2168 67.5042 21.2168 69.3483 21.2168 71.1978C21.2168 71.2785 21.1952 71.3699 21.2275 71.4344C21.2653 71.515 21.3407 71.6064 21.4216 71.6226C21.4809 71.6387 21.5995 71.5688 21.6372 71.5097C21.7397 71.3322 21.8205 71.1387 21.9068 70.9559C22.6507 69.3645 23.3947 67.7784 24.1279 66.1816C24.3974 65.6009 24.8341 65.3267 25.4648 65.3321C26.3435 65.3375 27.2277 65.3321 28.1064 65.3321C28.2034 65.3321 28.3005 65.3321 28.4137 65.3321C28.4137 68.8161 28.4137 72.2785 28.4137 75.7571C27.3678 75.7571 26.3274 75.7571 25.2546 75.7571C25.2546 75.628 25.2546 75.5259 25.2546 75.4184C25.2546 73.5742 25.2546 71.7301 25.2546 69.8806C25.2546 69.8107 25.2761 69.7301 25.2492 69.6655C25.2114 69.5688 25.1683 69.4128 25.0875 69.3913C25.0066 69.3698 24.8718 69.4935 24.8341 69.5741C24.5753 70.0957 24.3327 70.6226 24.0847 71.1548C23.4917 72.429 22.8933 73.7033 22.3057 74.9775C22.0577 75.5151 21.6534 75.784 21.055 75.7786C20.1547 75.7732 19.2598 75.7786 18.3596 75.7786C18.2625 75.784 18.1655 75.784 18.0469 75.784Z" fill="#4DB45F"/>
<path d="M29.6523 65.3451C29.7709 65.3451 29.868 65.3451 29.965 65.3451C32.2023 65.3451 34.4395 65.3397 36.6767 65.3505C37.9813 65.3558 39.0487 65.8505 39.7711 66.9688C40.1054 67.4796 40.3318 68.0387 40.2941 68.6731C40.2833 68.8613 40.2833 69.0495 40.3048 69.2377C40.3318 69.4581 40.2455 69.528 40.0407 69.528C39.4099 69.5226 38.7846 69.5334 38.1539 69.528C36.8762 69.5226 35.5985 69.5818 34.3263 69.4957C32.3855 69.3613 30.8761 68.4742 29.9866 66.6838C29.7925 66.2752 29.6685 65.8397 29.6523 65.3451Z" fill="url(#paint0_linear_388_7703)"/>
<path d="M33.2348 72.4344C33.2348 73.5796 33.2348 74.6979 33.2348 75.8324C32.1674 75.8324 31.1269 75.8324 30.0703 75.8324C30.0703 73.9237 30.0703 72.0258 30.0703 70.1172C33.4289 70.1172 36.7712 70.1172 40.1514 70.1172C40.1244 70.1978 40.1082 70.2731 40.0759 70.3376C39.4182 71.671 38.3454 72.3861 36.8521 72.4129C35.7416 72.4344 34.6257 72.4183 33.5151 72.4183C33.4289 72.4183 33.3534 72.4291 33.2348 72.4344Z" fill="#4DB45F"/>
<defs>
<linearGradient id="paint0_linear_388_7703" x1="29.6538" y1="67.4441" x2="40.3117" y2="67.4441" gradientUnits="userSpaceOnUse">
<stop stop-color="#00D9FF"/>
<stop offset="1" stop-color="#0097FF"/>
</linearGradient>
</defs>
</svg>
