<svg width="52" height="30" viewBox="0 0 52 30" fill="none" xmlns="http://www.w3.org/2000/svg">
<mask id="mask0_388_7746" style="mask-type:luminance" maskUnits="userSpaceOnUse" x="1" y="0" width="50" height="30">
<path d="M1.625 0.832031H50.5375V29.1654H1.625V0.832031Z" fill="white"/>
</mask>
<g mask="url(#mask0_388_7746)">
<path fill-rule="evenodd" clip-rule="evenodd" d="M11.0508 16.4141L14.382 18.6641V22.9141L11.0508 29.1641V16.4141Z" fill="#62B22F"/>
<path fill-rule="evenodd" clip-rule="evenodd" d="M8.20625 14.582L11.6188 16.582L1.625 22.832L4.875 16.7487L8.20625 14.582Z" fill="#974995"/>
<path fill-rule="evenodd" clip-rule="evenodd" d="M23.8883 8.83203H17.3883L14.382 6.91536L11.0508 0.832031L23.8883 8.83203Z" fill="#EE7024"/>
<path fill-rule="evenodd" clip-rule="evenodd" d="M11.0508 0.832031L14.382 6.91536V15.2487L11.0508 14.1654V0.832031Z" fill="#FBB61B"/>
<path fill-rule="evenodd" clip-rule="evenodd" d="M1.625 6.91406L4.875 13.0807V16.7474L1.625 22.8307V6.9974V6.91406Z" fill="#5A58A3"/>
<path fill-rule="evenodd" clip-rule="evenodd" d="M1.625 6.91406L23.8062 20.9974H17.4688L4.875 13.0807L1.625 6.91406Z" fill="#2188CB"/>
<path fill-rule="evenodd" clip-rule="evenodd" d="M17.4703 8.83203H23.8891L14.3828 14.832V10.832L17.4703 8.91536V8.83203Z" fill="#DA0954"/>
<path fill-rule="evenodd" clip-rule="evenodd" d="M35.9121 9.83073C36.3064 9.46198 36.7676 9.17652 37.2695 8.99064C37.7714 8.80475 38.3041 8.7221 38.8371 8.7474L42.0871 8.66406C41.8433 9.41406 41.3558 10.0807 41.0308 10.7474H38.6746C37.6996 10.8307 36.7246 11.6641 36.6433 12.7474C37.5371 11.8307 38.9996 11.7474 40.2183 12.0807C41.0308 12.3307 41.6808 12.9141 42.0058 13.7474C42.2496 14.5807 42.2496 15.3307 42.0871 16.0807C41.9488 16.5951 41.6922 17.068 41.3387 17.4595C40.9852 17.851 40.5453 18.1498 40.0558 18.3307C38.9312 18.7734 37.6867 18.7734 36.5621 18.3307C36.0282 18.0911 35.558 17.724 35.1905 17.2601C34.8231 16.7963 34.569 16.249 34.4496 15.6641C34.2058 14.6641 34.2058 13.1641 34.4496 12.1641C34.7746 11.2474 35.2621 10.4974 35.9121 9.83073ZM38.6746 13.7474C38.0246 13.6641 37.3746 13.9141 37.0496 14.4141C36.4808 15.4141 37.2933 16.9141 38.5121 16.7474C39.8933 16.4974 40.2996 14.2474 38.6746 13.7474ZM29.7371 11.2474C30.9558 10.9141 32.4183 10.9974 33.4746 11.7474L32.4183 13.5807C31.9308 13.4141 31.4433 13.0807 30.8746 13.1641C30.3058 13.1641 29.6558 13.3307 29.2496 13.9141C29.0843 14.1898 28.9968 14.5071 28.9968 14.8307C28.9968 15.1544 29.0843 15.4717 29.2496 15.7474C29.5746 16.3307 30.2246 16.5807 30.7933 16.5807C31.1996 16.5807 31.6871 16.4974 32.0933 16.3307L32.4183 16.2474C32.6621 16.8307 33.0683 17.3307 33.2308 17.9141C32.1746 18.5807 30.7933 18.7474 29.4933 18.4141C28.6808 18.1641 27.8683 17.5807 27.3808 16.8307C26.5683 15.5807 26.5683 13.8307 27.4621 12.6641C28.0438 11.9432 28.8452 11.4442 29.7371 11.2474ZM43.3058 11.2474H50.6183L50.5371 18.3307H48.0996V13.3307H45.8246V18.3307H43.3871V11.2474H43.3058Z" fill="#1B1537"/>
<path fill-rule="evenodd" clip-rule="evenodd" d="M14.382 22.9167L17.4695 21H23.807L11.0508 29.1667L14.382 22.9167Z" fill="#037F37"/>
</g>
</svg>
